<svg width="533" height="617" viewBox="0 0 533 617" fill="none" xmlns="http://www.w3.org/2000/svg">
<path fill-rule="evenodd" clip-rule="evenodd" d="M337.276 296.534C336.237 311.671 315.549 319.541 303.001 322.771C305.516 307.921 308.765 292.527 306.744 277.467C306.078 272.506 305.205 267.572 304.268 262.655C303.921 260.838 303.563 259.021 303.193 257.208C303.103 256.767 302.375 254.837 302.607 254.398C303.022 253.611 306.531 253.734 307.426 253.769C309.73 253.856 311.992 254.435 314.1 255.349C318.532 257.27 322.266 260.578 325.342 264.229C332.597 272.839 338.06 285.119 337.276 296.534ZM313.325 193.635C301.315 200.696 286.849 204.485 273.151 206.332C252.283 209.146 230.977 205.907 210.576 201.418C205.566 200.316 200.568 199.128 195.633 197.734C195.41 212.089 199.478 225.741 207.422 237.713C213.99 247.61 222.561 255.883 230.053 265.051C237.027 273.586 242.652 283.214 242.932 294.479C243.048 299.18 242.659 303.482 238.694 306.528C234.711 309.59 229.33 310.725 224.455 311.423C212.247 313.169 199.462 312.226 187.332 310.303C184.977 309.929 182.626 309.504 180.301 308.972C177.662 308.369 176.737 307.658 174.533 309.625C169.776 313.87 167.594 320.236 166.517 326.326C164.497 337.732 165.182 351.038 168.093 362.291C170.897 373.131 184.131 379.139 193.935 381.759C223.507 389.661 256.134 378.748 278.825 359.322C279.319 358.898 279.81 358.469 280.289 358.027C281.901 361.359 283.66 364.633 285.584 367.798C286.922 370 288.33 372.212 290.018 374.172C290.627 374.879 291.343 375.835 292.175 376.299C293.726 377.161 295.303 376.527 297.059 376.225C310.009 373.992 322.93 371.055 335.245 366.431C353.967 359.401 370.757 347.819 379.631 329.524C384.113 320.283 386.45 310.158 387.581 300.004C388.879 288.344 389.16 276.427 385.855 265.063C379.8 244.238 364.351 227.356 347.433 214.335C336.965 206.278 325.456 198.997 313.325 193.635Z" fill="#EF4565"/>
<path fill-rule="evenodd" clip-rule="evenodd" d="M524.939 55.7353C522.202 56.8153 519.255 57.1157 516.343 57.327C514.059 57.4924 512.266 58.4018 510.114 58.453C504.121 58.5951 498.102 58.8623 492.139 59.7514C486.149 60.6451 480.632 59.4783 475.902 63.9468C474.219 65.5368 472.108 67.365 473.12 69.9314C473.584 71.1069 474.238 71.9499 474.623 73.2116C475.059 74.638 475.601 75.9852 476.231 77.3429C477.44 79.9478 483.495 89.648 478.582 90.8346C473.255 92.1207 466.031 90.6174 460.899 89.1462C457.905 88.2874 454.959 87.2813 452.008 86.2898C449.672 85.505 446.604 85.0602 444.451 83.8306C443.023 83.0149 442.728 81.6228 441.784 80.3C440.068 77.8937 438.464 75.8443 436.246 73.8421C431.644 69.6897 425.892 66.8701 420.219 64.3916C419.853 64.2309 419.184 63.856 418.789 63.8193C418.362 63.7797 417.892 64.2164 417.616 64.1634C416.859 64.0172 416.596 63.5451 415.768 63.0781C414.655 62.4511 410.121 60.365 409.328 62.0051C410.07 59.8503 410.612 60.4721 412.62 60.7848C413.505 60.9234 414.097 60.521 414.891 60.5612C415.624 60.5979 415.924 61.0119 416.536 61.1236C417.657 61.328 418.701 61.1743 419.871 61.1656C420.185 60.4768 420.632 60.482 421.209 61.1807C421.532 61.2843 421.854 61.388 422.177 61.4922C423.342 61.8095 424.588 61.7489 425.78 61.8421C427.572 61.983 432.241 64.1523 433.14 61.9568C434.099 59.6122 431.187 59.0277 430.701 57.3917C430.228 55.7865 432.446 54.8445 433.336 53.8751C434.351 52.773 434.97 51.8053 436.16 50.8342C436.857 50.2642 437.771 49.7326 438.288 48.9734C438.763 48.2748 438.742 47.1453 439.36 46.5631C440.095 45.8691 440.208 46.3494 440.877 46.014C442.188 45.3556 441.609 45.3887 442.385 44.4886C443.047 43.7189 443.537 43.7422 444.405 43.1525C445.675 42.289 446.122 40.6018 447.356 39.6737C448.259 38.9943 449.697 38.9954 450.489 38.2898C450.956 37.8741 450.812 37.2005 451.215 36.8081C451.99 36.0541 452.521 36.3604 453.487 36.1117C455.118 35.6926 455.646 34.7977 456.846 33.7614C457.943 32.8153 458.639 32.8193 460.012 32.4269C461.887 31.8913 463.099 30.4881 464.791 29.6637C466.384 28.8882 468.03 28.3444 469.642 27.5183C470.806 26.9215 471.927 26.5512 472.989 25.9422C473.348 25.7367 473.379 24.9839 473.843 24.882C474.374 24.7644 474.799 25.6418 475.365 25.6878C476.55 25.7844 477.899 24.4791 478.678 23.7234C479.016 23.395 479.473 22.5072 479.909 22.3238C480.82 21.9395 481.362 22.7005 482.174 22.4C483.313 21.9785 482.86 20.7442 483.558 20.0636C484.168 19.4698 485.464 19.5099 486.548 19.698C490.914 20.4537 484.119 23.5161 482.842 24.1356C480.693 25.1789 465.055 32.7687 468.714 36.5536C470.649 38.5559 475.374 37.0503 477.478 36.5228C481.167 35.5977 485.012 33.8167 488.796 33.4079C489.263 33.3573 490.659 33.6897 491.039 33.5448C491.899 33.2181 491.685 32.5649 492.383 32.2214C493.435 31.7056 495.585 31.7306 496.653 31.8464C497.488 31.9373 498.402 32.4322 499.251 32.3652C500.186 32.2913 501.09 31.751 502.017 31.5769C503.605 31.28 505.248 31.4255 506.852 31.4715C509.157 31.5385 513.767 31.8843 510.417 34.9258C507.706 37.3874 503.015 38.4528 499.595 39.527C494.536 41.1147 489.566 42.5592 484.571 44.3681C481.168 45.6001 473.909 47.7642 477.96 52.3823C478.36 52.0073 478.76 51.633 479.159 51.258C479.632 51.7325 480.12 52.6559 480.877 52.6827C481.506 52.7048 481.275 52.033 481.87 51.8228C483.742 51.1637 486.307 51.2138 488.28 51.0898C493.224 50.7789 498.149 50.1285 503.098 49.9271C507.76 49.7373 512.471 49.9841 517.041 50.9547C518.217 51.2045 529.178 54.0626 524.939 55.7353ZM484.516 103.222C484.765 105.284 483.843 106.951 483.588 108.943C483.278 111.35 483.505 113.47 482.818 115.864C481.481 120.516 480.531 125.276 479.097 129.901C476.565 138.068 472.478 145.28 468.274 152.69C466.13 156.468 462.9 159.588 459.949 162.748C456.925 165.986 454.509 169.174 450.893 171.833C443.669 177.147 435.873 181.874 427.32 184.745C418.367 187.751 408.953 188.662 399.549 188.279C395.376 188.11 390.952 188.529 386.845 187.859C382.478 187.146 377.746 186.27 373.454 185.218C365.575 183.287 357.985 180.008 350.29 177.08C341.697 173.81 333.962 169.635 326.126 164.92C324.053 163.672 321.862 163.089 319.917 161.579C318.278 160.307 316.666 159.09 314.943 157.928C312.964 156.594 311.07 155.137 309.049 153.87C307.841 153.112 306.143 152.371 305.509 151C304.637 149.114 305.688 146.746 306.231 144.916C306.939 142.535 307.692 140.184 308.542 137.849C309.982 133.897 313.647 127.801 311.632 123.623C307.382 126.237 305.507 131.376 303.691 135.745C301.521 140.964 300.006 146.17 299.679 151.831C299.022 163.218 300.941 175.203 305.102 185.82C305.72 187.396 306.806 189.106 306.007 190.793C305.17 192.563 302.898 194.058 301.15 194.823C295.624 197.244 290.076 197.949 284.304 199.288C282.732 199.652 281.012 200.747 279.537 200.885C278.542 200.978 277.719 200.653 276.579 200.661C275.434 200.669 274.539 201.306 273.514 201.374C272.62 201.434 271.826 200.914 270.973 200.963C269.065 201.073 268.713 204.321 267.767 201.462C267.596 201.58 266.648 202.646 266.53 202.646C266.26 202.647 265.784 201.852 265.526 201.71C265.025 201.434 264.364 201.418 263.803 201.346C262.566 201.187 261.231 201.17 260.013 201.452C257.753 201.975 255.481 201.755 253.548 201.717C253.109 201.708 252.798 202.06 252.251 202.039C252.002 202.029 251.643 201.592 251.379 201.524C249.852 201.133 248.266 201.425 246.71 201.34C243.054 201.14 239.524 201.043 235.954 200.241C228.638 198.596 221.18 198.266 213.835 196.763C210.093 195.996 206.437 195.578 202.753 194.568C201.458 194.213 200.13 194.045 198.983 193.561C197.888 193.098 198.319 192.481 196.618 193.72C195.854 191.861 195.764 192.05 193.92 191.435C193.207 191.197 191.568 190.606 191.037 190.138C190.984 190.092 189.849 187.261 189.751 186.914C189.278 185.224 189.672 183.291 189.87 181.59C190.315 177.755 190.959 173.95 190.997 170.085C191.014 168.38 191.324 168.331 191.858 167.046C192.023 166.648 192.509 166.679 192.549 166.072C192.604 165.264 191.771 164.702 191.861 163.757C191.981 162.488 193.265 161.201 193.716 160.017C194.257 158.592 194.25 157.085 194.574 155.61C195.006 153.648 195.842 151.806 196.263 149.836C196.622 148.166 196.656 146.839 197.551 145.407C198.446 143.978 198.183 142.811 198.896 141.387C199.551 140.082 200.379 139.613 200.827 138.036C201.912 134.223 203.561 130.447 205.897 127.214C207.952 135.321 210.138 143.697 215.859 150.105C218.215 152.744 221.258 155.406 224.811 156.21C228.829 157.118 232.042 154.766 234.658 151.979C240.891 145.337 243.473 137.923 243.85 128.918C243.943 126.68 243.93 124.438 243.899 122.198C243.885 121.201 243.371 118.643 244.059 117.805C244.813 116.886 246.965 117.46 248.085 116.854C249.462 116.108 250.976 114.113 250.361 112.468C254.032 114.118 257.542 116.291 261.624 116.751C263.24 116.933 264.961 116.656 266.407 116.579C266.364 116.581 267.526 116.816 267.596 116.832C267.882 116.504 268.193 116.424 268.526 116.593C268.823 116.624 269.039 116.782 269.175 117.068C274.994 117.645 280.853 114.79 285.833 111.766C288.743 109.999 291.939 107.383 292.756 103.944C293.048 102.716 292.795 101.56 294.074 100.934C295.112 100.424 297.116 101.159 298.212 101.239C302.066 101.519 305.864 101.156 309.627 102.297C311.923 102.992 315.931 107.87 317.532 104.439C318.227 105.086 317.85 106.239 318.589 106.869C319.234 107.418 321.401 107.804 322.292 108.274C323.673 109.001 324.483 109.969 325.692 110.843C327.177 111.917 328.731 112 330.169 113.26C335.148 117.626 340.981 120.788 346.54 124.408C353.136 128.703 358.974 133.765 366.051 137.268C373.291 140.85 380.295 143.843 388.206 145.706C391.794 146.552 395.474 147.257 399.157 147.518C400.895 147.641 402.552 147.579 404.228 148.096C405.246 148.411 405.575 148.568 406.575 148.597C407.158 148.614 408.001 148.28 408.719 148.293C410.193 148.319 410.946 148.259 412.276 148.743C413.781 149.291 415.032 149.62 416.746 149.667C418.718 149.722 419.879 148.97 421.67 148.507C423.113 148.133 424.413 148.311 425.705 147.535C431.446 144.087 436.06 138.821 439.071 132.842C442.528 125.98 445.191 117.616 445.733 109.927C446.043 105.526 445.065 101.234 443.372 97.1929C442.895 96.053 440.028 91.1979 440.911 90.3158C441.913 89.3138 445.191 91.6107 446.115 92.1096C449.047 93.6915 454.342 94.1986 456.398 96.8599C456.921 95.8626 459.831 97.3408 460.765 97.7571C461.538 98.1012 461.757 98.7236 462.728 98.7981C463.644 98.868 464.589 98.1431 465.43 97.912C464.816 99.6155 466.883 99.6953 468.3 99.7855C469.32 99.8507 470.417 99.6912 471.326 99.6272C473.065 99.5043 473.093 99.1166 474.682 98.2316C474.62 98.8796 474.691 99.5125 474.893 100.131C475.914 98.663 477.862 99.6825 479.241 99.0374C478.244 97.5353 482.501 97.1242 483.492 97.4398C485.987 98.2357 484.296 101.396 484.516 103.222ZM289.126 206.458C290.772 205.971 292.429 205.525 294.081 205.059C292.83 206.199 291.531 208.256 289.744 208.577C287.589 208.963 286.741 207.164 289.126 206.458ZM207.839 207.274C210.611 207.604 213.63 207.352 216.059 208.977C214.875 210.329 214.107 211.745 212.131 210.97C210.471 210.318 209.105 208.461 207.839 207.274ZM300.448 281.333C298.628 279.712 298.867 278.987 299.722 276.888C300.09 275.986 300.672 273.181 302.053 274.003C302.543 274.294 303.136 277.351 303.224 277.971C303.42 279.355 302.557 283.211 300.448 281.333ZM310.713 271.92C310.07 269.574 310.092 267.019 309.46 264.616C308.794 262.078 307.973 259.531 307.737 256.908C317.354 258.594 322.817 268.071 326.982 275.98C329.196 280.182 331.366 284.83 332.201 289.528C333.015 294.106 331.602 297.582 329.96 301.662C329.123 303.744 327.739 304.467 326.124 305.843C324.693 307.062 324.157 309.12 322.666 310.216C321.565 311.025 320.132 311.445 318.981 312.263C317.842 313.07 316.704 313.87 315.529 314.624C314.186 315.486 310.162 318.627 308.349 317.957C306.992 317.455 307.597 315.806 307.939 314.772C308.658 312.593 309.164 310.494 309.609 308.222C310.796 302.16 311.439 296.136 311.746 289.97C312.046 283.949 312.326 277.798 310.713 271.92ZM302.67 299.263C302.814 299.561 303.415 302.106 302.074 301.583C301.143 301.219 302.533 299.73 302.67 299.263ZM308.336 198.22C309.471 197.754 309.925 199.132 310.923 199.173C312.248 199.227 312.526 197.765 313.916 197.721C317.315 197.615 322.239 200.876 325.002 202.578C323.649 204.277 323.091 206.014 323.764 208.105C324.357 209.947 326.622 212.007 326.538 213.959C326.453 215.917 324.003 217.177 323.239 218.919C322.537 220.519 322.268 223.717 324.437 224.422C328.166 225.636 329.019 218.7 331.845 218.647C333.053 218.624 334.623 220.88 335.492 221.582C337.437 223.154 339.632 224.303 341.895 225.347C343.422 226.052 345.549 227.441 346.682 225.547C347.589 224.029 346.848 221.625 345.966 220.32C344.954 218.823 335.884 211.968 336.457 211.364C336.762 211.042 339.02 211.93 339.34 212.2C340.063 212.808 340.329 213.797 341.054 214.444C342.16 215.432 343.589 215.824 344.957 216.281C347.812 217.233 349.619 220.584 352.386 222.144C353.982 223.044 354.956 224.772 356.307 226.11C358.074 227.862 359.875 229.698 359.609 232.278C359.425 234.065 359.157 238.229 358.139 239.737C357.034 241.374 355.195 240.746 353.516 241.133C351.627 241.568 350.115 243.032 350.491 245.122C350.882 247.296 352.633 247.451 354.462 247.506C359.62 247.661 357.721 250.913 359.52 254.485C360.497 256.425 362.127 257.187 363.249 254.916C364.152 253.089 362.539 250.209 363.519 248.649C364.713 246.748 371.104 247.265 372.436 248.742C373.447 249.862 373.982 251.402 374.989 252.573C376.519 254.351 377.147 256.844 378.065 259.024C379.039 261.339 379.889 263.687 380.635 266.086C381.159 267.77 382.291 270.438 379.581 269C377.688 267.995 376.274 265.728 373.876 265.656C371.504 265.585 370.152 268.032 370.845 270.159C371.515 272.218 374.574 273.125 374.928 275.212C375.317 277.496 371.378 279.826 370.182 281.505C367.428 285.371 369.731 289.723 374.245 286.441C375.846 285.278 377.521 282.932 379.326 282.197C382.182 281.034 382.165 285.343 383.533 286.929C384.269 287.782 384.535 286.915 384.099 288.19C383.938 288.66 383.123 288.808 383.031 289.392C382.965 289.82 383.351 290.047 383.365 290.378C383.41 291.502 383.412 291.667 383.157 292.889C382.876 294.243 382.978 295.925 382.894 297.301C382.699 300.446 382.657 303.449 382.325 306.592C382.14 308.341 381.753 311.906 383.833 312.758C383.093 313.91 382.107 317.115 380.652 316.874C380.77 317.632 380.704 318.601 381.446 319.097C381.623 318.634 381.801 318.172 381.978 317.709C382.385 318.767 382.027 318.888 382.003 319.608C382.033 318.717 381.183 320.851 381.643 320.587C381.252 320.911 380.737 321.097 380.15 321.516C379.33 322.102 378.898 322.911 378.262 323.704C377.11 325.136 377.177 326.582 376.168 328.076C374.738 330.195 372.902 332.286 371.395 334.403C370.169 336.126 367.83 337.12 366.847 338.973C366.222 340.151 365.973 341.521 364.906 342.35C363.378 343.536 361.336 344.655 359.676 345.88C358.633 346.65 357.839 347.719 356.798 348.467C356.27 348.846 354.683 349.23 354.68 350.001C352.683 349.446 351.268 347.419 349.697 346.186C348.647 345.361 346.146 344.291 346.298 342.639C346.422 341.288 348.356 339.611 348.802 338.194C349.18 336.993 349.707 334.754 348.661 333.728C346.467 331.576 343.98 336.194 342.802 337.423C340.373 339.959 339.34 337.402 337.343 335.561C334.152 332.62 332.147 335.671 333.27 339.333C333.839 341.186 336.005 342.839 336.145 344.732C336.3 346.812 334.03 347.857 333.132 349.52C332.283 351.087 331.892 353.84 333.486 355.137C335.244 356.568 336.773 354.875 337.923 353.555C338.816 352.529 339.809 350.272 341.26 350.144C343.077 349.984 346.057 353.261 347.44 354.272C345.34 354.876 344.075 356.623 342.299 357.741C340.007 359.185 336.809 359.527 334.244 360.518C331.828 361.452 329.654 362.212 327.353 363.37C324.624 364.745 321.284 365.088 318.393 366.089C315.813 366.983 313.364 368.236 310.728 368.974C307.757 369.806 304.674 370.306 301.677 371.057C299.116 371.7 296.111 372.317 293.471 372.322C290.8 372.327 290.856 370.685 290.002 368.497C288.988 365.899 287.308 363.619 286.235 361.083C285.216 358.672 286.756 357.756 288.233 355.911C289.624 354.172 289.256 353.9 291.05 355.121C293.412 356.728 294.972 355.641 296.809 353.793C298.444 352.151 299.045 350.785 301.397 351.929C303.751 353.073 305.993 354.936 308.522 355.682C310.515 356.27 311.999 355.843 312.333 353.679C312.693 351.341 311.35 349.681 309.658 348.293C308.37 347.237 305.555 345.984 305.085 344.27C304.589 342.464 307.201 339.83 307.481 337.811C307.833 335.262 306.727 333.388 304.292 335.152C302.525 336.432 301.349 339.208 298.896 339.38C299.577 336.543 301.055 334.021 302.323 331.42C303.385 329.244 304.296 326.773 307.148 326.53C308.073 326.451 308.675 326.547 309.557 326.389C310.722 326.181 312.302 326.016 313.548 325.704C316.478 324.968 319.065 322.722 321.763 321.434C322.382 323.087 323.476 327.795 325.996 325.046C327.859 323.013 325.795 319.514 327.511 317.253C331.052 312.586 338.764 316.013 343.416 313.606C345.441 312.559 347.09 309.219 344.234 308.212C342.566 307.623 337.748 309.795 336.744 308.194C336.029 307.052 339.027 302.59 339.39 301.364C340.517 297.547 340.334 293.584 340.334 289.652C342.598 290.572 345.463 292.725 347.902 293.019C350.41 293.322 350.851 290.398 350.194 288.477C349.288 285.831 346.269 283.662 344.201 281.957C343.288 281.206 340.9 279.996 340.4 278.854C339.884 277.674 340.623 277.103 341.203 276.078C342.108 274.476 344.302 270.335 341.915 268.834C339.719 267.453 338.487 271.324 337.088 272.152C334.715 273.556 333.901 270.338 332.957 268.7C331.245 265.726 328.87 263.072 326.739 260.396C324.799 257.961 323.604 256.312 323.32 253.209C323.106 250.858 322.622 249.038 325.413 248.504C330.362 247.557 337.608 249.89 341.628 245.891C343.736 243.795 342.23 241.627 339.568 241.735C336.071 241.877 332.746 242.048 329.226 241.766C327.355 241.617 323.444 242.068 322.499 240.153C321.283 237.687 323.345 233.726 321.106 231.565C318.248 228.806 317.548 235.042 317.453 236.764C317.383 238.018 317.707 239.928 316.921 241.013C316.187 242.025 314.846 242.01 313.762 242.377C311.03 243.298 309.619 246.632 313.243 247.337C314.462 247.575 316.163 247.229 317.176 248.127C318.237 249.066 317.832 250.736 317.931 252.002C315.392 249.08 310.115 250.375 306.676 249.29C304.866 248.718 304.559 247.957 303.798 246.215C302.876 244.108 300.775 241.443 300.694 239.112C300.626 237.134 302.286 235.645 303.06 233.939C303.724 232.476 304.326 230.094 304.227 228.452C303.99 224.491 296.795 228.534 295.312 230.05C292.622 232.8 289.306 236.358 290.764 240.253C292.065 243.73 292.755 245.7 288.242 245.427C286.59 245.327 283.121 245.652 281.839 244.959C280.887 244.445 281.245 243.524 281.214 242.187C281.187 241.031 281.275 239.277 280.527 238.266C277.895 234.709 277.279 243.559 275.801 244.518C273.492 246.017 268.604 244.446 268.981 248.896C269.311 252.789 274.61 251.199 276.076 254.548C276.782 256.162 276.632 258.04 277.521 259.597C278.788 261.817 280.347 261.699 281.187 259.385C281.777 257.76 280.991 256.089 281.444 254.556C282.1 252.339 285.219 252.544 287.139 252.293C289.472 251.989 291.505 251.406 293.724 250.693C296.462 249.813 296.313 251.257 296.759 253.348C297.276 255.774 298.067 258.113 298.552 260.575C299.003 262.869 300.202 265.34 300.397 267.637C300.546 269.392 299.947 269.232 298.483 270.245C296.883 271.352 295.121 274.23 293.264 274.703C290.471 275.415 287.656 269.075 285.115 272.319C284.023 273.712 284.445 276.678 285.222 278.117C286.247 280.018 288.131 280.502 286.552 282.68C285.365 284.316 283.873 285.584 283.761 287.786C283.657 289.83 285.057 291.763 287.245 291.163C289.013 290.679 290.059 288.88 291.398 287.788C293.709 285.903 295.607 287.65 297.972 288.716C299.834 289.556 303.257 290.104 304.191 292.079C305.377 294.585 303.857 295.554 301.653 294.842C302.512 297.644 301.382 299.272 301.072 302.168C300.821 304.513 300.278 306.657 299.933 308.924C299.473 311.951 299.425 311.622 296.288 311.725C293.623 311.813 291.033 311.742 288.372 311.626C286.027 311.523 284.432 311.734 284.326 308.924C284.28 307.684 285.067 303.48 282.606 303.985C280.439 304.429 281.063 308.27 280.338 309.714C279.289 311.803 277.516 311.165 275.542 311.68C273.535 312.206 271.912 313.677 272.43 315.952C272.983 318.38 275.224 318.211 277.172 318.772C280.172 319.637 279.514 324.019 281.265 326.399C281.98 327.37 282.731 328.352 283.931 327.554C286.131 326.093 284.054 322.521 284.636 320.729C285.247 318.844 287.308 319.23 289.256 318.985C292.132 318.625 295.142 317.248 298.007 317.264C297.458 318.906 295.919 319.861 295.365 321.589C295.068 322.516 295.345 324.246 294.933 325.013C294.489 325.836 293.092 326.082 292.514 327.227C291.757 328.726 291.524 330.333 290.638 331.801C288.545 335.274 286.742 338.824 284.518 342.262C282.221 345.812 279.745 349.19 276.855 352.267C274.052 355.253 273.215 353.807 270.806 351.366C269.826 350.373 267.743 349.223 267.47 347.739C267.201 346.277 268.419 345.083 269.086 343.893C269.97 342.315 271.567 339.599 271.178 337.705C270.448 334.149 267.246 337.423 266.032 338.754C263.913 341.08 262.727 343.525 259.524 341.688C257.473 340.512 254.886 337.293 252.194 338.483C249.744 339.567 250.43 342.698 251.938 344.287C252.782 345.177 253.986 345.686 254.882 346.519C256.81 348.314 255.718 348.802 254.838 350.813C254.117 352.459 254.013 355.695 255.341 357.066C257.955 359.764 259.975 354.322 262.4 354.212C263.55 354.159 268.329 357.274 268.67 358.394C269.268 360.362 264.112 362.71 262.742 363.634C259.555 365.781 256.084 367.97 252.5 369.393C248.27 371.074 251.423 365.779 249.11 364.02C246.103 361.731 245.87 368.001 245.562 369.559C244.741 373.702 240.334 373.81 236.778 374.837C234.515 375.492 232.249 376.186 229.962 376.756C228.021 377.238 225.848 377.227 223.967 377.825C222.317 378.349 221.188 379.413 219.342 379.426C218.742 379.43 218.221 379.228 217.642 379.214C216.475 379.186 215.405 379.848 214.29 379.78C212.435 379.665 213.242 379.084 212.596 377.799C211.99 376.593 210.449 376.15 209.249 375.773C205.809 374.693 202.945 375.639 202.445 371.296C202.292 369.963 202.494 364.487 199.94 365.126C196.955 365.873 199.581 372.382 197.728 374.013C196.827 374.806 195.466 374.41 194.38 374.645C192.596 375.03 191.814 376.367 189.861 376.278C188.214 376.202 186.681 375.476 185.245 374.755C183.105 373.68 180.552 372.967 178.767 371.326C176.322 369.077 175.248 365.574 174.206 362.533C172.672 358.054 172.018 353.59 171.771 348.893C171.685 347.255 170.985 346.1 170.692 344.598C170.381 343 171.3 342.68 171.512 341.166C171.718 339.694 171.618 338.122 171.93 336.546C172.378 334.278 172.535 331.958 172.969 329.684C173.688 325.923 174.779 322.188 175.674 318.46C175.952 317.302 176.456 313.591 177.895 313.234C178.957 312.971 181.408 314.541 182.393 315.002C184.338 315.913 186.011 317.172 188.093 317.803C189.167 318.128 190.523 318.096 191.228 319.087C192.342 320.654 191.442 323.724 191.903 325.576C192.468 327.843 194.34 328.807 195.849 326.53C196.652 325.316 196.438 323.868 196.546 322.526C196.7 320.591 196.735 320.123 198.844 320.253C200.98 320.386 203.066 321.187 205.256 321.284C207.232 321.371 209.216 321.317 211.189 321.21C215.981 320.95 220.364 320.175 224.857 318.482C227.901 317.334 231.432 314.826 234.786 314.914C239.522 315.039 238.24 319.392 238.888 322.648C239.283 324.63 242.621 330.714 243.903 325.776C244.537 323.334 242.424 319.773 243.676 317.567C245.155 314.961 250.589 317.124 253.062 316.52C255.063 316.031 258.407 313.214 256.994 310.784C256.325 309.632 255.025 309.851 253.866 309.764C251.669 309.601 249.487 309.304 247.308 308.985C246.069 308.804 244.175 308.698 243.679 307.285C243.259 306.085 245.23 302.975 245.658 301.827C247.074 298.028 247.584 294.938 247.59 290.794C247.591 288.928 247.714 286.957 247.412 285.111C247.301 284.434 246.278 282.224 246.757 281.578C247.401 280.707 248.719 281.812 249.248 282.464C250.299 283.763 249.934 283.659 249.336 285.005C248.457 286.985 246.747 291.136 249.647 292.66C252.679 294.254 253.774 288.868 256.647 289.458C257.986 289.734 259.308 291.483 260.388 292.3C261.651 293.256 263.016 294.271 264.501 294.858C266.936 295.821 269.675 295.099 268.69 292.057C267.914 289.658 265.458 287.651 263.702 285.95C260.905 283.24 261.032 282.102 262.965 278.911C263.773 277.575 266.879 271.904 263.279 271.442C261.374 271.198 259.314 274.266 258.307 275.439C256.58 277.454 255.589 278.318 253.019 276.701C250.507 275.12 249.341 273.799 246.302 273.653C242.807 273.485 241.234 268.27 239.381 265.591C234.347 258.316 226.638 254.717 220.139 249.143C216.972 246.426 214.833 242.871 212.425 239.527C211.278 237.934 209.797 236.611 208.862 234.875C208.274 233.784 206.682 231.153 207.096 229.865C207.612 228.261 210.398 227.272 211.556 226.139C212.529 225.189 213.048 224.004 214.578 224.368C215.939 224.691 217.166 226.521 218.279 227.325C219.371 228.114 220.604 228.846 221.816 229.436C224.007 230.503 226.652 231.074 226.78 227.828C226.892 225.02 224.314 222.013 222.45 220.119C221.094 218.74 219.04 217.541 219.309 215.352C219.441 214.266 220.37 212.334 220.912 211.423C222.781 208.289 228.485 210.201 231.585 210.402C235.32 210.645 239.437 210.022 242.406 212.646C243.374 213.502 245.619 215.183 246.094 216.374C246.647 217.761 245.743 218.384 245.241 219.726C244.592 221.46 244.146 224.884 246.014 226.08C249.133 228.075 250.759 222.156 254.001 223.451C257.075 224.679 259.224 228.208 262.733 228.767C267.326 229.498 264.711 223.846 263.122 222.183C261.06 220.027 257.063 217.797 258.372 214.609C258.746 213.697 259.6 211.796 260.368 211.231C261.873 210.123 264.297 210.732 266.02 210.75C270.367 210.796 274.47 210.44 278.73 209.686C280.014 209.458 280.307 209.278 281.212 210.228C282.465 211.542 283.123 213.255 284.581 214.547C282.475 216.801 279.353 219.461 280.818 222.93C282.077 225.915 284.839 224.45 286.707 222.856C287.585 222.107 288.491 220.522 289.654 220.222C291.163 219.832 292.86 221.193 294.095 221.884C295.95 222.923 299.917 226 302.024 224.183C304.811 221.78 301.513 218.165 299.594 216.681C298.433 215.783 296.886 215.143 295.909 214.035C294.609 212.561 295.372 212.344 296.159 211.016C297.601 208.585 297.072 205.454 299.379 203.555C300.658 202.501 302.486 201.839 303.946 201.067C305.383 200.307 306.926 198.799 308.336 198.22ZM331.834 207.674C331.273 207.333 330.712 206.992 330.151 206.651C331.433 206.03 332.279 206.104 331.834 207.674ZM362.776 237.214C363.002 236.079 363.884 234.049 365.097 235.111C365.878 235.792 365.025 238.354 366.883 237.646C366.979 239.277 365.755 239.139 367.56 240.59C365.283 240.328 362.138 240.431 362.776 237.214ZM274.359 374.77C274.932 373.241 274.928 370.872 276.694 372.268C276.786 370.418 276.345 364.549 279.729 364.788C281.108 364.885 281.093 366.093 281.458 367.14C282.093 368.966 283.167 370.629 284.071 372.33C280.714 372.465 277.354 373.228 274.359 374.77ZM275.458 395.863C277.377 397.302 278.339 395.602 280.15 394.982C281.822 394.41 283.558 394.753 285.41 394.347C287.707 393.843 290.412 393.919 292.657 393.899C293.209 393.895 294.366 393.982 294.925 394.046C295.943 394.161 295.851 394.37 296.905 394.652C297.312 394.559 297.724 394.491 298.139 394.449C298.647 394.427 299.047 394.636 299.341 395.076C300.289 395.389 300.634 395.18 301.541 395.4C303.702 395.924 305.315 397.217 306.726 398.93C309.599 402.419 309.685 407.661 309.619 411.979C309.6 413.209 309.506 414.432 309.643 415.658C309.768 416.783 310.568 418.483 310.242 419.602C309.746 421.294 308.211 420.914 306.423 420.989C305.371 421.034 304.32 421.708 303.483 421.768C302.673 421.826 302.347 421.529 301.527 421.347C299.389 420.872 296.865 421.549 294.755 422.127C292.59 422.721 290.693 423.306 288.497 423.726C287.069 423.999 285.783 424.154 284.343 424.333C283.161 424.48 282.651 425.097 281.621 425.352C280.626 425.596 279.657 425.23 278.654 425.422C277.287 425.685 276.334 426.681 275.088 427.177C273.371 427.861 270.626 426.839 269.865 428.947C269.567 426.914 267.603 427.466 266.141 427.286C263.732 426.99 261.358 425.917 259.041 425.232C257.141 424.672 250.571 419.501 249.313 421.599C249.315 421.387 249.543 420.186 249.344 420.047C248.644 419.558 248.649 419.827 247.895 419.52C246.74 419.052 246.253 418.628 245.428 417.838C243.759 416.241 241.513 415.406 239.755 413.957C235.338 410.317 233.826 402.818 232.749 397.599C231.339 400.08 231.858 396.896 232.101 395.832C232.678 393.322 231.936 392.085 231.769 389.66C231.614 387.43 232.638 386.989 234.666 386.756C237.165 386.468 239.57 386.066 242.017 385.447C244.354 384.856 246.643 384.189 248.752 383.013C250.682 381.936 252.707 381.513 254.68 380.571C256.857 379.532 258.99 378.439 261.186 377.426C262.176 376.97 266.534 373.705 267.29 373.904C268.843 374.313 267.377 377.013 266.904 377.721C265.687 379.541 263.69 380.386 261.888 381.531C260.262 382.563 255.333 387.454 260.337 386.964C263.653 386.639 265.899 383.188 268.021 387.12C268.77 388.509 269.871 389.624 269.011 391.059C267.808 393.06 264.341 394.015 262.523 395.362C260.973 396.511 257.803 401.924 260.998 402.505C261.916 402.671 263.332 402.456 264.015 401.747C264.475 401.269 264.443 400.285 264.909 399.958C265.569 399.494 266.851 400.069 267.605 399.814C268.679 399.451 268.93 398.87 269.325 397.846C270.472 398.365 270.488 399.062 271.797 398.392C272.231 398.169 272.391 397.354 272.893 397.137C273.569 396.844 273.769 397.803 274.14 397.661C275.144 397.279 275.14 396.848 275.458 395.863ZM206.635 379.94C204.713 380.083 202.613 380.237 200.972 379.02C202.966 379.139 204.724 379.586 206.722 379.177C207.516 379.015 208.787 378.27 209.601 378.529C212.493 379.45 207.405 379.882 206.635 379.94ZM201.296 211.984C201.267 211.313 200.693 202.277 203.802 205.826C204.653 206.798 203.735 208.098 203.614 209.172C203.41 210.981 204.048 212.795 205.009 214.319C205.904 215.74 207.577 216.984 207.326 218.837C207.107 220.463 205.454 221.851 204.64 223.201C202.637 220.067 201.457 215.755 201.296 211.984ZM194.463 117.162C187.26 117.914 180.094 119.246 173.149 121.301C166.33 123.319 159.974 126.474 153.567 129.496C152.246 123.882 150.863 118.282 149.559 112.664C148.931 109.96 148.332 107.249 147.744 104.535C147.326 102.606 145.806 99.0089 146.44 97.1108C146.777 96.1054 147.221 96.1013 147.946 95.4801C148.388 95.101 149.159 94.1742 149.618 93.9756C150.735 93.4935 153.603 93.0709 154.746 93.1396C155.788 93.2019 156.332 93.6129 157.404 93.3154C158.317 93.0621 159.083 92.3652 159.939 91.9827C162.118 91.0098 164.838 90.6838 167.169 90.1691C169.411 89.6736 171.727 89.5636 173.975 89.0728C175.944 88.6425 176.88 87.2033 178.559 87.2551C182.93 87.3908 187.763 86.8825 192.099 85.8456C196.965 84.6823 202.258 84.9071 207.25 84.7825C209.238 84.733 210.636 84.2888 210.646 86.4872C210.658 89.1706 209.578 92.1824 209.028 94.8018C207.807 100.609 206.772 106.255 206.31 112.152C206.08 115.101 204.862 114.895 202.447 115.8C199.76 116.807 197.321 116.864 194.463 117.162ZM156.593 176.745C158.368 177.005 158.164 172.185 158.294 171.205C162.525 179.129 167.291 186.754 171.019 194.938C171.891 196.852 172.682 198.81 173.603 200.7C174.233 201.994 175.643 203.732 175.609 205.238C175.573 206.809 174.295 207.397 172.948 207.98C171.492 208.609 170.923 208.923 169.897 208.195C168.655 207.314 167.618 204.599 166.852 203.29C165.68 201.292 164.559 199.265 163.412 197.254C161.334 193.608 158.881 190.116 157.174 186.288C155.574 182.701 153.154 179.616 151.43 176.093C149.722 172.604 147.385 169.296 145.423 165.881C147.394 165.067 149.851 163.032 152.091 163.145C154.404 163.262 154.348 165.479 154.448 167.326C154.554 169.287 153.893 176.348 156.593 176.745ZM162.276 212.544C161.221 213.788 158.84 214.518 157.38 215.208C155.359 216.162 153.289 217.012 151.277 217.987C144.676 221.185 138.102 224.113 131.377 227.05C127.901 228.568 124.467 230.182 121.075 231.876C119.298 232.764 115.383 235.874 113.338 235.953C110.995 236.043 110.94 231.344 110.423 229.581C109.989 228.107 109.184 226.958 108.642 225.561C108.422 224.989 108.593 224.556 108.257 223.99C107.874 223.346 106.801 222.826 106.249 222.27C103.907 219.908 101.965 216.901 99.9867 214.24C98.1743 211.802 95.0832 208.75 94.2136 205.763C92.5044 199.891 102.435 196.64 106.235 194.281C112.888 190.15 119.572 185.907 125.914 181.317C128.803 179.226 131.631 177.053 134.534 174.981C135.889 174.014 139.644 170.253 141.382 171.593C142.03 172.092 142.042 173.473 142.313 174.196C142.903 175.778 143.799 177.159 144.708 178.577C145.514 179.833 146.661 181.132 147.165 182.534C147.765 184.205 147.737 185.152 148.837 186.651C150.837 189.378 151.781 192.524 153.64 195.303C155.433 197.984 157.156 199.961 158.328 202.956C159.001 204.672 160.062 206.196 161 207.774C161.441 208.519 161.903 209.252 162.299 210.024C163.008 211.403 163.258 211.385 162.276 212.544ZM105.533 235.481C104.264 236.383 102.396 234.867 101.165 234.846C100.63 234.837 100.098 235.251 99.7401 235.24C98.6645 235.208 97.7855 234.491 96.7959 234.157C92.225 232.613 86.7758 232.554 82.8713 229.419C75.1144 223.19 78.8128 210.693 80.2251 202.597C80.5132 200.946 81.0309 198.659 79.6876 197.307C78.2149 195.825 76.0003 196.71 74.6524 197.909C73.2693 199.138 72.3294 200.86 71.18 202.296C69.3489 204.583 67.3504 206.744 65.332 208.867C58.16 216.408 50.5653 225.036 41.6935 230.57C38.0033 232.872 34.6638 235.991 30.6194 237.746C25.7545 239.856 30.7488 231.71 31.6236 230.386C37.3492 221.723 45.6847 214.865 52.6856 207.26C54.0067 205.825 55.8828 203.891 55.9062 201.823C55.9419 198.718 53.1798 198.997 50.9963 199.859C48.9539 200.665 47.9303 202.672 46.2872 204.043C44.2413 205.75 41.851 207.135 39.5738 208.512C34.6627 211.484 29.4488 213.977 24.2514 216.409C21.8201 217.546 19.3772 218.658 16.9342 219.772C16.2638 220.077 12.2562 222.602 12.4477 220.438C12.474 220.147 15.0306 217.064 15.3462 216.949C16.9202 216.378 17.7007 218.102 19.1014 215.842C20.0968 214.237 20.235 213.404 21.6404 212.186C21.8793 211.979 22.0438 211.455 22.2376 211.115C22.2136 211.243 23.2817 210.212 23.0773 210.391C23.3578 210.145 23.7654 209.694 23.9932 209.399C25.0917 207.975 27.2032 207.947 28.1582 206.32C28.5225 205.7 28.3158 204.905 28.7549 204.29C29.3698 203.427 30.723 203.06 31.445 202.301C32.0639 201.648 32.574 201.116 32.9581 200.717C33.2228 200.443 33.6871 200.25 34.0004 199.936C34.7792 199.153 34.7183 198.46 35.8086 197.802C36.7877 197.211 37.238 197.764 37.5764 196.301C38.768 197.06 38.6187 195.95 39.1024 195.156C39.7313 194.122 40.53 193.66 41.3966 192.912C43.3032 191.266 45.0903 188.815 46.7129 186.742C50.7468 181.588 54.0102 175.561 55.2117 169.093C55.4993 167.547 55.6579 165.984 55.7721 164.416C55.833 163.592 55.5619 161.584 56.0766 160.776C56.8747 159.523 58.3902 160.02 59.5437 159.472C59.9355 159.285 60.3219 158.736 60.6897 158.611C61.2038 158.437 61.8333 158.607 62.3667 158.439C62.574 158.374 62.622 157.768 62.9652 157.691C63.6374 157.538 64.3055 157.78 64.9701 157.79C66.4246 157.809 67.861 157.555 69.2558 157.094C70.5247 156.675 71.587 155.715 72.8529 155.369C72.7235 155.405 74.9399 155.58 74.8204 155.456C74.9264 154.914 75.0324 154.372 75.1384 153.83C75.9798 154.413 78.8491 155.183 79.7391 155.05C81.1697 154.836 80.8681 153.555 82.0808 155.237C82.7677 154.642 83.4539 154.048 84.1402 153.453C84.6602 155.62 88.2415 154.568 89.8652 154.688C92.1524 154.858 93.9542 154.431 96.0388 155.222C98.5743 156.185 100.798 157.199 103.528 157.462C105.436 157.645 106.23 158.536 108.099 159.085C110.611 159.823 110.81 160.637 110.024 163.186C109.387 165.253 108.836 166.846 109.767 168.966C111.418 172.726 115.905 174.275 118.797 176.873C112.021 181.595 105.33 186.241 98.7798 191.273C96.0353 193.38 93.1163 195.492 91.5534 198.663C90.1118 201.59 89.2937 205.107 88.4265 208.24C86.4368 215.423 92.0418 220.257 97.8002 223.417C98.9918 224.07 107.198 234.298 105.533 235.481ZM94.3565 244.163C93.9513 242.782 94.0046 242.413 95.3478 241.917C95.8561 241.73 97.8048 241.485 98.1199 242.178C98.8343 243.749 95.0814 243.729 94.3565 244.163ZM151.458 144.052C151.939 147.118 152.413 150.184 152.843 153.257C153.079 154.954 153.617 156.456 152.343 157.736C151.62 158.463 149.865 158.735 148.941 159.122C147.608 159.681 146.31 160.321 145.028 160.987C142.743 162.176 140.355 162.891 138.1 163.962C137.119 164.428 136.538 165.345 135.689 165.977C134.527 166.843 133.114 167.263 131.915 168.087C129.772 169.559 127.808 171.302 125.667 172.785C123.241 174.464 122.736 173.925 121.373 171.443C120.15 169.215 118.682 168.198 116.92 166.451C116.236 165.772 113.784 161.901 115.866 161.567C116.4 161.482 118.243 162.277 118.661 162.532C119.296 162.919 120.31 165.117 120.826 165.154C121.755 165.222 122.945 162.594 123.524 161.902C127.32 157.366 131.496 152.878 135.894 148.91C138.174 146.853 140.569 144.979 143.154 143.318C144.992 142.138 146.596 140.483 148.408 139.364C148.791 139.034 149.225 138.798 149.712 138.658C150.658 138.231 151.013 138.599 150.778 139.761C151.32 140.899 151.261 142.797 151.458 144.052ZM68.4296 140.035C69.3525 139.102 70.5177 138.357 71.3223 137.316C71.7761 136.729 72.0753 135.679 72.5947 135.299C73.4988 134.638 74.7923 134.943 75.844 134.056C76.8599 133.199 77.7517 132.173 78.7437 131.284C80.8939 129.357 83.1131 127.586 85.2229 125.625C86.4215 124.51 87.6793 123.064 88.7445 122.328C89.0267 122.133 89.3429 121.843 89.6433 121.692C90.2851 121.372 90.6048 121.698 91.5417 121.399C92.1612 121.202 92.6033 120.423 93.1005 120.055C94.2815 119.178 95.821 118.831 96.9581 117.988C98.0953 117.145 98.6422 115.836 100.207 115.133C102.101 114.283 103.519 114.955 104.888 113.328C105.446 112.666 105.599 111.83 106.475 111.412C107.53 110.908 108.457 111.443 109.466 110.87C110.145 110.484 110.609 109.673 111.311 109.251C112.567 108.495 113.957 108.416 115.132 107.481C116.123 106.693 115.573 106.774 116.747 106.441C117.262 106.295 117.835 106.232 118.386 106.045C120.151 105.448 123.033 104.716 124.078 103.053C124.609 103.822 124.791 103.978 125.652 103.739C126.104 103.374 126.518 102.973 126.896 102.534C127.173 102.882 127.471 102.903 127.787 102.596C129.65 101.961 131.359 100.868 133.193 100.262C133.453 100.402 133.713 100.541 133.973 100.68C134.334 100.7 134.481 100.525 134.412 100.153C135.134 100.022 135.966 99.7075 136.631 99.4199C137.906 98.868 139.315 97.5568 140.817 98.0261C143.326 98.8097 143.446 103.891 143.879 105.905C144.946 110.869 146.02 115.83 147.092 120.792C147.527 122.811 147.91 124.845 148.484 126.831C148.859 128.128 149.792 130.04 149.455 131.42C149.042 133.11 147.381 133.661 145.991 134.443C144.076 135.521 142.225 136.716 140.413 137.957C132.72 143.226 126.985 150.472 121.53 157.906C120.519 156.448 117.812 154.401 116.125 153.743C114.944 153.283 113.88 153.654 112.704 153.093C111.865 152.692 111.169 151.909 110.375 151.405C105.531 148.325 99.6851 145.779 94.0707 144.557C82.5516 142.048 71.2743 145.932 60.1047 147.776C62.3714 144.682 65.76 142.731 68.4296 140.035ZM145.537 56.077C147.508 49.6977 150.827 43.5216 155.552 38.7358C157.934 36.3231 160.734 34.2143 163.872 32.8729C166.602 31.7067 169.849 30.5883 169.807 34.3383C169.714 42.4794 167.82 50.5279 167.589 58.6818C167.364 66.6721 168.711 73.0858 173.581 79.5245C170.495 80.236 167.411 80.9579 164.337 81.7148C162.002 82.2894 159.582 82.9345 157.373 83.3293C155.189 83.7188 153.181 83.9726 151.022 84.7056C149.567 85.1993 147.287 86.709 145.713 86.3812C143.095 85.8369 143.715 76.5139 143.58 74.2735C143.202 67.9478 143.657 62.1652 145.537 56.077ZM193.375 68.36C196.951 64.0504 200.666 59.0224 206.682 58.2219C212.499 57.4481 214.643 64.3753 214.273 69.0458C214.148 70.6265 213.912 74.7306 212.755 76.0108C211.476 77.4274 209.205 76.3596 207.58 76.1413C200.564 75.1981 193.371 76.7724 186.336 76.7724C188.682 73.9673 191.04 71.1732 193.375 68.36ZM222.162 85.5475C224.602 85.8945 226.55 86.2642 225.372 89.0221C223.014 94.5462 221.201 99.8187 223.268 105.841C224.847 110.439 229.845 116.022 234.841 116.944C236.591 117.267 239.224 116.689 240.3 118.454C241.258 120.027 240.22 124.742 240.107 126.488C239.692 132.993 238.014 139.446 233.774 144.558C230.002 149.105 225.398 152.664 219.911 148.372C215.285 144.754 212.554 138.281 211.186 132.75C210.455 129.797 210.366 126.851 210.227 123.834C210.103 121.165 209.591 119.473 212.63 118.919C213.445 118.772 215.48 118.818 215.483 117.583C215.487 115.923 213.28 116.546 212.437 116.462C209.181 116.139 210.706 112.38 211.009 109.949C211.526 105.809 212.363 101.716 213.131 97.6174C213.785 94.1264 213.82 89.552 215.24 86.2881C216.069 84.3825 220.533 85.3158 222.162 85.5475ZM228.155 97.8066C228.525 95.5563 228.722 92.7442 230.971 91.5006C233.442 90.1342 234.679 92.3606 235.898 94.18C239.132 99.006 242.711 103.522 243.241 109.514C243.304 110.228 243.613 111.663 242.92 112.157C242.61 112.378 241.87 111.796 241.392 111.83C238.83 112.013 236.977 112.695 234.465 111.259C229.551 108.448 227.261 103.236 228.155 97.8066ZM247.479 111.284C246.951 106.045 244.514 101.399 241.792 96.9758C240.45 94.7948 237.843 92.4106 236.918 90.1068C236.421 88.8725 237.3 87.3442 239.104 87.8734C240.003 88.1372 241.734 90.5039 242.335 91.3231C243.878 93.4278 245.157 95.7752 246.378 98.0738C247.683 100.53 251.392 109.543 247.479 111.284ZM231.3 59.1144C231.586 54.1854 231.614 48.5251 234.83 44.4345C237.321 41.2626 241.883 39.8816 245.585 38.6554C250.571 37.0031 256.56 36.7481 261.774 37.282C266.364 37.7524 269.828 40.855 272.66 44.2668C275.54 47.7362 277.772 52.2035 279.753 56.2406C280.248 57.2508 284.452 63.7314 281.609 63.5806C280.481 63.5206 279.5 61.3338 278.637 60.6881C277.96 60.1822 277.158 60.2451 276.551 59.8404C275.901 59.4067 276.041 59.0055 275.537 58.4699C272.064 54.7868 268.868 56.9078 265.122 58.8478C264.947 57.5628 265.254 55.1757 264.171 54.2366C262.756 53.0076 261.276 54.9545 260.26 55.9093C259.336 56.7792 258.196 58.3639 257.032 58.8344C255.52 59.4451 256.034 58.796 254.721 58.283C252.076 57.2502 250.042 60.3068 248.706 62.0843C248.207 62.7474 247.391 64.4213 246.498 64.6006C245.634 64.7735 245.521 64.1628 244.777 63.9369C242.671 63.2994 242.089 64.7904 241.418 66.6419C240.663 68.7239 240.021 70.7296 238.903 72.6742C236.927 76.1151 236.077 77.2469 237.641 81.0464C235.358 81.3829 234.879 81.6531 233.746 79.6415C232.58 77.5683 232.278 75.8484 232.351 73.4654C232.504 68.4817 231.006 64.1768 231.3 59.1144ZM284.3 82.6958C286.69 86.9821 288.209 92.9469 288.184 97.8305C288.171 100.253 288.028 103.233 286.889 105.431C285.796 107.539 283.508 108.596 281.401 109.494C276.321 111.66 270.599 111.635 265.258 110.669C262.486 110.168 259.789 110.492 257.417 108.838C255.632 107.592 253.479 106.383 252.956 104.1C252.737 103.145 253.075 102.344 253.005 101.406C253.091 100.96 253.059 100.526 252.908 100.101C252.596 99.9224 252.282 99.7489 251.965 99.58C251.716 98.868 252.194 98.0744 252.071 97.3309C251.924 96.4331 251.173 95.7025 250.822 94.8885C249.856 92.6453 250.546 91.39 252.355 89.8664C252.788 89.5281 253.223 89.1933 253.661 88.8615C254.055 88.2437 254.489 88.2414 254.965 88.8533C255.826 88.8649 255.801 89.1287 256.707 88.8667C258.691 88.2926 260.356 86.1961 262.3 85.4596C263.055 85.1731 264.182 85.4165 264.796 84.8884C265.344 84.4163 264.991 83.4265 265.473 82.9631C267.01 81.4825 269.43 82.8862 270.852 80.7338C272.013 78.9778 271.767 76.4859 271.886 74.4918C275.449 75.1684 276.993 78.5592 279.921 80.2651C280.5 78.0364 280.584 78.1027 282.82 77.4908C281.807 79.351 283.445 81.1617 284.3 82.6958ZM287.028 59.0347C287.684 59.8742 288.185 61.9591 287.028 62.1606V59.0347ZM290.07 66.618C295.511 66.6291 298.988 73.459 300.577 77.6899C302.304 82.2912 304.123 88.4277 300.901 92.909C299.665 94.6271 298.149 94.7849 296.16 94.5619C293.764 94.2935 292.535 93.9494 293.474 91.4069C295.23 86.6426 293.909 80.5859 290.795 76.5977C295.077 75.7762 292.363 71.876 290.214 70.4163C287.703 68.7122 285.675 66.6087 290.07 66.618ZM165.848 313.532C164.568 316.903 163.266 320.265 162.193 323.738C161.174 327.029 161.764 330.739 160.499 333.904C159.72 333.521 159.497 332.842 158.82 332.429C158.402 332.173 157.676 332.072 157.317 331.791C156.702 331.309 155.208 329.513 154.803 328.817C153.405 326.406 154.338 322.489 155.085 320.012C156.01 316.944 157.591 313.999 159.713 311.582C161.202 309.888 162.023 310.427 164.013 311.261C165.19 311.754 166.402 312.07 165.848 313.532ZM156.15 340.13C155.128 342.184 153.238 343.877 152.116 345.948C150.937 348.121 150.046 350.571 148.544 352.558C147.014 354.584 145.64 354.245 143.534 355.119C142.778 355.433 142.46 356.014 141.852 356.468C140.711 357.317 139.46 357.838 138.261 358.594C137.409 356.516 134.804 346.087 131.489 346.31C128.607 346.504 130.081 351.964 130.453 353.576C130.767 354.937 131.126 356.318 131.603 357.632C132.086 358.959 133.59 360.946 133.033 362.401C132.327 364.249 130.568 364.127 129.687 362.779C128.95 361.651 128.576 360.119 128.033 358.892C127.556 357.813 125.374 351.908 123.488 352.824C121.672 353.706 124.497 359.43 124.97 360.555C126.112 363.27 128.302 365.879 125.408 368.055C121.015 371.358 115.605 373.845 110.683 376.226C107.81 377.616 105.227 379.443 102.211 380.571C99.4105 381.619 96.1741 381.798 93.4664 383.003C92.8001 383.3 93.2468 383.669 92.2736 383.841C91.4574 383.985 90.0315 383.598 89.1561 383.606C87.7063 383.619 86.2535 383.729 84.8066 383.548C83.9915 383.446 82.1358 382.56 82.4292 384.024C81.2762 383.706 80.83 382.55 79.9886 381.828C79.2391 381.184 78.2817 380.836 77.4449 380.33C75.7152 379.285 74.4211 378.094 73.9023 376.102C72.6837 371.424 75.2596 366.556 78.4392 363.295C80.2638 361.425 82.4046 359.869 84.0781 357.855C84.6655 357.148 85.083 356.326 85.8284 355.752C86.7407 355.048 87.9926 354.961 88.8762 354.248C89.5338 353.719 89.7306 352.874 90.4198 352.387C91.4392 351.669 92.632 351.967 93.5947 351.023C94.1439 350.484 96.0294 347.945 95.8971 347.242C96.4136 347.414 96.9306 347.586 97.4465 347.757C97.7603 346.193 100.477 344.263 101.818 343.514C102.496 343.135 103.816 343.154 104.32 342.746C104.991 342.203 104.936 341.065 105.469 340.384C106.995 338.432 110.191 337.556 112.213 336.196C114.785 334.466 117.284 332.506 119.607 330.459C124.304 326.32 128.444 321.511 131.827 316.257C133.19 314.14 134.454 311.982 135.424 309.662C136.021 308.235 136.618 305.696 138.093 304.869C139.616 304.013 143.115 305.171 144.821 305.294C147.327 305.473 151.234 305.362 153.48 306.584C155.881 307.892 153.929 308.973 152.693 310.532C150.884 312.813 149.8 315.606 148.896 318.343C148.201 320.447 148.071 322.485 147.616 324.607C147.135 326.851 147.14 329.88 148.253 331.941C149.356 333.982 157.301 337.822 156.15 340.13ZM61.4251 381.495C56.0298 374.201 60.4964 363.524 65.7741 357.63C72.1421 350.518 81.2054 346.518 88.6496 340.735C97.2579 334.048 106.099 327.836 113.727 319.992C117.593 316.017 120.96 311.732 124.012 307.112C126.603 303.189 128.484 297.963 133.72 297.396C130.631 301.219 130.451 306.726 128.063 310.982C125.535 315.489 121.808 319.238 118.013 322.702C109.998 330.017 101.342 336.718 92.6847 343.256C88.2661 346.592 83.9698 350.08 79.5664 353.433C75.6226 356.436 71.4798 359.005 69.2072 363.582C65.2863 371.477 65.0521 383.175 73.7354 388.039C69.2611 387.153 64.2288 385.284 61.4251 381.495ZM531.834 52.5785C530.237 49.4072 527.246 48.2777 524.242 47.037C521.302 45.8231 518.615 44.3274 515.354 43.939C513.904 43.7661 509.814 44.1952 509.623 42.1085C509.464 40.3701 513.737 38.6252 514.722 37.3006C516.182 35.3374 517.174 32.1498 516.607 29.6701C516.07 27.3186 513.767 26.5757 511.617 26.1495C504.928 24.825 497.815 25.799 491.108 26.3434C491.929 25.2034 493.087 24.2684 493.745 22.9031L494.808 25.098C495.414 23.8428 496.07 22.6108 496.823 21.4353C497.332 22.0035 497.842 22.5724 498.351 23.1406C497.505 20.1894 500.353 20.2045 500.053 17.7167C499.936 16.7491 499.276 16.3252 499.115 15.5474C498.796 14.001 499.998 13.034 498.63 11.6C497.107 10.003 494.616 10.6364 492.843 10.7855C492.62 10.8047 492.298 11.2419 492.01 11.2774C491.611 11.3275 491.382 10.7825 490.889 10.8117C489.567 10.8891 488.402 11.9085 487.088 12.2183C480.999 13.654 474.908 16.2146 469.064 18.6052C463.115 21.0388 457.274 23.8725 452.087 27.6918C446.535 31.7795 442.525 37.0346 438.091 42.2122C436.007 44.6452 433.851 46.9817 432.265 49.785C431.445 51.2336 430.704 55.7836 429.228 56.445C427.626 57.1634 423.596 55.1321 421.957 54.7571C418.1 53.8757 414.259 53.5077 410.305 53.6847C407.159 53.8244 403.84 53.7412 400.72 54.1231C398.909 54.3449 394.396 56.3402 394.106 58.5712C393.979 59.5627 395.122 60.3871 395.379 61.3164C395.767 62.7218 395.126 64.2105 395.572 65.6189C396.484 68.4904 400.713 69.5471 403.205 70.4513C410.164 72.9769 417.217 74.9349 424.247 77.1956C427.302 78.1784 429.913 79.7428 432.68 81.3136C434.975 82.6155 437.069 83.9179 434.751 86.3626C432.555 88.6786 432.829 89.6131 433.483 92.8036C434.173 96.1706 434.412 99.5748 435.311 102.909C436.206 106.229 437.878 109.401 437.553 112.914C437.226 116.416 435.767 120.013 434.403 123.222C433.024 126.464 431.503 129.667 430.005 132.857C428.619 135.808 427.12 138.799 423.914 140.058C417.794 142.462 409.976 142.081 403.598 141.208C396.358 140.217 388.88 138.537 382.034 135.972C375.451 133.507 368.21 129.725 362.766 125.256C359.858 122.869 356.708 121.1 353.622 118.964C350.494 116.8 348.119 113.88 345.378 111.288C340.007 106.209 333.396 102.708 326.59 99.9154C318.94 96.7761 311.041 97.1021 302.934 96.7627C304.21 94.2731 305.853 91.8936 306.455 89.1223C307.084 86.2357 306.629 83.0993 306.231 80.2156C305.459 74.6025 303.996 69.6624 300.428 65.1293C298.796 63.056 296.89 61.4398 294.172 61.1388C292.525 60.956 289.482 62.2118 288.294 60.8267C287.77 60.216 287.893 58.9316 287.563 58.1794C287.271 57.5116 286.685 56.8397 286.367 56.1143C285.006 53.0134 283.308 50.2729 281.612 47.331C280.938 46.1613 280.416 44.4345 279.496 43.45C278.996 42.9143 278.352 42.671 278.072 42.2791C277.548 41.5461 277.307 40.2059 276.87 39.3785C276.123 37.9626 275.172 36.6468 274.074 35.4783C272.32 33.6106 270.062 31.9623 267.657 31.0319C266.322 30.5149 265.343 30.3927 263.947 30.4683C263.538 30.4905 263.084 30.7245 262.675 30.6937C261.697 30.6197 261.85 30.2716 261.066 30.1097C255.82 29.025 248.786 30.5469 243.865 32.4153C238.682 34.3832 234.472 36.9781 231.323 41.641C223.586 53.0932 225.389 67.8802 228.671 80.4939C226.686 79.9763 224.709 79.3638 222.704 78.9254C221.477 78.6564 219.802 78.7071 218.706 78.0637C216.267 76.6326 218.251 72.96 218.265 70.5869C218.303 64.5575 215.438 55.1286 209.188 52.582C202.676 49.9283 194.754 57.3771 190.728 61.6011C188.146 64.3107 185.798 67.2311 183.326 70.0385C181.599 72.0006 179.319 75.1288 176.292 74.6159C169.689 73.498 171.703 61.0252 171.996 56.8094C172.46 50.1448 173.448 43.3737 173.453 36.6922C173.456 32.6307 172.748 27.1515 167.725 26.6752C160.812 26.0202 154.263 32.2639 150.232 37.0677C139.6 49.735 137.252 66.4783 140.095 82.3739C140.513 84.7045 141.844 87.5788 139.304 89.0256C135.968 90.9266 131.702 92.0776 128.116 93.4732C120.098 96.5927 112.673 100.754 105.124 104.822C97.6509 108.849 90.2962 112.846 83.5535 118.035C76.8318 123.207 70.1781 128.688 64.0549 134.552C61.0029 137.475 58.0582 140.525 55.2797 143.707C52.6651 146.701 50.5472 150.101 47.7054 152.899C45.7713 154.804 42.2129 157.359 41.7878 160.265C41.444 162.611 45.4288 164.237 47.227 165.321C48.4596 166.065 49.314 166.042 49.403 167.367C49.5131 169.02 47.7587 171.669 47.1339 173.245C45.5424 177.265 43.4619 180.594 40.7273 183.94C34.6697 191.35 27.3496 197.633 20.4019 204.215C13.9461 210.332 7.62029 216.352 2.88837 223.941C1.72896 225.801 -1.15668 229.62 1.5855 231.361C2.2952 231.811 4.4729 232.168 5.19548 231.684C6.0908 231.084 5.63699 230.181 6.6951 229.58C6.42984 231.6 15.6718 227.652 16.3908 227.286C18.3331 226.298 20.0898 225.139 22.0754 224.253C23.2401 223.734 23.3812 223.01 24.283 222.43C24.7649 222.12 24.7708 222.536 25.4161 222.343C25.9969 222.169 27.3601 222.103 27.7934 221.547C27.8052 221.531 28.2783 220.186 27.876 220.464C29.4506 219.376 30.381 221.023 29.4359 222.569C26.6416 227.138 23.1084 230.5 22.0134 235.991C21.6158 237.986 20.9371 241.688 22.1633 243.506C22.2078 243.572 22.6206 243.379 22.671 243.45C22.7178 243.517 23.1675 244.138 23.3526 244.314C24.4358 245.344 24.3662 245.802 26.1744 245.759C26.9766 245.74 28.5758 245.638 29.31 245.278C29.8622 245.008 30.1322 244.341 30.5567 244.103C30.9865 243.862 30.9356 243.737 31.339 243.597C31.4216 243.568 31.5803 244.268 31.7372 244.239C32.5986 244.078 32.9698 243.567 33.7018 243.155C35.8109 241.97 37.8786 240.667 39.887 239.473C41.9084 238.271 43.4185 236.596 45.4323 235.2C47.5713 233.718 49.321 232.581 50.9664 230.523C52.1053 229.099 53.4644 228.58 54.2292 227.879C55.1368 227.046 56.7008 223.831 58.1636 223.449C58.8293 223.274 59.3622 223.86 59.727 223.62C60.1381 223.35 59.6901 222.833 59.8962 222.53C60.2809 221.962 60.329 221.868 60.983 221.348C61.821 220.683 62.8504 220.504 63.5536 219.637C64.3354 218.672 64.4425 217.591 65.4046 216.687C67.7181 214.513 69.7782 212.223 72.2299 210.116C71.283 215.358 70.345 220.565 71.0787 225.897C71.7896 231.065 73.9983 233.379 78.3338 236.002C79.2882 236.58 80.2896 237.42 81.3143 237.829C81.9373 238.078 82.8754 237.93 83.3397 238.112C84.912 238.731 84.3774 239.998 84.5928 241.426C84.9272 243.639 86.9755 245.342 88.2971 247.066C89.4091 248.516 91.414 251.815 93.2744 252.316C94.9538 252.767 96.5383 250.817 97.9372 249.986C100.046 248.734 102.344 247.836 104.568 246.812C108.912 244.814 113.11 242.429 117.405 240.315C119.368 239.35 121.35 238.957 123.426 238.333C125.921 237.584 128.049 236.152 130.442 235.175C134.743 233.417 138.865 231.32 143.14 229.474C151.99 225.655 161.642 223.031 169.516 217.301C173.079 214.708 177.665 214.432 181.176 211.913C184.836 209.287 182.592 205.27 181.025 202.048C176.744 193.243 174.19 184.099 168.296 176.079C165.235 171.911 162.406 167.605 159.736 163.175C157.373 159.253 157.421 154.813 156.829 150.384C156.432 147.424 156.06 144.452 155.575 141.505C155.268 139.632 154.275 137.272 155.476 135.574C156.766 133.75 159.831 132.973 161.768 132.011C164.175 130.815 166.506 129.528 169.004 128.516C174.711 126.203 180.723 124.602 186.711 123.189C188.496 122.767 196.138 119.754 197.593 121.519C195.806 122.705 195.284 124.859 194.483 126.704C193.289 129.455 192.057 132.075 191.187 134.958C189.388 140.917 187.857 146.972 186.39 153.019C184.933 159.023 183.197 165.075 182.752 171.26C182.524 174.418 182.68 177.577 182.674 180.738C182.668 184.111 181.964 187.42 182.09 190.801C182.174 193.05 182.364 195.751 183.69 197.67C184.919 199.447 187.009 199.645 188.831 200.596C191.234 201.85 192.175 202.385 192.197 205.114C192.224 208.294 192.016 211.418 192.316 214.596C193.36 225.665 197.104 238.8 204.579 247.346C205.076 247.914 219.579 266.078 221.184 263.419C222.29 264.719 223.943 265.195 225.304 266.328C227.442 268.11 229.541 269.534 231.309 271.741C234.528 275.756 237.264 280.462 238.069 285.596C238.761 290.014 238.345 295.297 235.836 299.127C233.318 302.969 227.936 305.49 223.873 307.381C218.532 309.867 213.112 310.147 207.314 309.524C204.452 309.216 201.614 308.736 198.773 308.283C197.591 308.094 196.213 308.093 195.095 307.651C193.895 307.178 193.488 306.654 192.291 306.595C191.396 306.551 190.907 306.748 189.962 306.552C188.791 306.309 187.52 305.868 186.353 305.57C185.055 305.238 183.991 304.765 182.794 304.156C181.687 303.593 180.44 303.484 179.374 302.95C177.537 302.029 176.971 300.49 174.486 301.343C171.862 302.244 172.411 304.497 170.736 306.042C169.249 307.415 167.405 306.145 165.924 305.329C163.745 304.127 161.481 303.128 159.161 302.218C156.654 301.235 154.093 300.38 151.484 299.704C148.631 298.964 145.496 298.817 142.748 297.74C140.332 296.794 139.293 294.963 137.543 293.253C135.702 291.454 133.205 290.769 130.654 290.929C126.007 291.221 122.834 296.209 120.379 299.673C113.522 309.35 105.942 317.595 96.7754 325.197C92.396 328.828 87.4592 331.917 83.2238 335.686C81.4373 337.276 80.1402 338.766 78.0246 339.95C75.2455 341.505 72.7235 343.455 70.0668 345.209C59.6755 352.066 52.0532 362.056 54.9272 375.1C56.2207 380.971 58.8042 385.092 63.6315 388.625C65.8233 390.229 67.8288 391.563 70.6208 391.47C73.257 391.383 75.5828 391.292 74.0299 388.177C75.9974 388.782 77.644 390.275 79.7918 391.039C82.2664 391.919 85.4858 392.468 88.1132 392.521C92.3199 392.607 97.2685 390.404 100.952 389.471C101.982 389.21 103.967 388.783 105.14 387.822C106.074 387.057 105.871 386.153 107.283 385.79C109.134 385.314 109.839 385.87 111.612 384.756C114.184 383.14 116.973 382.179 119.64 380.69C123.234 378.682 126.689 376.419 130.25 374.352C130.724 375.651 133.514 383.371 135.236 379.65C136.736 376.409 131.868 373.636 134.827 370.355C137.65 367.227 138.24 370.516 140.978 371.968C144.78 373.984 144.209 370.218 143.104 367.988C142.662 367.096 141.733 365.751 142.006 364.711C142.535 362.702 144.171 363.881 145.458 364.085C147.485 364.409 149.123 363.855 150.645 362.505C151.914 361.379 154.013 360.406 154.78 358.922C155.163 358.179 155.231 357.159 155.55 356.37C155.971 355.33 156.271 355.582 156.424 354.293C156.277 353.625 156.219 352.95 156.249 352.267C156.582 352.2 156.914 352.133 157.246 352.066C157.256 352.018 157.279 350.717 157.145 350.911C157.455 350.463 158.122 350.274 158.506 349.652C158.858 349.081 158.53 347.985 158.672 347.31C158.959 345.944 159.742 344.842 160.381 343.624C161.735 349.309 161.343 355.238 162.636 360.926C163.698 365.596 166.116 369.782 168.938 373.612C170.245 375.386 171.976 376.646 173.345 378.332C174.503 379.759 175.082 381.016 176.792 381.86C177.929 382.42 179.209 382.709 180.381 383.193C181.131 383.502 182.836 384.928 183.54 384.902C182.927 384.925 184.691 384.979 184.282 384.909C184.313 384.915 184.073 384.147 184.286 384.16C186.843 386.564 189.514 386.569 192.472 388.063C193.828 388.748 194.335 388.706 195.78 388.959C197.652 389.287 199.228 390.347 201.02 390.46C203.78 390.634 206.888 391.002 209.766 390.901C210.549 390.873 212.02 390.372 212.634 391.052C213.039 391.501 212.27 394.746 212.222 395.489C211.716 403.281 212.764 411.461 216.075 418.591C218.82 424.502 221.748 431.496 226.603 436.01C231.985 441.014 239.524 444.54 246.722 445.89C254.692 447.384 262.592 446.265 270.587 445.801C278.699 445.33 286.203 444.187 294.026 441.852C301.301 439.681 308.191 436.852 315.152 433.867C319.886 431.837 325.888 428.916 323.407 422.755C322.807 421.265 320.48 417.122 318.421 419.166C316.598 420.974 319.644 424.396 321.022 425.545C310.634 432.739 298.027 435.118 285.872 437.667C279.196 439.066 272.619 439.007 265.829 439.027C260.075 439.043 254.321 439.207 248.604 438.409C243.433 437.687 237.411 436.333 233.562 432.578C229.536 428.65 225.726 423.96 222.978 419.059C219.963 413.681 219.231 407.866 218.987 401.8C218.859 398.607 218.715 395.374 219.051 392.189C219.296 389.876 220.485 389.602 221.074 387.775C222.437 389.67 223.334 388.97 225.007 387.862C226.088 390.86 225.607 393.976 225.421 397.068C225.24 400.08 225.644 403.134 226.016 406.125C226.646 411.21 229.099 416.514 232.212 420.608C233.619 422.459 235.728 423.24 237.636 424.518C240.069 426.148 242.591 427.666 245.13 429.128C249.912 431.882 255.13 434.237 260.519 434.652C262.408 434.798 263.78 435.775 266.03 435.638C267.366 435.557 268.711 435.103 270.043 435.139C271.379 435.175 272.526 435.599 273.898 435.5C279.599 435.09 285.477 433.236 291.121 432.217C297.233 431.115 303.382 429.927 309.217 427.75C311.745 426.806 313.832 425.589 315.243 423.219C316.251 421.525 315.987 418.487 317.866 417.474C316.635 415.898 317.093 415.62 318.155 414.211C318.651 413.554 320.253 411.815 318.311 411.847C318.901 409.308 317.914 406.854 317.493 404.371C317.311 403.298 317.36 401.674 316.692 400.75C316.302 400.212 315.654 400.202 315.305 399.805C314.945 399.797 314.663 399.648 314.461 399.359C314.437 398.935 314.637 398.677 315.06 398.584C314.962 397.744 315.588 398.046 314.962 396.734C314.109 394.942 312.491 393.382 310.958 392.164C309.652 391.126 308.69 389.284 307.183 388.73C305.221 388.009 303.164 387.226 301.102 386.557C296.429 385.04 291.797 384.46 286.894 385.301C284.648 385.686 282.436 386.159 280.267 386.848C278.998 387.252 277.057 388.341 275.933 387.167C275.547 386.764 274.741 383.341 274.791 382.971C274.993 381.487 278.045 380.888 279.159 380.369C280.861 379.578 284.013 378.731 285.094 377.16C285.547 376.501 285.034 373.703 285.109 373.653C285.823 373.176 288.82 379.969 289.636 380.433C290.817 381.103 294.133 380.217 295.353 380.084C298.994 379.686 302.694 379.461 306.26 378.599C313.097 376.945 319.81 374.388 326.464 372.128C339.122 367.828 351.343 362.161 362.722 355.123C368.036 351.835 373.316 347.633 377.36 342.86C379.184 340.707 380.473 338.153 382.335 336.042C384.484 333.607 383.806 331.409 384.769 328.359C386.719 322.184 389.087 316.575 390.148 310.104C391.241 303.442 391.692 296.64 391.389 289.895C390.79 276.564 390.139 263.924 384.24 251.675C378.832 240.45 371.826 229.482 363.497 220.188C361.561 218.028 359.515 215.971 357.136 214.291C354.576 212.481 351.757 211.062 349.439 208.925C347.537 207.171 345.946 205.106 343.956 203.441C341.514 201.398 338.609 200.496 335.749 199.191C333.006 197.941 330.506 196.315 327.701 195.177C325.995 194.485 324.266 193.847 322.487 193.364C321.173 193.007 319.426 192.985 318.224 192.306C316.322 191.233 314.376 188.111 313.133 186.347C311.32 183.774 310.338 180.78 309.476 177.789C308.426 174.149 307.451 170.487 306.425 166.84C306.074 165.594 304.764 161.258 307.377 162.31C308.142 162.618 308.859 163.986 309.448 164.571C310.564 165.68 311.943 166.672 313.328 167.427C315.561 168.643 317.887 170.108 320.03 170.947C321.918 171.686 323.859 173.135 325.619 174.177C325.886 174.336 325.965 174.881 326.309 175.033C327.12 175.39 327.66 174.404 328.426 174.645C329.473 174.976 329.645 175.955 330.226 176.734C331.068 177.863 331.504 177.953 332.79 178.534C334.22 179.181 335.271 180.459 336.666 181.092C338.36 181.861 342.09 181.265 342.344 183.916C344.978 182.208 348.281 185.525 349.925 187.246C351.579 184.723 354.509 187.676 357.013 186.839C355.627 188.751 355.879 188.561 358.065 188.798C359.91 188.998 361.015 190.215 362.838 190.922C364.102 191.411 365.497 192.235 366.81 192.579C368.052 192.905 368.992 192.174 370.072 192.357C370.818 192.483 371.526 193.123 372.236 193.298C373.134 193.52 374.414 193.79 375.43 194.029C376.666 194.321 377.896 194.053 379.129 194.285C380.567 194.555 381.809 195.406 383.269 195.682C384.898 195.99 386.591 195.784 388.21 196.176C389.685 196.534 390.582 196.945 392.111 196.959C394.39 196.981 396.935 197.281 399.185 197.026C400.384 196.889 401.048 196.286 402.405 196.876C403.31 197.27 403.852 198.485 405.085 197.928C403.783 197.41 404.926 195.393 406.361 196.938C406.7 196.071 406.92 195.588 407.864 195.303C407.817 196.151 407.677 197.003 408.766 197.181C408.849 196.59 408.934 196 409.017 195.41C411.385 197.2 411.945 197.832 414.18 195.648C414.121 196.363 413.817 197.172 414.549 197.678C415.017 196.905 415.486 196.131 415.955 195.358C416.746 197.854 420.526 196.992 422.357 196.55C423.068 196.379 425.03 196.108 425.493 195.529C425.815 195.128 425.776 194.814 425.895 194.569C426 194.35 424.796 193.814 425.821 193.5C426.593 193.263 427.194 194.944 428.1 194.877C428.908 194.817 429.235 193.458 429.817 193.183C429.872 193.157 430.267 193.731 430.54 193.605C430.965 193.41 431.207 192.895 431.676 192.713C432.693 192.318 434.007 192.417 435.145 191.949C436.588 191.355 438.043 191.072 439.516 190.583C441.384 189.963 442.231 188.745 443.747 187.748C444.103 187.515 444.473 187.651 444.822 187.486C445.292 187.263 445.785 186.741 446.345 186.495C448.1 185.721 449.6 185.196 451.265 184.129C452.75 183.178 454.711 182.475 456.033 181.333C457.132 180.383 457.726 178.996 458.833 178.029C460.422 176.641 464.528 174.899 463.862 172.187C466.52 172.59 467.171 170.881 468.146 168.997C469.074 167.204 470.976 166.667 472.22 165.032C472.758 164.325 473.623 163.345 473.92 162.539C474.097 162.059 473.654 161.558 473.773 161.231C474.325 159.724 476.452 159.067 477.437 157.708C478.689 155.98 479.092 153.793 480.137 152.018C480.342 151.668 480.849 151.461 481.045 151.088C481.171 150.849 480.909 150.256 481.061 150.021C481.426 149.463 481.999 149.27 482.365 148.753C483.251 147.501 483.412 145.722 484.209 144.303C484.405 143.954 485.088 142.978 485.174 142.77C485.462 142.071 485.375 141.612 485.523 140.834C485.567 140.6 486.022 139.247 486.115 139.054C486.408 138.45 486.69 138.361 487.137 137.699C488.256 136.04 488.95 133.435 489.041 131.421C489.081 130.567 488.794 129.684 489.106 128.869C489.375 128.165 490.203 127.73 490.515 126.992C491.333 125.058 491.2 122.322 491.425 120.252C491.67 117.996 492.397 115.773 492.598 113.533C492.695 112.449 492.182 111.489 492.22 110.469C492.263 109.299 492.875 109.081 493.11 108.108C493.379 106.997 492.985 105.717 493.225 104.526C493.449 103.418 493.774 102.392 493.866 101.256C494.107 98.2951 493.768 95.1983 493.638 92.2366C493.588 91.0873 493.433 89.8885 493.739 88.7631C493.986 87.8577 494.992 86.8453 494.959 85.8631C494.856 82.8286 492.412 85.4549 491.007 85.2465C489.373 85.0049 489.072 81.3649 488.642 79.9844C487.59 76.6117 486.538 73.2395 485.486 69.8673C490.501 68.5707 495.714 68.9445 500.834 68.5946C505.865 68.2511 510.776 67.167 515.654 65.9467C519.772 64.9162 524.278 64.3188 527.979 62.1186C531.086 60.2719 533.649 56.1847 531.834 52.5785Z" fill="black"/>
<path fill-rule="evenodd" clip-rule="evenodd" d="M44.8821 117.864C46.8881 116.828 46.3821 115.398 47.8552 114.068C56.0992 106.629 65.7736 100.134 75.4697 94.7711C85.6852 89.1203 97.1472 86.7274 107.589 81.7203C108.993 81.0468 110.818 79.9938 110.294 78.1175C109.681 75.9249 107.579 76.9339 106.08 77.451C101.086 79.1757 95.771 79.8246 90.7059 81.3396C79.8938 84.5729 69.7682 90.1487 60.6086 96.6744C55.2799 100.47 50.1751 104.668 45.6248 109.382C43.9489 111.117 41.7143 113.142 41.2784 115.642C40.7385 118.736 42.5809 119.051 44.8821 117.864Z" fill="black"/>
<path fill-rule="evenodd" clip-rule="evenodd" d="M76.1081 312.36C76.0594 309.625 73.0607 310.62 71.5178 310.987C65.246 312.482 59.6394 313.626 54.0888 317.088C43.7875 323.512 35.9822 333.271 30.9325 344.072C30.2602 345.508 27.5529 350.063 29.7228 351.419C31.1533 352.313 32.021 349.709 32.5555 348.743C35.2752 343.822 38.9167 339.467 42.5783 335.191C50.7086 325.699 60.4812 319.674 72.1741 315.276C73.6082 314.736 76.1436 314.347 76.1081 312.36Z" fill="black"/>
<path fill-rule="evenodd" clip-rule="evenodd" d="M422.753 245.205C420.583 240.871 417.075 235.524 412.221 233.738C409.536 232.75 407.946 234.385 408.744 237.116C409.377 239.288 411.493 240.349 413.074 241.789C417.14 245.495 419.644 251.029 421.129 256.167C422.698 261.599 423.012 267.493 422.984 273.117C422.969 276.086 422.171 278.666 421.737 281.556C421.567 282.692 421.277 285.196 422.592 285.905C425.505 287.477 426.851 279.27 427.149 277.692C428.245 271.87 428.139 266.51 427.216 260.699C426.372 255.384 425.187 250.066 422.753 245.205Z" fill="black"/>
<path fill-rule="evenodd" clip-rule="evenodd" d="M422.753 245.205C420.583 240.871 417.075 235.524 412.221 233.738C409.536 232.75 407.946 234.385 408.744 237.116C409.377 239.288 411.493 240.349 413.074 241.789C417.14 245.495 419.644 251.029 421.129 256.167C422.698 261.599 423.012 267.493 422.984 273.117C422.969 276.086 422.171 278.666 421.737 281.556C421.567 282.692 421.277 285.196 422.592 285.905C425.505 287.477 426.851 279.27 427.149 277.692C428.245 271.87 428.139 266.51 427.216 260.699C426.372 255.384 425.187 250.066 422.753 245.205Z" fill="black"/>
<path fill-rule="evenodd" clip-rule="evenodd" d="M414.419 36.9452C415.604 35.3582 414.739 33.1364 415.092 31.3269C415.462 29.4304 416.564 27.5117 417.496 25.8526C419.511 22.2709 421.758 18.7536 424.152 15.4128C426.625 11.9628 429.641 9.02329 432.268 5.70864C433.157 4.5873 434.732 2.98456 434.348 1.635C433.726 -0.550184 432.372 0.514826 431.287 1.43059C425.357 6.438 420.134 12.612 415.916 19.0967C413.914 22.1745 412.022 25.5449 411.359 29.1958C411.017 31.0813 411.015 33.0487 411.578 34.8948C411.931 36.055 412.994 38.8523 414.419 36.9452Z" fill="black"/>
<path d="M57.874 303.523L57.8486 303.025C58.257 303.004 58.6621 302.992 59.0659 302.979C59.7933 302.957 60.5165 302.935 61.2478 302.864C62.3664 302.755 63.4206 302.534 64.3519 302.049L64.5828 302.493L64.3519 302.049C64.8076 301.812 65.0493 301.57 65.1642 301.375C65.2724 301.19 65.2785 301.031 65.2343 300.893C65.136 300.585 64.7108 300.206 63.9721 300.103L63.972 300.103C63.5927 300.05 63.0317 300.152 62.3491 300.309C62.2564 300.33 62.1613 300.352 62.0648 300.375C61.5063 300.506 60.8983 300.648 60.403 300.67L60.4027 300.67C59.622 300.703 58.8295 300.697 58.0526 300.691C57.6934 300.689 57.3376 300.686 56.9878 300.688L56.9878 300.688C56.8897 300.688 56.7916 300.688 56.6933 300.689C53.4567 300.7 50.0985 300.711 47.0971 301.738C46.5719 301.918 45.9615 302.131 45.4309 302.434C44.8959 302.739 44.5155 303.095 44.3606 303.523L44.3606 303.523C44.2628 303.793 44.2632 303.942 44.2776 304.011C44.2872 304.058 44.3042 304.085 44.3559 304.116C44.4254 304.157 44.5533 304.199 44.7634 304.217C44.9684 304.235 45.2169 304.227 45.5003 304.197C46.0684 304.137 46.7146 303.998 47.3257 303.859C47.3944 303.843 47.4631 303.828 47.5316 303.812C48.0467 303.694 48.5473 303.58 48.889 303.548L57.874 303.523ZM57.874 303.523L57.8486 303.025M57.874 303.523L57.8486 303.025M57.8486 303.025C57.144 303.061 56.4372 303.094 55.7288 303.127M57.8486 303.025L55.7288 303.127M55.7288 303.127C53.4546 303.233 51.1652 303.339 48.889 303.548L55.7288 303.127Z" fill="black" stroke="black"/>
<path fill-rule="evenodd" clip-rule="evenodd" d="M74.9567 72.9112C79.2728 72.3974 83.4439 71.1133 87.6962 70.2947C91.7385 69.517 92.4267 66.3522 87.6407 66.4944C86.0337 66.542 70.5405 69.4604 74.9567 72.9112Z" fill="black"/>
<path fill-rule="evenodd" clip-rule="evenodd" d="M431.578 231.626C428.679 230.905 430.179 234.099 431.076 235.087C432.735 236.912 433.642 238.279 434.135 240.714C434.423 242.131 434.153 245.331 435.364 246.415C436.558 247.482 436.64 246.773 436.852 245.456C437.449 241.744 436.256 232.79 431.578 231.626Z" fill="black"/>
<path fill-rule="evenodd" clip-rule="evenodd" d="M399.747 29.5472C400.568 28.6828 399.688 24.9235 399.785 23.8218C399.903 22.4869 400.221 21.3572 400.622 20.1045C400.817 19.4971 401.797 17.3531 401.269 16.6874C400.538 15.7646 399.323 17.324 398.938 17.9378C397.688 19.9354 397.396 23.2663 397.604 25.5158C397.679 26.3301 398.174 31.201 399.747 29.5472Z" fill="black"/>
<path fill-rule="evenodd" clip-rule="evenodd" d="M229.026 346.552C229.163 344.423 231.228 342.947 231.234 340.683C231.241 338.138 229.517 337.037 227.37 338.69C226.075 339.688 225.067 342.116 223.316 342.435C219.803 343.074 218.425 336.81 214.965 337.534C211.97 338.162 213.544 343.27 214.448 344.994C215.405 346.821 217.145 348.103 216.579 350.35C215.906 353.019 213.599 354.557 214.497 357.604C216.164 363.264 219.784 357.972 221.96 356.193C223.511 354.925 224.449 355.151 225.955 356.394C228.018 358.096 229.595 359.253 232.097 360.401C234.304 361.412 236.432 362.118 236.501 358.723C236.555 356.053 234.524 353.396 232.741 351.584C231.262 350.08 228.875 348.922 229.026 346.552Z" fill="black"/>
<path fill-rule="evenodd" clip-rule="evenodd" d="M190.361 338.108C187.779 335.374 184.518 342.346 182.432 343.117C179.05 344.368 178.272 337.666 175.158 337.877C172.734 338.041 172.926 341.489 173.453 343.062C174.021 344.755 175.721 346.139 176.006 347.874C176.443 350.532 171.377 355.847 174.913 358.416C177.931 360.608 179.055 353.2 182.828 356.223C184.68 357.706 189.864 363.228 192.432 360.48C195.466 357.233 188.248 351.687 186.931 349.218C185.148 345.873 194.144 342.113 190.361 338.108Z" fill="black"/>
<path fill-rule="evenodd" clip-rule="evenodd" d="M252.908 243.149C252.168 242.825 250.971 243.361 250.17 243.327C249.309 243.291 248.414 242.903 247.565 242.759C245.722 242.446 242.479 242.899 241.171 241.267C239.836 239.602 240.851 236.261 240.28 234.236C239.97 233.135 239.611 231.776 238.118 232.267C236.385 232.836 236.426 235.997 236.219 237.383C235.914 239.428 235.669 240.988 233.598 241.715C232.066 242.253 230.453 241.982 229.214 243.232C228.306 244.149 227.694 245.821 228.404 247.018C229.472 248.816 231.783 247.885 233.387 248.453C235.832 249.32 235.251 253.287 235.752 255.564C236.072 257.028 236.778 261.126 238.895 261.06C241.781 260.971 240.66 255.213 240.5 253.532C240.338 251.828 239.952 250.381 241.868 249.851C243.487 249.404 245.748 250.234 247.42 250.224C249.531 250.211 252.019 249.685 253.293 247.806C254.021 246.731 254.482 243.839 252.908 243.149Z" fill="black"/>
<path fill-rule="evenodd" clip-rule="evenodd" d="M358.958 314.009C363.547 314.402 360.766 320.016 363.811 322.248C366.716 324.377 367.106 318.5 367.106 316.822C367.104 312.757 372.083 314.259 375.114 313.587C377.7 313.013 380.525 310.346 377.436 308.074C375.206 306.434 371.509 307.195 368.921 306.761C365.414 306.172 366.456 303.847 366.378 301.167C366.351 300.185 366.009 296.682 364.732 296.406C362.391 295.901 362.252 302.424 362.094 303.665C361.427 308.917 357.793 305.718 354.907 308.35C351.134 311.793 356.225 313.774 358.958 314.009Z" fill="black"/>
<path fill-rule="evenodd" clip-rule="evenodd" d="M140.728 216.087C133.559 221.921 125.419 221.085 118.858 214.805C116.084 212.149 114.407 209.473 114.655 205.587C114.878 202.089 115.912 198.225 118.732 195.863C121.107 193.873 125.587 193.158 128.594 192.88C132.809 192.491 136.58 194.769 139.496 197.616C142.035 200.095 145.003 203.255 145.394 206.935C145.807 210.808 143.584 213.762 140.728 216.087ZM141.818 192.872C135.388 186.723 123.985 187.341 117.346 192.948C109.894 199.241 108.62 211.064 115.782 217.96C123.329 225.227 133.291 224.443 141.28 218.415C145.565 215.182 147.89 211.033 148.487 205.711C149.05 200.68 145.335 196.234 141.818 192.872Z" fill="black"/>
<path fill-rule="evenodd" clip-rule="evenodd" d="M266.158 87.0385C265.437 89.3668 265.937 91.8475 266.065 94.2196C264.027 92.9536 262.757 90.6953 260.568 89.6464C259.519 92.5258 264.749 100.761 268.042 98.0615C271.053 95.5913 268.83 88.6979 266.158 87.0385Z" fill="black"/>
<path fill-rule="evenodd" clip-rule="evenodd" d="M276.855 101.237C275.232 101.838 273.723 101.671 272.123 101.979C271.067 102.181 270.931 101.585 270.794 102.786C270.503 105.347 274.665 106.338 276.539 106.302C278.828 106.258 281.335 104.73 281.114 102.243C280.884 99.652 278.619 100.584 276.855 101.237Z" fill="black"/>
<path fill-rule="evenodd" clip-rule="evenodd" d="M278.184 90.4714C277.448 89.8077 275.752 87.3007 274.507 87.7297C273.553 88.0581 274.227 89.19 274.507 89.7566C275.555 91.8812 277.611 93.6887 279.254 95.3928C278.038 95.8219 275.694 96.098 276.312 97.9573C276.882 99.6654 279.46 99.4029 280.696 98.684C284.929 96.2196 280.302 92.3806 278.184 90.4714Z" fill="black"/>
<path fill-rule="evenodd" clip-rule="evenodd" d="M282.458 86.4387C282.748 87.6117 282.903 88.7192 282.264 89.819L278.739 83.5409C275.903 84.6967 280.876 93.742 283.774 92.7406C285.777 92.0483 284.815 87.797 284.498 86.4595C284.329 85.7434 283.926 83.4664 282.926 83.2353C280.96 82.7807 282.243 85.5736 282.458 86.4387Z" fill="black"/>
<path d="M427.1 391.557C433.925 388.422 442.236 396.254 446.671 400.66C466.686 420.546 465.866 447.112 455.678 472.234C443.77 501.596 423.273 530.6 402.092 554.059C386.764 571.037 371.572 589.759 353.802 604.318" stroke="black" stroke-width="3.53"/>
<line x1="353.912" y1="605.611" x2="352.562" y2="577.556" stroke="black" stroke-width="3.53"/>
<line x1="353.046" y1="604.143" x2="381.074" y2="602.307" stroke="black" stroke-width="3.53"/>
</svg>
