<svg width="532" height="447" viewBox="0 0 532 447" fill="none" xmlns="http://www.w3.org/2000/svg">
<path fill-rule="evenodd" clip-rule="evenodd" d="M336.838 296.893C335.798 312.03 315.111 319.9 302.563 323.13C305.078 308.28 308.326 292.886 306.305 277.826C305.64 272.865 304.767 267.931 303.829 263.015C303.483 261.197 303.125 259.381 302.754 257.567C302.665 257.126 301.937 255.196 302.169 254.757C302.583 253.97 306.093 254.093 306.987 254.128C309.292 254.215 311.553 254.794 313.662 255.708C318.094 257.63 321.827 260.937 324.903 264.588C332.159 273.198 337.622 285.478 336.838 296.893ZM312.887 193.994C300.877 201.055 286.41 204.845 272.712 206.691C251.845 209.505 230.538 206.266 210.137 201.777C205.128 200.675 200.129 199.488 195.194 198.094C194.972 212.448 199.039 226.1 206.983 238.072C213.551 247.97 222.122 256.242 229.614 265.41C236.589 273.945 242.214 283.573 242.493 294.838C242.61 299.539 242.22 303.841 238.256 306.887C234.272 309.949 228.891 311.084 224.016 311.782C211.809 313.528 199.024 312.585 186.893 310.662C184.538 310.288 182.188 309.863 179.863 309.332C177.224 308.728 176.299 308.017 174.094 309.984C169.338 314.229 167.156 320.596 166.078 326.686C164.059 338.091 164.744 351.397 167.655 362.65C170.458 373.49 183.693 379.498 193.497 382.118C223.068 390.02 255.695 379.107 278.386 359.681C278.88 359.257 279.371 358.828 279.85 358.386C281.462 361.718 283.222 364.992 285.146 368.157C286.484 370.359 287.892 372.571 289.58 374.531C290.189 375.238 290.904 376.194 291.737 376.658C293.288 377.52 294.865 376.887 296.62 376.584C309.571 374.351 322.492 371.414 334.807 366.79C353.528 359.76 370.319 348.178 379.192 329.883C383.675 320.642 386.012 310.517 387.143 300.363C388.441 288.704 388.721 276.786 385.417 265.422C379.362 244.597 363.913 227.715 346.995 214.694C336.526 206.637 325.018 199.356 312.887 193.994Z" fill="#EF4565"/>
<path fill-rule="evenodd" clip-rule="evenodd" d="M524.501 56.0944C521.764 57.1744 518.817 57.4748 515.905 57.6862C513.621 57.8515 511.828 58.7609 509.676 58.8122C503.682 58.9542 497.664 59.2215 491.7 60.1105C485.71 61.0042 480.193 59.8374 475.464 64.3059C473.78 65.896 471.67 67.7241 472.682 70.2905C473.145 71.466 473.799 72.309 474.185 73.5707C474.621 74.9971 475.163 76.3444 475.793 77.7021C477.002 80.3069 483.057 90.0072 478.143 91.1937C472.816 92.4798 465.592 90.9765 460.461 89.5053C457.467 88.6465 454.521 87.6405 451.57 86.649C449.234 85.8641 446.165 85.4193 444.013 84.1897C442.585 83.374 442.289 81.9819 441.345 80.6591C439.629 78.2529 438.025 76.2035 435.807 74.2012C431.206 70.0489 425.453 67.2292 419.78 64.7507C419.414 64.59 418.746 64.2151 418.35 64.1784C417.924 64.1388 417.453 64.5755 417.178 64.5225C416.421 64.3764 416.157 63.9042 415.329 63.4373C414.217 62.8102 409.683 60.7241 408.89 62.3642C409.632 60.2095 410.174 60.8313 412.182 61.1439C413.066 61.2825 413.658 60.8802 414.453 60.9204C415.185 60.957 415.486 61.371 416.098 61.4828C417.219 61.6871 418.263 61.5334 419.433 61.5247C419.747 60.8359 420.193 60.8412 420.771 61.5398C421.093 61.6435 421.416 61.7471 421.738 61.8513C422.904 62.1686 424.149 62.1081 425.342 62.2012C427.134 62.3421 431.803 64.5114 432.702 62.3159C433.66 59.9713 430.748 59.3868 430.263 57.7508C429.789 56.1456 432.008 55.2036 432.898 54.2342C433.912 53.1321 434.532 52.1644 435.722 51.1933C436.419 50.6233 437.333 50.0918 437.85 49.3326C438.325 48.6339 438.304 47.5044 438.921 46.9222C439.657 46.2282 439.77 46.7085 440.438 46.3732C441.749 45.7147 441.17 45.7479 441.946 44.8478C442.609 44.0781 443.099 44.1014 443.966 43.5116C445.236 42.6482 445.683 40.9609 446.918 40.0329C447.82 39.3534 449.259 39.3546 450.051 38.6489C450.518 38.2332 450.374 37.5596 450.777 37.1672C451.552 36.4132 452.082 36.7195 453.049 36.4709C454.68 36.0517 455.207 35.1568 456.408 34.1205C457.505 33.1744 458.201 33.1785 459.574 32.786C461.449 32.2504 462.66 30.8473 464.353 30.0229C465.946 29.2474 467.591 28.7036 469.203 27.8774C470.368 27.2806 471.489 26.9103 472.551 26.3014C472.91 26.0958 472.941 25.343 473.404 25.2411C473.936 25.1235 474.361 26.0009 474.927 26.0469C476.112 26.1436 477.461 24.8383 478.239 24.0825C478.578 23.7542 479.035 22.8663 479.471 22.6829C480.381 22.2986 480.924 23.0596 481.736 22.7592C482.875 22.3376 482.422 21.1034 483.12 20.4227C483.73 19.8289 485.026 19.8691 486.11 20.0571C490.476 20.8128 483.681 23.8753 482.403 24.4947C480.254 25.5381 464.617 33.1278 468.275 36.9128C470.211 38.915 474.936 37.4094 477.04 36.8819C480.729 35.9568 484.574 34.1758 488.357 33.7671C488.825 33.7164 490.22 34.0489 490.601 33.9039C491.461 33.5773 491.246 32.924 491.945 32.5805C492.997 32.0647 495.146 32.0897 496.214 32.2056C497.049 32.2964 497.963 32.7913 498.812 32.7243C499.748 32.6504 500.652 32.1101 501.579 31.936C503.167 31.6391 504.81 31.7846 506.413 31.8306C508.719 31.8976 513.328 32.2434 509.978 35.2849C507.267 37.7465 502.577 38.812 499.157 39.8861C494.097 41.4738 489.127 42.9183 484.133 44.7272C480.73 45.9592 473.47 48.1233 477.522 52.7414C477.922 52.3665 478.322 51.9921 478.721 51.6172C479.194 52.0917 479.681 53.0151 480.439 53.0418C481.068 53.064 480.837 52.3921 481.432 52.1819C483.304 51.5228 485.868 51.5729 487.842 51.4489C492.785 51.138 497.71 50.4877 502.66 50.2862C507.322 50.0964 512.033 50.3433 516.603 51.3138C517.779 51.5636 528.739 54.4217 524.501 56.0944ZM484.078 103.581C484.326 105.643 483.405 107.311 483.149 109.302C482.84 111.709 483.067 113.83 482.379 116.223C481.043 120.876 480.093 125.635 478.659 130.26C476.127 138.427 472.039 145.639 467.836 153.049C465.691 156.827 462.462 159.947 459.511 163.107C456.487 166.345 454.07 169.533 450.455 172.192C443.23 177.506 435.434 182.233 426.881 185.104C417.929 188.11 408.514 189.021 399.111 188.638C394.937 188.469 390.514 188.889 386.407 188.218C382.04 187.505 377.308 186.63 373.016 185.577C365.137 183.646 357.546 180.367 349.852 177.439C341.259 174.169 333.523 169.995 325.687 165.279C323.614 164.031 321.423 163.448 319.479 161.938C317.84 160.666 316.227 159.449 314.504 158.287C312.526 156.954 310.632 155.496 308.611 154.229C307.403 153.471 305.704 152.73 305.07 151.359C304.198 149.473 305.249 147.105 305.793 145.276C306.501 142.894 307.253 140.543 308.104 138.209C309.544 134.257 313.209 128.16 311.193 123.982C306.943 126.596 305.069 131.735 303.253 136.104C301.082 141.323 299.568 146.53 299.241 152.19C298.583 163.577 300.502 175.562 304.663 186.179C305.282 187.756 306.367 189.466 305.569 191.152C304.732 192.922 302.459 194.417 300.712 195.182C295.185 197.603 289.637 198.308 283.865 199.647C282.294 200.011 280.573 201.106 279.099 201.244C278.103 201.337 277.281 201.013 276.141 201.02C274.996 201.028 274.1 201.665 273.076 201.733C272.182 201.793 271.388 201.273 270.535 201.322C268.627 201.432 268.275 204.68 267.329 201.821C267.157 201.939 266.21 203.005 266.091 203.005C265.821 203.006 265.346 202.211 265.088 202.069C264.586 201.793 263.926 201.778 263.365 201.705C262.127 201.546 260.793 201.53 259.574 201.811C257.315 202.334 255.042 202.114 253.11 202.076C252.671 202.068 252.359 202.419 251.812 202.398C251.563 202.388 251.205 201.951 250.941 201.884C249.413 201.492 247.827 201.785 246.272 201.699C242.616 201.499 239.086 201.402 235.516 200.6C228.2 198.955 220.741 198.626 213.397 197.122C209.654 196.355 205.999 195.937 202.314 194.927C201.019 194.572 199.692 194.404 198.545 193.92C197.449 193.457 197.88 192.841 196.18 194.079C195.416 192.22 195.326 192.409 193.482 191.794C192.768 191.556 191.129 190.965 190.598 190.497C190.546 190.451 189.41 187.62 189.312 187.273C188.84 185.583 189.234 183.65 189.431 181.949C189.876 178.114 190.521 174.309 190.559 170.444C190.575 168.739 190.885 168.69 191.42 167.405C191.584 167.007 192.07 167.038 192.111 166.431C192.165 165.623 191.333 165.061 191.422 164.117C191.542 162.847 192.826 161.56 193.277 160.376C193.819 158.951 193.812 157.444 194.136 155.969C194.568 154.007 195.403 152.165 195.825 150.195C196.183 148.525 196.217 147.198 197.113 145.766C198.008 144.337 197.744 143.17 198.458 141.746C199.112 140.441 199.94 139.972 200.388 138.396C201.473 134.582 203.123 130.806 205.459 127.573C207.513 135.68 209.699 144.056 215.421 150.464C217.777 153.103 220.82 155.765 224.373 156.569C228.39 157.478 231.603 155.125 234.22 152.338C240.453 145.696 243.035 138.283 243.411 129.277C243.505 127.039 243.491 124.797 243.461 122.557C243.447 121.56 242.932 119.002 243.62 118.164C244.374 117.245 246.526 117.819 247.647 117.213C249.024 116.468 250.537 114.472 249.923 112.827C253.593 114.478 257.103 116.65 261.186 117.11C262.802 117.292 264.523 117.015 265.969 116.938C265.925 116.94 267.088 117.176 267.157 117.191C267.444 116.863 267.754 116.783 268.088 116.952C268.385 116.983 268.601 117.141 268.737 117.427C274.555 118.004 280.415 115.149 285.395 112.125C288.305 110.358 291.501 107.743 292.318 104.303C292.609 103.076 292.357 101.919 293.635 101.293C294.674 100.783 296.678 101.518 297.773 101.598C301.628 101.878 305.426 101.515 309.188 102.656C311.484 103.351 315.493 108.229 317.094 104.798C317.789 105.445 317.411 106.598 318.151 107.228C318.796 107.777 320.963 108.163 321.854 108.633C323.235 109.361 324.045 110.328 325.253 111.202C326.738 112.276 328.293 112.359 329.73 113.619C334.709 117.985 340.542 121.147 346.102 124.767C352.698 129.062 358.535 134.124 365.613 137.628C372.852 141.209 379.857 144.202 387.767 146.066C391.355 146.911 395.035 147.617 398.719 147.877C400.456 148 402.114 147.938 403.79 148.456C404.808 148.77 405.137 148.927 406.137 148.956C406.719 148.973 407.563 148.639 408.281 148.652C409.754 148.679 410.507 148.618 411.838 149.102C413.343 149.65 414.594 149.979 416.308 150.026C418.28 150.081 419.44 149.329 421.231 148.866C422.675 148.492 423.975 148.67 425.266 147.894C431.008 144.446 435.622 139.18 438.632 133.201C442.09 126.34 444.753 117.976 445.294 110.286C445.605 105.885 444.627 101.593 442.934 97.5521C442.456 96.4121 439.59 91.557 440.473 90.675C441.475 89.673 444.753 91.9698 445.677 92.4688C448.609 94.0506 453.904 94.5577 455.959 97.219C456.482 96.2217 459.393 97.6999 460.327 98.1162C461.099 98.4603 461.318 99.0827 462.29 99.1572C463.206 99.2271 464.151 98.5022 464.992 98.2711C464.377 99.9747 466.445 100.054 467.862 100.145C468.882 100.21 469.979 100.05 470.888 99.9863C472.627 99.8635 472.655 99.4757 474.243 98.5907C474.181 99.2387 474.252 99.8716 474.455 100.49C475.475 99.0222 477.424 100.042 478.803 99.3965C477.806 97.8944 482.062 97.4834 483.054 97.7989C485.549 98.5948 483.857 101.755 484.078 103.581ZM288.688 206.817C290.334 206.33 291.991 205.884 293.642 205.418C292.392 206.558 291.092 208.615 289.306 208.936C287.151 209.322 286.302 207.523 288.688 206.817ZM207.401 207.634C210.173 207.963 213.192 207.711 215.621 209.336C214.437 210.688 213.668 212.104 211.693 211.329C210.033 210.677 208.667 208.82 207.401 207.634ZM300.009 281.692C298.189 280.071 298.429 279.346 299.284 277.248C299.651 276.345 300.233 273.54 301.614 274.362C302.104 274.653 302.698 277.71 302.786 278.33C302.981 279.714 302.119 283.57 300.009 281.692ZM310.275 272.28C309.632 269.933 309.654 267.379 309.022 264.975C308.355 262.437 307.535 259.89 307.299 257.267C316.916 258.953 322.378 268.431 326.544 276.339C328.757 280.541 330.927 285.189 331.762 289.887C332.577 294.465 331.163 297.941 329.521 302.021C328.685 304.103 327.301 304.826 325.686 306.202C324.255 307.421 323.719 309.479 322.228 310.575C321.126 311.384 319.694 311.804 318.542 312.622C317.404 313.429 316.265 314.229 315.091 314.983C313.748 315.845 309.724 318.986 307.911 318.316C306.553 317.814 307.158 316.165 307.5 315.131C308.22 312.952 308.726 310.853 309.17 308.581C310.357 302.519 311 296.495 311.308 290.329C311.608 284.308 311.888 278.157 310.275 272.28ZM302.231 299.622C302.375 299.92 302.976 302.465 301.636 301.942C300.704 301.578 302.095 300.09 302.231 299.622ZM307.897 198.579C309.033 198.113 309.486 199.491 310.485 199.532C311.809 199.586 312.088 198.124 313.478 198.081C316.876 197.975 321.801 201.236 324.564 202.937C323.211 204.636 322.653 206.373 323.326 208.464C323.919 210.306 326.183 212.366 326.1 214.318C326.015 216.276 323.565 217.536 322.8 219.278C322.098 220.878 321.83 224.076 323.998 224.781C327.727 225.995 328.58 219.059 331.406 219.006C332.614 218.983 334.184 221.239 335.053 221.941C336.999 223.513 339.194 224.662 341.456 225.707C342.984 226.411 345.111 227.8 346.243 225.906C347.151 224.388 346.41 221.984 345.527 220.679C344.515 219.182 335.446 212.327 336.018 211.724C336.323 211.402 338.582 212.289 338.902 212.559C339.625 213.167 339.891 214.156 340.615 214.803C341.722 215.791 343.151 216.183 344.519 216.64C347.373 217.592 349.18 220.943 351.947 222.503C353.543 223.403 354.518 225.131 355.868 226.469C357.635 228.221 359.437 230.057 359.171 232.637C358.986 234.424 358.719 238.588 357.701 240.096C356.595 241.733 354.757 241.106 353.077 241.492C351.188 241.927 349.677 243.391 350.053 245.481C350.444 247.655 352.194 247.81 354.024 247.865C359.182 248.02 357.282 251.272 359.081 254.845C360.058 256.785 361.689 257.546 362.811 255.275C363.713 253.448 362.1 250.568 363.08 249.009C364.274 247.108 370.665 247.625 371.998 249.101C373.008 250.221 373.544 251.761 374.551 252.932C376.081 254.71 376.709 257.203 377.626 259.383C378.601 261.698 379.45 264.047 380.196 266.445C380.72 268.13 381.852 270.797 379.142 269.359C377.25 268.354 375.836 266.087 373.438 266.016C371.065 265.945 369.714 268.391 370.407 270.518C371.077 272.577 374.135 273.484 374.49 275.571C374.878 277.855 370.939 280.185 369.744 281.864C366.989 285.73 369.293 290.083 373.807 286.801C375.407 285.637 377.083 283.291 378.888 282.556C381.743 281.393 381.726 285.703 383.094 287.288C383.831 288.141 384.097 287.274 383.661 288.55C383.5 289.019 382.684 289.167 382.593 289.751C382.526 290.179 382.913 290.406 382.926 290.738C382.971 291.861 382.974 292.027 382.719 293.248C382.438 294.602 382.54 296.284 382.456 297.661C382.261 300.805 382.219 303.808 381.886 306.952C381.702 308.701 381.315 312.265 383.395 313.117C382.655 314.269 381.669 317.474 380.213 317.233C380.332 317.992 380.266 318.96 381.007 319.456C381.185 318.993 381.362 318.531 381.539 318.068C381.947 319.126 381.588 319.247 381.564 319.968C381.594 319.076 380.745 321.21 381.204 320.946C380.814 321.271 380.299 321.456 379.712 321.875C378.892 322.461 378.46 323.27 377.823 324.063C376.671 325.495 376.738 326.941 375.73 328.435C374.299 330.554 372.464 332.645 370.957 334.762C369.73 336.486 367.392 337.479 366.409 339.332C365.783 340.51 365.535 341.88 364.468 342.709C362.94 343.895 360.898 345.014 359.238 346.239C358.195 347.01 357.401 348.079 356.359 348.826C355.832 349.205 354.244 349.589 354.242 350.36C352.244 349.805 350.829 347.778 349.258 346.545C348.208 345.721 345.708 344.65 345.859 342.998C345.983 341.647 347.918 339.97 348.364 338.553C348.742 337.352 349.268 335.113 348.223 334.087C346.029 331.936 343.542 336.553 342.364 337.782C339.934 340.318 338.902 337.761 336.905 335.92C333.714 332.979 331.708 336.03 332.832 339.692C333.401 341.546 335.567 343.198 335.707 345.091C335.861 347.171 333.592 348.217 332.693 349.879C331.845 351.446 331.453 354.199 333.048 355.497C334.806 356.928 336.335 355.235 337.485 353.914C338.378 352.888 339.371 350.631 340.822 350.503C342.639 350.343 345.619 353.62 347.002 354.631C344.901 355.235 343.637 356.982 341.861 358.1C339.569 359.544 336.37 359.886 333.805 360.877C331.389 361.811 329.216 362.571 326.915 363.73C324.185 365.104 320.846 365.447 317.955 366.448C315.374 367.342 312.926 368.595 310.29 369.333C307.319 370.165 304.235 370.665 301.239 371.417C298.678 372.059 295.672 372.676 293.033 372.681C290.362 372.686 290.418 371.044 289.564 368.857C288.549 366.258 286.869 363.978 285.797 361.442C284.778 359.031 286.318 358.115 287.794 356.27C289.186 354.531 288.817 354.259 290.611 355.48C292.974 357.087 294.534 356 296.371 354.152C298.006 352.51 298.606 351.144 300.958 352.289C303.312 353.433 305.555 355.295 308.083 356.041C310.076 356.63 311.56 356.202 311.894 354.038C312.254 351.701 310.912 350.041 309.219 348.652C307.931 347.596 305.117 346.343 304.646 344.629C304.15 342.824 306.763 340.189 307.042 338.17C307.394 335.621 306.289 333.747 303.853 335.511C302.086 336.791 300.91 339.567 298.457 339.74C299.138 336.902 300.616 334.38 301.884 331.779C302.946 329.603 303.857 327.132 306.71 326.889C307.635 326.81 308.236 326.906 309.118 326.749C310.283 326.54 311.864 326.375 313.109 326.063C316.039 325.327 318.627 323.081 321.325 321.793C321.944 323.446 323.038 328.154 325.557 325.405C327.42 323.372 325.356 319.873 327.073 317.612C330.613 312.945 338.326 316.372 342.978 313.966C345.002 312.918 346.651 309.578 343.796 308.571C342.127 307.982 337.309 310.154 336.306 308.553C335.59 307.411 338.589 302.949 338.951 301.723C340.079 297.906 339.896 293.943 339.896 290.011C342.16 290.931 345.024 293.084 347.464 293.378C349.972 293.681 350.412 290.757 349.755 288.836C348.85 286.19 345.831 284.021 343.762 282.316C342.85 281.565 340.462 280.355 339.962 279.213C339.446 278.034 340.185 277.462 340.765 276.437C341.67 274.835 343.864 270.694 341.477 269.193C339.281 267.812 338.049 271.683 336.65 272.511C334.276 273.916 333.463 270.697 332.519 269.059C330.806 266.085 328.432 263.431 326.301 260.755C324.36 258.32 323.165 256.672 322.882 253.568C322.667 251.217 322.183 249.397 324.975 248.863C329.924 247.916 337.169 250.249 341.189 246.251C343.298 244.154 341.792 241.986 339.129 242.094C335.632 242.236 332.308 242.407 328.788 242.126C326.917 241.976 323.005 242.427 322.061 240.512C320.845 238.047 322.906 234.085 320.668 231.925C317.81 229.165 317.109 235.401 317.014 237.123C316.945 238.377 317.269 240.287 316.483 241.372C315.749 242.384 314.408 242.37 313.324 242.736C310.592 243.657 309.18 246.991 312.805 247.696C314.024 247.934 315.724 247.589 316.737 248.486C317.798 249.425 317.393 251.095 317.493 252.361C314.954 249.439 309.676 250.734 306.238 249.649C304.427 249.077 304.121 248.316 303.359 246.574C302.437 244.467 300.336 241.802 300.256 239.471C300.188 237.493 301.847 236.004 302.621 234.298C303.286 232.835 303.887 230.453 303.789 228.811C303.552 224.85 296.356 228.894 294.874 230.409C292.184 233.16 288.868 236.717 290.326 240.612C291.626 244.089 292.317 246.06 287.804 245.787C286.152 245.686 282.682 246.011 281.401 245.318C280.449 244.804 280.807 243.883 280.775 242.547C280.749 241.39 280.837 239.636 280.089 238.625C277.457 235.068 276.841 243.918 275.363 244.877C273.054 246.376 268.165 244.805 268.542 249.255C268.873 253.148 274.171 251.558 275.638 254.907C276.343 256.521 276.193 258.4 277.082 259.956C278.349 262.176 279.909 262.058 280.749 259.744C281.339 258.119 280.552 256.449 281.006 254.915C281.661 252.698 284.781 252.904 286.701 252.653C289.033 252.348 291.067 251.765 293.286 251.052C296.024 250.172 295.875 251.616 296.321 253.708C296.838 256.133 297.628 258.472 298.113 260.934C298.565 263.228 299.763 265.699 299.959 267.996C300.108 269.751 299.508 269.591 298.045 270.604C296.444 271.711 294.683 274.589 292.826 275.063C290.033 275.775 287.218 269.434 284.676 272.678C283.585 274.071 284.007 277.037 284.783 278.476C285.808 280.378 287.693 280.861 286.114 283.039C284.926 284.675 283.434 285.943 283.323 288.145C283.219 290.189 284.618 292.123 286.807 291.522C288.575 291.038 289.62 289.239 290.959 288.147C293.271 286.263 295.168 288.009 297.534 289.075C299.396 289.915 302.819 290.463 303.753 292.438C304.938 294.945 303.418 295.913 301.215 295.201C302.073 298.003 300.944 299.631 300.634 302.527C300.383 304.872 299.84 307.016 299.494 309.283C299.035 312.31 298.986 311.981 295.85 312.084C293.185 312.172 290.594 312.101 287.933 311.985C285.589 311.882 283.993 312.093 283.888 309.283C283.841 308.043 284.629 303.839 282.168 304.344C280.001 304.788 280.625 308.63 279.9 310.073C278.851 312.162 277.077 311.524 275.104 312.04C273.096 312.565 271.474 314.037 271.991 316.311C272.545 318.739 274.786 318.57 276.734 319.131C279.734 319.996 279.075 324.378 280.826 326.758C281.541 327.73 282.293 328.711 283.493 327.914C285.693 326.452 283.616 322.88 284.197 321.088C284.809 319.203 286.87 319.589 288.818 319.345C291.694 318.984 294.704 317.607 297.569 317.624C297.02 319.265 295.48 320.22 294.926 321.948C294.63 322.875 294.907 324.605 294.494 325.372C294.051 326.195 292.653 326.441 292.075 327.586C291.319 329.086 291.085 330.692 290.2 332.16C288.107 335.633 286.304 339.184 284.08 342.621C281.782 346.171 279.307 349.549 276.417 352.626C273.613 355.612 272.777 354.166 270.367 351.726C269.387 350.732 267.304 349.582 267.032 348.098C266.762 346.636 267.981 345.442 268.648 344.252C269.532 342.674 271.129 339.958 270.74 338.064C270.01 334.508 266.808 337.782 265.594 339.114C263.474 341.439 262.289 343.884 259.085 342.047C257.034 340.871 254.448 337.652 251.756 338.842C249.305 339.926 249.992 343.058 251.5 344.646C252.344 345.536 253.547 346.045 254.443 346.879C256.371 348.674 255.28 349.161 254.399 351.172C253.679 352.818 253.575 356.054 254.903 357.425C257.516 360.123 259.537 354.681 261.962 354.571C263.112 354.518 267.891 357.633 268.231 358.753C268.829 360.721 263.673 363.069 262.304 363.993C259.117 366.14 255.646 368.329 252.062 369.753C247.832 371.433 250.984 366.138 248.672 364.379C245.664 362.09 245.432 368.36 245.123 369.918C244.303 374.061 239.895 374.169 236.34 375.196C234.076 375.851 231.811 376.545 229.523 377.115C227.583 377.597 225.41 377.586 223.528 378.184C221.878 378.708 220.749 379.773 218.904 379.785C218.304 379.789 217.782 379.587 217.204 379.573C216.037 379.545 214.967 380.207 213.851 380.139C211.996 380.024 212.804 379.444 212.158 378.158C211.552 376.952 210.01 376.509 208.81 376.132C205.37 375.053 202.506 375.999 202.007 371.655C201.853 370.322 202.056 364.846 199.501 365.486C196.517 366.232 199.143 372.741 197.29 374.372C196.389 375.165 195.028 374.77 193.941 375.004C192.158 375.389 191.376 376.726 189.423 376.637C187.776 376.562 186.242 375.836 184.806 375.114C182.667 374.039 180.113 373.326 178.329 371.686C175.883 369.436 174.81 365.933 173.767 362.892C172.233 358.413 171.579 353.949 171.333 349.252C171.247 347.615 170.546 346.459 170.254 344.957C169.943 343.359 170.862 343.039 171.074 341.525C171.279 340.053 171.18 338.481 171.491 336.905C171.939 334.637 172.096 332.317 172.531 330.043C173.25 326.282 174.34 322.547 175.236 318.819C175.514 317.661 176.017 313.95 177.457 313.593C178.518 313.33 180.97 314.9 181.954 315.361C183.9 316.272 185.572 317.531 187.655 318.162C188.729 318.488 190.085 318.456 190.79 319.446C191.904 321.013 191.003 324.083 191.465 325.935C192.03 328.202 193.902 329.167 195.41 326.889C196.214 325.675 196 324.227 196.108 322.885C196.262 320.95 196.296 320.482 198.406 320.612C200.542 320.745 202.627 321.546 204.818 321.643C206.793 321.73 208.778 321.676 210.751 321.569C215.543 321.309 219.926 320.535 224.419 318.841C227.463 317.693 230.993 315.185 234.348 315.273C239.083 315.398 237.802 319.751 238.45 323.007C238.844 324.989 242.183 331.073 243.465 326.136C244.099 323.693 241.986 320.132 243.238 317.926C244.716 315.32 250.151 317.483 252.624 316.879C254.625 316.39 257.969 313.573 256.556 311.143C255.887 309.991 254.587 310.21 253.427 310.123C251.23 309.96 249.048 309.663 246.87 309.344C245.63 309.163 243.736 309.057 243.241 307.644C242.82 306.444 244.792 303.334 245.22 302.186C246.635 298.387 247.145 295.297 247.151 291.153C247.153 289.287 247.276 287.316 246.974 285.47C246.862 284.793 245.839 282.584 246.318 281.937C246.963 281.066 248.281 282.171 248.809 282.823C249.861 284.122 249.495 284.018 248.898 285.364C248.018 287.344 246.309 291.496 249.208 293.019C252.24 294.613 253.336 289.227 256.209 289.818C257.548 290.093 258.87 291.842 259.949 292.659C261.213 293.615 262.577 294.63 264.062 295.217C266.498 296.18 269.236 295.458 268.252 292.416C267.475 290.017 265.02 288.01 263.264 286.309C260.467 283.6 260.593 282.461 262.526 279.27C263.335 277.934 266.441 272.263 262.841 271.802C260.936 271.557 258.875 274.625 257.869 275.798C256.141 277.813 255.151 278.678 252.581 277.06C250.069 275.479 248.903 274.158 245.864 274.012C242.369 273.845 240.796 268.629 238.943 265.95C233.908 258.675 226.2 255.076 219.701 249.502C216.533 246.785 214.395 243.231 211.986 239.886C210.839 238.293 209.358 236.97 208.424 235.235C207.836 234.143 206.243 231.512 206.658 230.224C207.174 228.621 209.959 227.631 211.118 226.498C212.091 225.548 212.61 224.363 214.14 224.727C215.501 225.05 216.728 226.88 217.841 227.684C218.933 228.473 220.166 229.205 221.377 229.795C223.568 230.862 226.214 231.433 226.342 228.187C226.454 225.379 223.875 222.372 222.012 220.478C220.656 219.099 218.602 217.9 218.87 215.711C219.003 214.625 219.931 212.693 220.474 211.782C222.342 208.648 228.047 210.56 231.147 210.761C234.881 211.004 238.999 210.381 241.968 213.005C242.936 213.861 245.18 215.542 245.656 216.733C246.208 218.12 245.305 218.743 244.803 220.085C244.154 221.819 243.707 225.243 245.576 226.439C248.695 228.434 250.32 222.515 253.562 223.81C256.637 225.038 258.786 228.568 262.295 229.127C266.887 229.857 264.272 224.205 262.683 222.542C260.622 220.386 256.625 218.156 257.934 214.968C258.307 214.056 259.162 212.156 259.93 211.59C261.434 210.482 263.859 211.091 265.581 211.109C269.928 211.155 274.032 210.8 278.292 210.045C279.576 209.817 279.868 209.637 280.773 210.587C282.027 211.901 282.685 213.614 284.142 214.906C282.037 217.16 278.915 219.82 280.379 223.289C281.639 226.274 284.4 224.809 286.269 223.215C287.146 222.466 288.053 220.881 289.216 220.581C290.725 220.191 292.421 221.552 293.657 222.244C295.512 223.282 299.479 226.359 301.585 224.542C304.372 222.139 301.075 218.524 299.155 217.04C297.994 216.143 296.448 215.502 295.471 214.394C294.171 212.92 294.934 212.703 295.721 211.375C297.163 208.944 296.634 205.813 298.94 203.914C300.219 202.861 302.047 202.199 303.508 201.427C304.945 200.666 306.487 199.158 307.897 198.579ZM331.395 208.033C330.834 207.692 330.273 207.351 329.713 207.01C330.995 206.389 331.841 206.463 331.395 208.033ZM362.338 237.573C362.564 236.438 363.445 234.408 364.659 235.47C365.44 236.151 364.587 238.713 366.445 238.005C366.541 239.637 365.317 239.498 367.122 240.95C364.844 240.688 361.7 240.79 362.338 237.573ZM273.921 375.129C274.494 373.6 274.489 371.231 276.255 372.628C276.348 370.777 275.906 364.909 279.29 365.147C280.67 365.244 280.655 366.452 281.019 367.499C281.655 369.325 282.729 370.988 283.633 372.689C280.275 372.824 276.915 373.587 273.921 375.129ZM275.02 396.222C276.939 397.661 277.901 395.962 279.712 395.341C281.384 394.769 283.119 395.112 284.971 394.706C287.269 394.202 289.974 394.278 292.218 394.259C292.771 394.254 293.928 394.341 294.486 394.405C295.504 394.521 295.413 394.73 296.467 395.011C296.874 394.918 297.285 394.85 297.7 394.808C298.209 394.786 298.609 394.995 298.903 395.435C299.85 395.748 300.195 395.539 301.102 395.76C303.264 396.284 304.876 397.576 306.288 399.289C309.161 402.778 309.246 408.02 309.181 412.338C309.162 413.568 309.067 414.791 309.204 416.018C309.33 417.142 310.13 418.843 309.803 419.961C309.307 421.653 307.773 421.273 305.985 421.348C304.933 421.393 303.882 422.067 303.045 422.127C302.235 422.185 301.909 421.888 301.089 421.706C298.95 421.231 296.427 421.908 294.317 422.487C292.152 423.08 290.254 423.665 288.059 424.085C286.63 424.358 285.345 424.513 283.904 424.692C282.723 424.839 282.213 425.456 281.182 425.711C280.188 425.955 279.219 425.589 278.216 425.781C276.848 426.044 275.896 427.04 274.65 427.536C272.933 428.22 270.188 427.198 269.427 429.306C269.129 427.273 267.165 427.826 265.703 427.646C263.293 427.349 260.919 426.276 258.602 425.592C256.702 425.031 250.132 419.86 248.874 421.959C248.876 421.747 249.105 420.545 248.906 420.406C248.205 419.917 248.211 420.186 247.456 419.879C246.302 419.411 245.815 418.988 244.99 418.197C243.321 416.6 241.075 415.765 239.317 414.316C234.899 410.676 233.388 403.177 232.31 397.958C230.901 400.439 231.419 397.255 231.663 396.192C232.24 393.682 231.498 392.444 231.33 390.019C231.176 387.789 232.2 387.348 234.228 387.115C236.726 386.827 239.131 386.425 241.578 385.807C243.915 385.215 246.205 384.548 248.313 383.372C250.244 382.295 252.268 381.872 254.242 380.93C256.418 379.891 258.552 378.798 260.748 377.785C261.737 377.33 266.095 374.065 266.852 374.263C268.405 374.672 266.939 377.372 266.465 378.081C265.248 379.901 263.251 380.745 261.449 381.89C259.824 382.922 254.895 387.813 259.899 387.323C263.215 386.998 265.461 383.547 267.583 387.479C268.331 388.868 269.433 389.983 268.572 391.418C267.37 393.42 263.902 394.374 262.084 395.721C260.535 396.87 257.365 402.283 260.559 402.864C261.477 403.03 262.893 402.815 263.576 402.106C264.037 401.628 264.004 400.644 264.47 400.317C265.13 399.853 266.413 400.428 267.166 400.173C268.24 399.811 268.492 399.229 268.887 398.205C270.033 398.724 270.05 399.421 271.359 398.751C271.793 398.529 271.953 397.713 272.455 397.496C273.13 397.203 273.331 398.162 273.702 398.02C274.705 397.638 274.702 397.207 275.02 396.222ZM206.197 380.299C204.275 380.442 202.175 380.596 200.533 379.379C202.527 379.498 204.286 379.945 206.283 379.536C207.078 379.374 208.349 378.629 209.163 378.888C212.054 379.809 206.967 380.241 206.197 380.299ZM200.857 212.344C200.829 211.672 200.255 202.636 203.364 206.186C204.214 207.157 203.297 208.457 203.176 209.531C202.971 211.34 203.61 213.154 204.57 214.678C205.466 216.099 207.139 217.343 206.888 219.196C206.668 220.822 205.016 222.21 204.201 223.56C202.199 220.426 201.018 216.115 200.857 212.344ZM194.025 117.521C186.822 118.273 179.655 119.605 172.711 121.66C165.892 123.678 159.535 126.833 153.128 129.856C151.808 124.241 150.425 118.642 149.121 113.023C148.493 110.319 147.893 107.608 147.306 104.894C146.888 102.965 145.367 99.368 146.002 97.47C146.339 96.4645 146.783 96.4604 147.507 95.8392C147.95 95.4602 148.721 94.5333 149.179 94.3347C150.296 93.8527 153.165 93.43 154.308 93.4987C155.349 93.561 155.894 93.972 156.965 93.6745C157.878 93.4213 158.644 92.7243 159.501 92.3418C161.68 91.369 164.4 91.0429 166.73 90.5282C168.973 90.0328 171.288 89.9227 173.536 89.4319C175.505 89.0017 176.441 87.5624 178.121 87.6143C182.491 87.7499 187.324 87.2416 191.661 86.2047C196.526 85.0415 201.819 85.2662 206.811 85.1416C208.8 85.0921 210.198 84.6479 210.208 86.8463C210.219 89.5297 209.14 92.5415 208.59 95.1609C207.368 100.968 206.334 106.614 205.872 112.511C205.641 115.46 204.423 115.254 202.009 116.159C199.321 117.166 196.883 117.223 194.025 117.521ZM156.154 177.104C157.929 177.364 157.725 172.544 157.855 171.564C162.087 179.488 166.853 187.113 170.581 195.297C171.452 197.211 172.243 199.169 173.164 201.059C173.794 202.353 175.204 204.091 175.171 205.597C175.135 207.168 173.857 207.756 172.509 208.339C171.053 208.969 170.485 209.282 169.459 208.555C168.217 207.673 167.18 204.958 166.413 203.649C165.242 201.651 164.12 199.625 162.973 197.613C160.895 193.967 158.443 190.475 156.735 186.647C155.136 183.061 152.715 179.975 150.992 176.452C149.284 172.963 146.947 169.655 144.984 166.24C146.956 165.426 149.413 163.391 151.653 163.504C153.966 163.621 153.909 165.838 154.01 167.686C154.115 169.646 153.454 176.707 156.154 177.104ZM161.837 212.903C160.782 214.147 158.402 214.877 156.942 215.567C154.921 216.522 152.851 217.371 150.839 218.346C144.238 221.544 137.664 224.472 130.939 227.409C127.463 228.927 124.029 230.541 120.637 232.235C118.859 233.123 114.944 236.233 112.9 236.312C110.556 236.402 110.501 231.703 109.985 229.94C109.551 228.466 108.746 227.318 108.204 225.92C107.983 225.348 108.155 224.915 107.818 224.349C107.435 223.705 106.362 223.186 105.811 222.63C103.469 220.268 101.527 217.26 99.5483 214.599C97.7359 212.161 94.6448 209.109 93.7752 206.122C92.066 200.25 101.997 196.999 105.797 194.64C112.449 190.509 119.134 186.266 125.476 181.676C128.364 179.585 131.193 177.412 134.096 175.34C135.451 174.373 139.205 170.612 140.944 171.952C141.592 172.452 141.604 173.832 141.874 174.556C142.465 176.137 143.361 177.518 144.269 178.936C145.076 180.193 146.222 181.492 146.726 182.893C147.327 184.564 147.299 185.511 148.399 187.01C150.398 189.737 151.343 192.883 153.202 195.663C154.995 198.343 156.717 200.32 157.889 203.315C158.562 205.032 159.623 206.555 160.561 208.133C161.003 208.878 161.465 209.611 161.861 210.383C162.57 211.762 162.82 211.745 161.837 212.903ZM105.094 235.84C103.825 236.742 101.957 235.226 100.726 235.205C100.191 235.196 99.6595 235.611 99.3017 235.6C98.2261 235.568 97.3471 234.85 96.3575 234.516C91.7866 232.972 86.3374 232.913 82.4329 229.778C74.676 223.549 78.3744 211.052 79.7867 202.956C80.0748 201.305 80.5925 199.018 79.2492 197.667C77.7765 196.184 75.5619 197.069 74.214 198.268C72.8309 199.497 71.891 201.219 70.7416 202.655C68.9105 204.942 66.912 207.103 64.8936 209.226C57.7216 216.767 50.1269 225.395 41.2551 230.929C37.5649 233.231 34.2254 236.351 30.181 238.105C25.3161 240.215 30.3104 232.069 31.1852 230.745C36.9108 222.082 45.2463 215.224 52.2472 207.62C53.5683 206.184 55.4444 204.25 55.4678 202.182C55.5035 199.077 52.7414 199.356 50.5579 200.218C48.5155 201.024 47.4919 203.031 45.8488 204.402C43.8029 206.109 41.4126 207.494 39.1354 208.871C34.2243 211.843 29.0104 214.337 23.813 216.768C21.3817 217.905 18.9388 219.018 16.4958 220.131C15.8254 220.436 11.8178 222.961 12.0093 220.797C12.0356 220.506 14.5922 217.423 14.9078 217.308C16.4818 216.737 17.2623 218.462 18.663 216.201C19.6584 214.596 19.7966 213.763 21.202 212.545C21.4409 212.338 21.6054 211.814 21.7992 211.474C21.7752 211.602 22.8433 210.571 22.6389 210.75C22.9194 210.504 23.327 210.053 23.5548 209.758C24.6533 208.334 26.7648 208.307 27.7198 206.679C28.0841 206.059 27.8774 205.264 28.3165 204.649C28.9314 203.786 30.2846 203.419 31.0066 202.66C31.6255 202.008 32.1356 201.475 32.5197 201.077C32.7844 200.802 33.2487 200.609 33.562 200.295C34.3408 199.512 34.2799 198.819 35.3702 198.161C36.3493 197.571 36.7996 198.123 37.138 196.661C38.3296 197.419 38.1803 196.309 38.664 195.515C39.2929 194.481 40.0916 194.02 40.9582 193.271C42.8648 191.625 44.6519 189.174 46.2745 187.101C50.3084 181.947 53.5718 175.92 54.7733 169.453C55.0609 167.906 55.2195 166.344 55.3337 164.776C55.3946 163.951 55.1235 161.943 55.6382 161.135C56.4363 159.882 57.9518 160.379 59.1053 159.831C59.4971 159.645 59.8835 159.095 60.2513 158.97C60.7654 158.796 61.3949 158.966 61.9283 158.798C62.1356 158.733 62.1836 158.127 62.5268 158.05C63.199 157.897 63.8671 158.14 64.5317 158.149C65.9862 158.168 67.4226 157.914 68.8174 157.453C70.0863 157.034 71.1486 156.074 72.4145 155.729C72.2851 155.764 74.5015 155.939 74.382 155.815C74.488 155.273 74.594 154.731 74.7 154.189C75.5414 154.773 78.4107 155.542 79.3007 155.409C80.7313 155.195 80.4297 153.914 81.6424 155.596C82.3293 155.001 83.0155 154.407 83.7018 153.813C84.2218 155.979 87.8031 154.927 89.4268 155.047C91.714 155.217 93.5158 154.79 95.6004 155.581C98.1359 156.544 100.359 157.558 103.09 157.821C104.998 158.004 105.792 158.895 107.661 159.444C110.173 160.183 110.371 160.996 109.585 163.545C108.948 165.612 108.398 167.205 109.328 169.325C110.98 173.085 115.466 174.634 118.359 177.232C111.583 181.954 104.892 186.6 98.3414 191.632C95.5969 193.74 92.6779 195.851 91.115 199.022C89.6734 201.949 88.8553 205.466 87.9881 208.599C85.9984 215.782 91.6034 220.616 97.3618 223.776C98.5534 224.429 106.76 234.657 105.094 235.84ZM93.9181 244.523C93.5129 243.141 93.5662 242.772 94.9094 242.276C95.4177 242.089 97.3664 241.844 97.6815 242.537C98.3959 244.109 94.643 244.088 93.9181 244.523ZM151.02 144.412C151.501 147.477 151.975 150.543 152.404 153.616C152.641 155.313 153.179 156.815 151.905 158.095C151.182 158.822 149.426 159.094 148.502 159.481C147.17 160.04 145.871 160.68 144.59 161.346C142.305 162.535 139.917 163.25 137.662 164.321C136.681 164.787 136.1 165.704 135.25 166.336C134.089 167.202 132.675 167.623 131.477 168.446C129.334 169.918 127.37 171.661 125.229 173.144C122.803 174.823 122.297 174.284 120.935 171.802C119.711 169.574 118.243 168.557 116.482 166.81C115.798 166.131 113.346 162.26 115.428 161.926C115.962 161.841 117.805 162.637 118.222 162.892C118.857 163.278 119.871 165.476 120.387 165.513C121.316 165.581 122.507 162.953 123.086 162.262C126.882 157.725 131.057 153.237 135.456 149.269C137.736 147.212 140.131 145.338 142.715 143.677C144.553 142.497 146.157 140.843 147.969 139.723C148.352 139.393 148.787 139.158 149.274 139.017C150.22 138.59 150.575 138.958 150.339 140.121C150.881 141.258 150.823 143.156 151.02 144.412ZM67.9912 140.394C68.9141 139.462 70.0793 138.716 70.8839 137.675C71.3377 137.088 71.6369 136.038 72.1563 135.659C73.0604 134.997 74.3539 135.302 75.4056 134.415C76.4215 133.558 77.3133 132.532 78.3053 131.643C80.4555 129.716 82.6747 127.945 84.7845 125.984C85.9831 124.87 87.2409 123.423 88.3061 122.687C88.5883 122.492 88.9045 122.202 89.2049 122.052C89.8467 121.731 90.1664 122.057 91.1033 121.758C91.7228 121.561 92.1649 120.782 92.6621 120.414C93.8431 119.538 95.3826 119.191 96.5197 118.348C97.6569 117.505 98.2038 116.195 99.769 115.492C101.662 114.642 103.081 115.314 104.449 113.688C105.007 113.025 105.16 112.189 106.036 111.771C107.092 111.267 108.019 111.802 109.027 111.229C109.707 110.843 110.171 110.032 110.873 109.61C112.129 108.855 113.519 108.775 114.693 107.84C115.685 107.053 115.134 107.133 116.308 106.801C116.824 106.654 117.397 106.592 117.948 106.405C119.713 105.807 122.595 105.075 123.64 103.413C124.17 104.181 124.353 104.337 125.213 104.098C125.665 103.733 126.08 103.332 126.458 102.893C126.735 103.241 127.032 103.262 127.349 102.956C129.212 102.32 130.92 101.228 132.755 100.621C133.015 100.761 133.275 100.9 133.534 101.04C133.896 101.059 134.042 100.884 133.974 100.513C134.696 100.382 135.527 100.067 136.193 99.779C137.468 99.2271 138.876 97.916 140.379 98.3852C142.888 99.1689 143.008 104.25 143.441 106.264C144.508 111.228 145.582 116.189 146.653 121.151C147.089 123.17 147.472 125.204 148.046 127.19C148.42 128.487 149.354 130.399 149.017 131.779C148.604 133.469 146.942 134.02 145.553 134.802C143.638 135.88 141.787 137.075 139.975 138.316C132.282 143.585 126.546 150.832 121.092 158.265C120.081 156.807 117.374 154.76 115.687 154.102C114.505 153.643 113.442 154.013 112.265 153.452C111.426 153.052 110.73 152.268 109.937 151.764C105.093 148.684 99.2467 146.138 93.6323 144.916C82.1132 142.407 70.8359 146.291 59.6663 148.135C61.933 145.041 65.3216 143.09 67.9912 140.394ZM145.098 56.4361C147.069 50.0568 150.389 43.8807 155.114 39.0949C157.496 36.6822 160.296 34.5734 163.434 33.232C166.163 32.0658 169.41 30.9474 169.368 34.6975C169.276 42.8385 167.382 50.8871 167.151 59.041C166.925 67.0313 168.273 73.4449 173.143 79.8836C170.057 80.5951 166.973 81.317 163.898 82.0739C161.564 82.6486 159.143 83.2937 156.934 83.6884C154.751 84.0779 152.743 84.3317 150.584 85.0647C149.129 85.5585 146.849 87.0681 145.274 86.7404C142.657 86.196 143.276 76.873 143.142 74.6326C142.764 68.3069 143.218 62.5244 145.098 56.4361ZM192.936 68.7191C196.512 64.4096 200.228 59.3816 206.244 58.581C212.061 57.8073 214.205 64.7344 213.835 69.4049C213.71 70.9857 213.473 75.0897 212.317 76.37C211.037 77.7865 208.767 76.7187 207.142 76.5004C200.126 75.5572 192.933 77.1315 185.898 77.1315C188.244 74.3264 190.602 71.5324 192.936 68.7191ZM221.723 85.9066C224.163 86.2536 226.112 86.6233 224.934 89.3813C222.575 94.9053 220.763 100.178 222.83 106.2C224.409 110.799 229.407 116.381 234.402 117.303C236.153 117.626 238.786 117.048 239.862 118.813C240.819 120.386 239.781 125.101 239.669 126.847C239.254 133.352 237.576 139.806 233.336 144.917C229.563 149.465 224.96 153.024 219.472 148.731C214.847 145.113 212.116 138.641 210.747 133.11C210.017 130.157 209.928 127.211 209.788 124.193C209.665 121.524 209.152 119.832 212.191 119.279C213.007 119.131 215.041 119.177 215.044 117.942C215.049 116.282 212.842 116.905 211.998 116.821C208.742 116.498 210.267 112.739 210.571 110.308C211.088 106.168 211.924 102.075 212.693 97.9765C213.347 94.4855 213.381 89.9111 214.802 86.6472C215.631 84.7416 220.095 85.6749 221.723 85.9066ZM227.716 98.1657C228.086 95.9155 228.284 93.1034 230.532 91.8598C233.003 90.4933 234.24 92.7197 235.46 94.5391C238.694 99.3651 242.273 103.881 242.803 109.873C242.866 110.587 243.175 112.022 242.481 112.516C242.172 112.737 241.432 112.155 240.954 112.189C238.392 112.372 236.539 113.054 234.027 111.618C229.112 108.807 226.823 103.595 227.716 98.1657ZM247.041 111.643C246.513 106.404 244.076 101.758 241.354 97.3349C240.012 95.1539 237.405 92.7698 236.479 90.4659C235.983 89.2317 236.861 87.7033 238.666 88.2326C239.565 88.4963 241.296 90.863 241.896 91.6822C243.44 93.7869 244.719 96.1344 245.94 98.433C247.245 100.889 250.954 109.903 247.041 111.643ZM230.861 59.4736C231.147 54.5445 231.176 48.8843 234.391 44.7936C236.883 41.6217 241.445 40.2407 245.146 39.0146C250.132 37.3622 256.121 37.1072 261.336 37.6411C265.925 38.1116 269.39 41.2142 272.221 44.6259C275.102 48.0954 277.333 52.5627 279.314 56.5997C279.81 57.6099 284.014 64.0905 281.17 63.9397C280.043 63.8797 279.062 61.693 278.198 61.0473C277.521 60.5413 276.72 60.6042 276.113 60.1996C275.462 59.7658 275.603 59.3647 275.099 58.829C271.625 55.146 268.43 57.267 264.683 59.2069C264.508 57.922 264.815 55.5349 263.733 54.5958C262.317 53.3667 260.838 55.3136 259.822 56.2685C258.897 57.1383 257.758 58.7231 256.593 59.1935C255.081 59.8043 255.596 59.1551 254.282 58.6422C251.638 57.6093 249.604 60.6659 248.267 62.4434C247.768 63.1066 246.953 64.7804 246.06 64.9597C245.196 65.1327 245.083 64.5219 244.339 64.296C242.233 63.6585 241.65 65.1496 240.979 67.001C240.225 69.083 239.582 71.0887 238.465 73.0333C236.489 76.4742 235.639 77.606 237.202 81.4055C234.919 81.7421 234.44 82.0122 233.308 80.0007C232.142 77.9274 231.839 76.2075 231.913 73.8245C232.066 68.8408 230.567 64.5359 230.861 59.4736ZM283.862 83.055C286.252 87.3412 287.771 93.306 287.746 98.1896C287.733 100.612 287.59 103.592 286.451 105.79C285.358 107.899 283.07 108.955 280.963 109.853C275.883 112.019 270.16 111.994 264.819 111.029C262.047 110.527 259.351 110.851 256.979 109.197C255.194 107.952 253.041 106.742 252.518 104.459C252.299 103.504 252.637 102.703 252.566 101.766C252.653 101.32 252.621 100.885 252.47 100.46C252.158 100.281 251.844 100.108 251.527 99.9391C251.278 99.2271 251.755 98.4335 251.633 97.6901C251.485 96.7923 250.735 96.0616 250.384 95.2477C249.418 93.0044 250.108 91.7491 251.916 90.2255C252.349 89.8872 252.785 89.5524 253.223 89.2206C253.616 88.6029 254.051 88.6005 254.526 89.2124C255.388 89.2241 255.362 89.4878 256.268 89.2258C258.253 88.6518 259.918 86.5552 261.862 85.8187C262.617 85.5323 263.744 85.7756 264.357 85.2476C264.905 84.7754 264.553 83.7856 265.035 83.3222C266.572 81.8416 268.991 83.2453 270.414 81.0929C271.574 79.3369 271.328 76.8451 271.447 74.851C275.011 75.5275 276.555 78.9183 279.482 80.6242C280.061 78.3955 280.146 78.4619 282.381 77.85C281.368 79.7101 283.006 81.5208 283.862 83.055ZM286.589 59.3938C287.246 60.2333 287.747 62.3182 286.589 62.5197V59.3938ZM289.631 66.9771C295.072 66.9882 298.55 73.8181 300.139 78.0491C301.865 82.6503 303.685 88.7868 300.462 93.2681C299.226 94.9862 297.71 95.144 295.722 94.921C293.326 94.6526 292.097 94.3085 293.035 91.766C294.792 87.0018 293.47 80.945 290.357 76.9568C294.639 76.1353 291.924 72.2351 289.775 70.7755C287.265 69.0713 285.237 66.9678 289.631 66.9771ZM165.409 313.891C164.129 317.263 162.828 320.624 161.754 324.097C160.736 327.388 161.326 331.098 160.06 334.263C159.281 333.88 159.058 333.201 158.381 332.788C157.964 332.532 157.237 332.432 156.879 332.15C156.263 331.668 154.77 329.872 154.365 329.176C152.967 326.765 153.899 322.848 154.647 320.371C155.572 317.303 157.152 314.358 159.274 311.941C160.763 310.247 161.584 310.786 163.575 311.62C164.752 312.113 165.964 312.429 165.409 313.891ZM155.712 340.489C154.689 342.543 152.8 344.237 151.677 346.307C150.499 348.48 149.607 350.93 148.105 352.917C146.576 354.943 145.201 354.605 143.096 355.479C142.34 355.792 142.022 356.373 141.414 356.827C140.273 357.676 139.022 358.197 137.823 358.953C136.97 356.875 134.365 346.446 131.05 346.67C128.169 346.863 129.643 352.323 130.014 353.935C130.328 355.296 130.687 356.677 131.165 357.991C131.648 359.318 133.151 361.305 132.595 362.76C131.888 364.608 130.129 364.487 129.248 363.138C128.512 362.01 128.138 360.478 127.595 359.251C127.118 358.172 124.936 352.267 123.05 353.183C121.233 354.065 124.059 359.789 124.532 360.914C125.674 363.629 127.864 366.238 124.969 368.414C120.576 371.717 115.166 374.204 110.244 376.585C107.371 377.975 104.788 379.802 101.773 380.931C98.9721 381.979 95.7357 382.157 93.028 383.362C92.3617 383.659 92.8084 384.028 91.8352 384.2C91.019 384.344 89.5931 383.957 88.7177 383.965C87.2679 383.978 85.8151 384.088 84.3682 383.907C83.5531 383.806 81.6974 382.919 81.9908 384.383C80.8378 384.065 80.3916 382.909 79.5502 382.188C78.8007 381.544 77.8433 381.195 77.0065 380.689C75.2768 379.644 73.9827 378.453 73.4639 376.461C72.2453 371.783 74.8212 366.915 78.0008 363.655C79.8254 361.784 81.9662 360.228 83.6397 358.214C84.2271 357.507 84.6446 356.685 85.39 356.111C86.3023 355.407 87.5542 355.32 88.4378 354.608C89.0954 354.078 89.2922 353.233 89.9814 352.746C91.0008 352.028 92.1936 352.326 93.1563 351.382C93.7055 350.843 95.591 348.304 95.4587 347.601C95.9752 347.773 96.4922 347.945 97.0081 348.116C97.3219 346.552 100.039 344.623 101.379 343.873C102.057 343.494 103.378 343.513 103.882 343.105C104.553 342.562 104.498 341.424 105.03 340.743C106.557 338.791 109.752 337.915 111.774 336.555C114.347 334.825 116.845 332.865 119.169 330.818C123.865 326.679 128.006 321.87 131.389 316.616C132.751 314.499 134.016 312.341 134.986 310.022C135.583 308.594 136.179 306.056 137.654 305.228C139.178 304.372 142.677 305.53 144.383 305.653C146.889 305.832 150.795 305.721 153.042 306.943C155.443 308.251 153.491 309.332 152.255 310.891C150.446 313.172 149.361 315.965 148.458 318.702C147.762 320.807 147.632 322.844 147.177 324.966C146.696 327.21 146.701 330.239 147.814 332.301C148.917 334.341 156.862 338.181 155.712 340.489ZM60.9867 381.854C55.5914 374.56 60.058 363.883 65.3357 357.989C71.7037 350.877 80.767 346.877 88.2112 341.094C96.8195 334.407 105.661 328.195 113.288 320.351C117.155 316.376 120.521 312.091 123.574 307.471C126.165 303.548 128.046 298.323 133.281 297.756C130.193 301.578 130.013 307.085 127.625 311.341C125.097 315.848 121.37 319.597 117.574 323.061C109.56 330.376 100.903 337.077 92.2463 343.615C87.8277 346.951 83.5314 350.439 79.128 353.792C75.1842 356.795 71.0414 359.364 68.7688 363.941C64.8479 371.836 64.6137 383.534 73.297 388.398C68.8227 387.512 63.7904 385.643 60.9867 381.854ZM531.395 52.9376C529.799 49.7663 526.807 48.6368 523.803 47.3961C520.863 46.1822 518.176 44.6865 514.915 44.2982C513.465 44.1252 509.376 44.5543 509.185 42.4677C509.026 40.7292 513.298 38.9843 514.283 37.6598C515.743 35.6965 516.735 32.5089 516.169 30.0293C515.632 27.6777 513.329 26.9348 511.178 26.5086C504.489 25.1841 497.377 26.1581 490.67 26.7025C491.491 25.5625 492.648 24.6275 493.306 23.2622L494.37 25.4571C494.975 24.2019 495.632 22.9699 496.385 21.7944C496.894 22.3627 497.404 22.9315 497.913 23.4997C497.066 20.5485 499.914 20.5636 499.615 18.0758C499.498 17.1082 498.838 16.6843 498.676 15.9065C498.358 14.3602 499.56 13.3931 498.192 11.9591C496.669 10.3621 494.178 10.9955 492.405 11.1446C492.182 11.1638 491.859 11.601 491.572 11.6366C491.173 11.6866 490.944 11.1417 490.451 11.1708C489.129 11.2482 487.964 12.2677 486.65 12.5774C480.561 14.0132 474.47 16.5737 468.625 18.9643C462.676 21.398 456.835 24.2316 451.648 28.0509C446.097 32.1386 442.087 37.3937 437.653 42.5713C435.569 45.0044 433.413 47.3408 431.826 50.1442C431.007 51.5927 430.265 56.1427 428.79 56.8041C427.187 57.5226 423.158 55.4912 421.519 55.1163C417.661 54.2348 413.821 53.8668 409.866 54.0438C406.721 54.1836 403.402 54.1003 400.282 54.4822C398.471 54.7041 393.958 56.6993 393.668 58.9303C393.54 59.9219 394.684 60.7463 394.94 61.6755C395.328 63.0809 394.687 64.5697 395.134 65.978C396.045 68.8495 400.275 69.9062 402.767 70.8104C409.725 73.3361 416.778 75.294 423.808 77.5548C426.863 78.5376 429.475 80.102 432.242 81.6728C434.536 82.9746 436.63 84.277 434.312 86.7217C432.116 89.0378 432.39 89.9722 433.044 93.1628C433.734 96.5297 433.973 99.9339 434.873 103.268C435.767 106.589 437.44 109.761 437.114 113.274C436.788 116.775 435.329 120.372 433.964 123.581C432.586 126.823 431.064 130.026 429.566 133.216C428.181 136.167 426.681 139.158 423.476 140.418C417.356 142.821 409.537 142.44 403.159 141.567C395.92 140.576 388.442 138.896 381.595 136.332C375.012 133.866 367.772 130.084 362.328 125.615C359.42 123.228 356.27 121.459 353.183 119.323C350.055 117.159 347.68 114.239 344.94 111.647C339.569 106.568 332.957 103.067 326.152 100.274C318.502 97.1352 310.603 97.4612 302.496 97.1218C303.772 94.6323 305.414 92.2528 306.017 89.4814C306.645 86.5948 306.19 83.4584 305.793 80.5747C305.02 74.9616 303.558 70.0215 299.989 65.4884C298.357 63.4151 296.452 61.7989 293.734 61.4979C292.087 61.3151 289.044 62.5709 287.855 61.1858C287.332 60.5751 287.454 59.2907 287.124 58.5385C286.833 57.8707 286.246 57.1988 285.928 56.4734C284.567 53.3725 282.869 50.6321 281.174 47.6901C280.499 46.5205 279.977 44.7936 279.057 43.8091C278.557 43.2735 277.914 43.0301 277.633 42.6383C277.11 41.9053 276.868 40.565 276.432 39.7377C275.684 38.3217 274.733 37.0059 273.636 35.8374C271.882 33.9697 269.624 32.3214 267.219 31.3911C265.883 30.8741 264.904 30.7518 263.509 30.8275C263.1 30.8496 262.646 31.0837 262.237 31.0528C261.258 30.9789 261.412 30.6307 260.628 30.4688C255.382 29.3842 248.347 30.9061 243.427 32.7744C238.244 34.7423 234.034 37.3372 230.884 42.0002C223.147 53.4523 224.95 68.2394 228.232 80.853C226.247 80.3354 224.27 79.7229 222.266 79.2845C221.039 79.0156 219.364 79.0662 218.268 78.4229C215.829 76.9918 217.812 73.3192 217.827 70.9461C217.865 64.9167 214.999 55.4877 208.749 52.9411C202.237 50.2874 194.315 57.7362 190.29 61.9602C187.707 64.6698 185.359 67.5902 182.888 70.3976C181.161 72.3597 178.881 75.4879 175.853 74.975C169.25 73.8571 171.264 61.3844 171.558 57.1686C172.021 50.504 173.009 43.7328 173.014 37.0513C173.018 32.9898 172.31 27.5106 167.287 27.0344C160.374 26.3794 153.825 32.623 149.793 37.4269C139.162 50.0941 136.813 66.8374 139.657 82.733C140.074 85.0636 141.405 87.938 138.866 89.3848C135.529 91.2857 131.263 92.4367 127.678 93.8323C119.66 96.9518 112.235 101.113 104.686 105.181C97.2125 109.208 89.8578 113.205 83.1151 118.394C76.3934 123.567 69.7397 129.047 63.6165 134.912C60.5645 137.834 57.6198 140.884 54.8413 144.066C52.2267 147.06 50.1088 150.46 47.267 153.258C45.3329 155.163 41.7745 157.718 41.3494 160.624C41.0056 162.97 44.9904 164.596 46.7886 165.68C48.0212 166.424 48.8756 166.401 48.9646 167.726C49.0747 169.379 47.3203 172.028 46.6955 173.604C45.104 177.624 43.0235 180.954 40.2889 184.299C34.2313 191.709 26.9112 197.992 19.9635 204.575C13.5077 210.691 7.18189 216.711 2.44997 224.301C1.29056 226.16 -1.59508 229.979 1.1471 231.72C1.8568 232.17 4.0345 232.527 4.75708 232.043C5.6524 231.443 5.19859 230.54 6.2567 229.939C5.99144 231.96 15.2333 228.011 15.9524 227.645C17.8947 226.657 19.6514 225.498 21.637 224.613C22.8017 224.093 22.9428 223.369 23.8446 222.789C24.3265 222.479 24.3324 222.895 24.9777 222.702C25.5585 222.528 26.9217 222.462 27.355 221.906C27.3668 221.89 27.8399 220.545 27.4376 220.824C29.0122 219.735 29.9426 221.382 28.9975 222.928C26.2032 227.497 22.67 230.859 21.575 236.35C21.1774 238.345 20.4987 242.047 21.7249 243.865C21.7694 243.931 22.1822 243.738 22.2326 243.809C22.2794 243.876 22.7291 244.497 22.9142 244.673C23.9974 245.703 23.9278 246.162 25.736 246.118C26.5382 246.099 28.1374 245.997 28.8716 245.637C29.4238 245.367 29.6938 244.7 30.1183 244.463C30.5481 244.222 30.4972 244.096 30.9006 243.956C30.9832 243.927 31.1419 244.627 31.2988 244.598C32.1602 244.437 32.5314 243.926 33.2634 243.514C35.3725 242.329 37.4402 241.026 39.4486 239.832C41.47 238.631 42.9801 236.955 44.9939 235.559C47.1329 234.077 48.8826 232.94 50.528 230.882C51.6669 229.458 53.026 228.939 53.7908 228.238C54.6984 227.405 56.2624 224.191 57.7252 223.808C58.3909 223.633 58.9238 224.219 59.2886 223.979C59.6997 223.71 59.2517 223.193 59.4578 222.889C59.8425 222.322 59.8906 222.227 60.5446 221.707C61.3826 221.042 62.412 220.863 63.1152 219.996C63.897 219.032 64.0041 217.95 64.9662 217.046C67.2797 214.872 69.3398 212.582 71.7915 210.475C70.8446 215.718 69.9066 220.924 70.6403 226.256C71.3512 231.424 73.5599 233.738 77.8954 236.361C78.8498 236.939 79.8512 237.779 80.8759 238.188C81.4989 238.437 82.437 238.289 82.9013 238.472C84.4736 239.091 83.939 240.357 84.1544 241.785C84.4888 243.998 86.5371 245.701 87.8587 247.425C88.9707 248.875 90.9756 252.174 92.836 252.675C94.5154 253.127 96.0999 251.176 97.4988 250.345C99.608 249.093 101.906 248.195 104.13 247.172C108.474 245.173 112.671 242.788 116.967 240.674C118.929 239.709 120.911 239.316 122.988 238.692C125.482 237.944 127.611 236.511 130.003 235.534C134.305 233.776 138.427 231.679 142.702 229.833C151.551 226.014 161.203 223.39 169.078 217.66C172.64 215.067 177.227 214.791 180.738 212.272C184.397 209.646 182.153 205.63 180.587 202.407C176.306 193.602 173.751 184.459 167.858 176.438C164.796 172.27 161.967 167.964 159.297 163.534C156.935 159.613 156.983 155.172 156.39 150.743C155.993 147.783 155.622 144.811 155.137 141.864C154.829 139.991 153.836 137.631 155.037 135.933C156.328 134.109 159.393 133.333 161.33 132.37C163.737 131.174 166.068 129.888 168.565 128.875C174.273 126.562 180.285 124.961 186.272 123.548C188.058 123.126 195.7 120.113 197.154 121.878C195.368 123.064 194.846 125.218 194.044 127.063C192.851 129.814 191.619 132.434 190.748 135.317C188.949 141.276 187.419 147.331 185.952 153.378C184.495 159.383 182.759 165.434 182.313 171.62C182.085 174.777 182.242 177.937 182.236 181.097C182.23 184.47 181.526 187.779 181.651 191.16C181.735 193.409 181.926 196.11 183.252 198.029C184.481 199.806 186.571 200.004 188.392 200.955C190.796 202.209 191.737 202.744 191.759 205.473C191.785 208.654 191.578 211.777 191.878 214.955C192.921 226.024 196.666 239.159 204.141 247.705C204.638 248.273 219.14 266.437 220.745 263.778C221.851 265.078 223.504 265.554 224.865 266.687C227.004 268.469 229.102 269.893 230.871 272.1C234.09 276.115 236.826 280.821 237.631 285.955C238.323 290.374 237.907 295.657 235.397 299.486C232.88 303.328 227.497 305.849 223.435 307.74C218.094 310.227 212.674 310.506 206.875 309.883C204.014 309.576 201.175 309.095 198.335 308.642C197.153 308.453 195.775 308.452 194.656 308.01C193.456 307.537 193.05 307.013 191.853 306.954C190.958 306.91 190.469 307.107 189.523 306.911C188.353 306.668 187.082 306.227 185.914 305.929C184.617 305.597 183.552 305.125 182.356 304.516C181.249 303.952 180.001 303.843 178.936 303.309C177.099 302.388 176.533 300.849 174.047 301.702C171.424 302.603 171.973 304.856 170.298 306.401C168.81 307.774 166.967 306.504 165.486 305.688C163.306 304.486 161.043 303.487 158.722 302.577C156.215 301.594 153.655 300.739 151.046 300.063C148.193 299.323 145.058 299.176 142.309 298.099C139.894 297.153 138.855 295.322 137.104 293.612C135.264 291.813 132.767 291.128 130.215 291.288C125.569 291.581 122.396 296.568 119.941 300.033C113.083 309.71 105.503 317.954 96.337 325.556C91.9576 329.187 87.0208 332.276 82.7854 336.045C80.9989 337.635 79.7018 339.125 77.5862 340.309C74.8071 341.864 72.2851 343.814 69.6284 345.568C59.2371 352.425 51.6148 362.415 54.4888 375.459C55.7823 381.33 58.3658 385.451 63.1931 388.984C65.3849 390.588 67.3904 391.922 70.1824 391.83C72.8186 391.742 75.1444 391.651 73.5915 388.536C75.559 389.141 77.2056 390.634 79.3534 391.398C81.828 392.278 85.0474 392.827 87.6748 392.88C91.8815 392.966 96.8301 390.764 100.514 389.83C101.544 389.569 103.528 389.142 104.702 388.181C105.635 387.416 105.433 386.512 106.845 386.149C108.696 385.673 109.401 386.229 111.173 385.116C113.745 383.499 116.534 382.539 119.202 381.049C122.796 379.041 126.25 376.778 129.811 374.711C130.286 376.01 133.075 383.73 134.798 380.009C136.297 376.768 131.43 373.995 134.389 370.714C137.212 367.586 137.802 370.875 140.54 372.327C144.341 374.343 143.771 370.578 142.666 368.347C142.224 367.455 141.295 366.11 141.568 365.07C142.096 363.061 143.733 364.24 145.02 364.445C147.047 364.768 148.685 364.214 150.207 362.864C151.476 361.738 153.574 360.766 154.342 359.281C154.725 358.539 154.792 357.518 155.112 356.729C155.533 355.689 155.832 355.941 155.986 354.652C155.839 353.985 155.781 353.309 155.81 352.626C156.143 352.559 156.475 352.492 156.807 352.425C156.817 352.378 156.841 351.076 156.707 351.27C157.017 350.823 157.684 350.633 158.067 350.012C158.42 349.44 158.092 348.344 158.234 347.669C158.521 346.303 159.304 345.201 159.943 343.983C161.296 349.669 160.904 355.597 162.197 361.286C163.26 365.955 165.678 370.142 168.499 373.971C169.807 375.745 171.538 377.005 172.907 378.691C174.065 380.118 174.644 381.375 176.354 382.219C177.491 382.779 178.771 383.068 179.943 383.552C180.692 383.861 182.398 385.287 183.101 385.262C182.489 385.284 184.253 385.338 183.844 385.269C183.874 385.274 183.635 384.506 183.847 384.519C186.404 386.923 189.075 386.928 192.034 388.422C193.39 389.107 193.897 389.065 195.342 389.318C197.214 389.646 198.79 390.706 200.582 390.819C203.342 390.994 206.45 391.361 209.327 391.26C210.11 391.232 211.581 390.732 212.196 391.412C212.601 391.86 211.832 395.105 211.783 395.848C211.277 403.64 212.326 411.82 215.637 418.95C218.382 424.861 221.309 431.855 226.165 436.37C231.547 441.373 239.086 444.899 246.284 446.249C254.254 447.743 262.154 446.625 270.148 446.16C278.26 445.689 285.765 444.546 293.587 442.211C300.862 440.04 307.753 437.211 314.713 434.226C319.447 432.196 325.45 429.275 322.968 423.114C322.368 421.624 320.041 417.481 317.982 419.525C316.16 421.333 319.206 424.755 320.584 425.904C310.196 433.098 297.589 435.478 285.433 438.026C278.757 439.426 272.18 439.366 265.39 439.386C259.636 439.402 253.883 439.566 248.166 438.768C242.994 438.046 236.972 436.692 233.123 432.937C229.098 429.009 225.287 424.319 222.539 419.418C219.524 414.04 218.793 408.225 218.549 402.159C218.421 398.966 218.277 395.733 218.613 392.548C218.857 390.235 220.046 389.961 220.636 388.134C221.998 390.029 222.895 389.329 224.569 388.221C225.65 391.219 225.169 394.335 224.982 397.427C224.801 400.439 225.206 403.493 225.577 406.484C226.207 411.57 228.661 416.873 231.774 420.967C233.181 422.818 235.29 423.599 237.198 424.877C239.63 426.507 242.153 428.025 244.692 429.487C249.473 432.242 254.692 434.596 260.081 435.011C261.969 435.157 263.342 436.134 265.592 435.997C266.927 435.916 268.272 435.462 269.605 435.498C270.941 435.534 272.088 435.958 273.46 435.859C279.161 435.45 285.038 433.595 290.683 432.576C296.794 431.474 302.944 430.286 308.779 428.109C311.306 427.165 313.394 425.948 314.805 423.578C315.813 421.884 315.549 418.847 317.427 417.833C316.197 416.258 316.654 415.979 317.717 414.57C318.213 413.914 319.815 412.174 317.872 412.206C318.463 409.667 317.475 407.213 317.054 404.73C316.873 403.657 316.922 402.033 316.254 401.109C315.864 400.572 315.216 400.561 314.867 400.165C314.506 400.156 314.225 400.007 314.023 399.718C313.999 399.294 314.198 399.036 314.622 398.943C314.524 398.104 315.149 398.405 314.524 397.093C313.671 395.301 312.052 393.742 310.519 392.524C309.214 391.486 308.252 389.643 306.744 389.089C304.783 388.368 302.726 387.585 300.664 386.916C295.99 385.399 291.359 384.819 286.455 385.66C284.21 386.045 281.997 386.518 279.828 387.207C278.559 387.611 276.618 388.7 275.495 387.526C275.109 387.123 274.302 383.7 274.353 383.33C274.554 381.846 277.607 381.247 278.72 380.729C280.423 379.937 283.574 379.09 284.655 377.519C285.108 376.86 284.596 374.062 284.67 374.012C285.385 373.535 288.382 380.329 289.198 380.792C290.378 381.462 293.694 380.577 294.915 380.443C298.555 380.046 302.256 379.82 305.821 378.958C312.658 377.305 319.372 374.747 326.026 372.487C338.684 368.187 350.904 362.52 362.284 355.482C367.598 352.194 372.878 347.992 376.922 343.219C378.745 341.066 380.034 338.512 381.896 336.401C384.045 333.966 383.368 331.768 384.331 328.718C386.281 322.543 388.648 316.934 389.71 310.463C390.803 303.801 391.254 296.999 390.951 290.254C390.352 276.923 389.701 264.283 383.801 252.034C378.394 240.809 371.388 229.841 363.059 220.548C361.122 218.388 359.076 216.33 356.698 214.65C354.137 212.84 351.319 211.421 349.001 209.284C347.099 207.53 345.508 205.465 343.518 203.8C341.076 201.757 338.171 200.855 335.31 199.55C332.568 198.3 330.067 196.675 327.263 195.536C325.557 194.845 323.828 194.206 322.049 193.723C320.734 193.366 318.988 193.344 317.786 192.665C315.883 191.592 313.937 188.47 312.695 186.706C310.882 184.133 309.9 181.139 309.037 178.148C307.988 174.508 307.012 170.846 305.987 167.199C305.636 165.953 304.325 161.617 306.939 162.669C307.703 162.977 308.421 164.345 309.01 164.93C310.126 166.04 311.504 167.031 312.889 167.786C315.123 169.002 317.449 170.467 319.591 171.306C321.479 172.045 323.42 173.494 325.181 174.536C325.448 174.695 325.526 175.24 325.87 175.392C326.681 175.749 327.222 174.763 327.988 175.005C329.034 175.335 329.206 176.314 329.787 177.093C330.629 178.222 331.066 178.312 332.351 178.893C333.782 179.54 334.832 180.818 336.227 181.451C337.922 182.22 341.651 181.624 341.906 184.275C344.539 182.567 347.842 185.884 349.486 187.605C351.14 185.082 354.07 188.036 356.574 187.198C355.189 189.11 355.441 188.921 357.627 189.157C359.472 189.357 360.577 190.574 362.4 191.281C363.663 191.77 365.059 192.594 366.372 192.938C367.613 193.264 368.553 192.533 369.634 192.716C370.38 192.842 371.088 193.482 371.797 193.657C372.696 193.879 373.976 194.149 374.992 194.388C376.228 194.68 377.458 194.412 378.69 194.644C380.129 194.914 381.37 195.765 382.831 196.041C384.459 196.349 386.153 196.144 387.771 196.535C389.247 196.893 390.144 197.304 391.672 197.318C393.952 197.341 396.496 197.64 398.747 197.385C399.946 197.249 400.61 196.645 401.966 197.235C402.871 197.629 403.413 198.844 404.647 198.287C403.345 197.769 404.487 195.752 405.922 197.297C406.262 196.431 406.482 195.947 407.426 195.662C407.378 196.51 407.239 197.362 408.328 197.54C408.411 196.949 408.495 196.36 408.579 195.769C410.947 197.559 411.507 198.191 413.742 196.007C413.682 196.722 413.378 197.531 414.11 198.037C414.579 197.264 415.048 196.491 415.516 195.717C416.308 198.213 420.087 197.352 421.919 196.909C422.629 196.738 424.592 196.467 425.055 195.889C425.377 195.487 425.337 195.174 425.456 194.928C425.562 194.71 424.358 194.173 425.382 193.859C426.154 193.622 426.756 195.303 427.662 195.236C428.47 195.176 428.797 193.818 429.378 193.542C429.434 193.516 429.829 194.09 430.102 193.964C430.527 193.769 430.769 193.255 431.238 193.072C432.255 192.678 433.569 192.776 434.706 192.308C436.15 191.714 437.604 191.431 439.078 190.942C440.945 190.322 441.793 189.104 443.309 188.107C443.664 187.874 444.034 188.01 444.383 187.845C444.853 187.622 445.347 187.1 445.906 186.854C447.662 186.081 449.161 185.555 450.827 184.488C452.312 183.537 454.272 182.834 455.594 181.692C456.694 180.742 457.288 179.355 458.395 178.388C459.984 177 464.09 175.258 463.424 172.546C466.082 172.949 466.732 171.241 467.708 169.356C468.636 167.563 470.538 167.026 471.782 165.391C472.319 164.684 473.185 163.704 473.482 162.898C473.658 162.418 473.215 161.918 473.335 161.59C473.886 160.084 476.013 159.426 476.998 158.067C478.251 156.339 478.653 154.153 479.698 152.377C479.904 152.027 480.41 151.82 480.607 151.448C480.733 151.208 480.47 150.615 480.623 150.38C480.988 149.822 481.561 149.629 481.927 149.112C482.812 147.861 482.974 146.081 483.77 144.662C483.967 144.313 484.649 143.337 484.735 143.129C485.024 142.43 484.936 141.971 485.084 141.194C485.129 140.96 485.584 139.607 485.677 139.413C485.969 138.809 486.252 138.72 486.699 138.058C487.817 136.399 488.511 133.794 488.603 131.78C488.642 130.926 488.356 130.043 488.667 129.228C488.936 128.524 489.764 128.089 490.076 127.352C490.895 125.417 490.761 122.681 490.987 120.611C491.232 118.355 491.958 116.132 492.159 113.892C492.256 112.808 491.744 111.848 491.782 110.828C491.825 109.658 492.436 109.44 492.672 108.467C492.94 107.356 492.547 106.076 492.787 104.885C493.011 103.777 493.336 102.751 493.428 101.615C493.669 98.6542 493.329 95.5574 493.2 92.5957C493.149 91.4464 492.995 90.2476 493.301 89.1222C493.548 88.2169 494.554 87.2044 494.521 86.2222C494.418 83.1877 491.974 85.8141 490.568 85.6056C488.935 85.364 488.634 81.724 488.204 80.3436C487.152 76.9708 486.1 73.5986 485.048 70.2265C490.062 68.9299 495.276 69.3036 500.396 68.9537C505.426 68.6102 510.338 67.5261 515.216 66.3058C519.334 65.2753 523.84 64.678 527.54 62.4778C530.648 60.631 533.211 56.5439 531.395 52.9376Z" fill="black"/>
<path fill-rule="evenodd" clip-rule="evenodd" d="M44.4436 118.223C46.4497 117.187 45.9437 115.757 47.4168 114.427C55.6608 106.989 65.3352 100.493 75.0313 95.1302C85.2468 89.4794 96.7088 87.0866 107.15 82.0794C108.555 81.4059 110.38 80.353 109.855 78.4766C109.243 76.284 107.141 77.293 105.642 77.8102C100.648 79.5348 95.3326 80.1837 90.2675 81.6987C79.4553 84.932 69.3298 90.5078 60.1702 97.0335C54.8415 100.83 49.7367 105.027 45.1863 109.741C43.5104 111.476 41.2759 113.501 40.84 116.001C40.3 119.095 42.1425 119.41 44.4436 118.223Z" fill="black"/>
<path fill-rule="evenodd" clip-rule="evenodd" d="M75.6697 312.719C75.621 309.984 72.6223 310.979 71.0794 311.346C64.8076 312.841 59.201 313.985 53.6504 317.447C43.3491 323.871 35.5438 333.63 30.4941 344.431C29.8218 345.868 27.1145 350.422 29.2844 351.778C30.7148 352.673 31.5826 350.068 32.1171 349.102C34.8368 344.181 38.4783 339.826 42.1399 335.55C50.2702 326.058 60.0428 320.033 71.7357 315.635C73.1698 315.095 75.7052 314.706 75.6697 312.719Z" fill="black"/>
<path fill-rule="evenodd" clip-rule="evenodd" d="M422.315 245.564C420.145 241.23 416.637 235.883 411.783 234.097C409.097 233.11 407.508 234.744 408.305 237.475C408.939 239.647 411.055 240.708 412.635 242.148C416.701 245.854 419.206 251.388 420.69 256.526C422.26 261.958 422.573 267.853 422.545 273.476C422.53 276.445 421.733 279.025 421.299 281.915C421.129 283.051 420.839 285.555 422.153 286.264C425.067 287.836 426.413 279.629 426.71 278.051C427.807 272.23 427.701 266.869 426.777 261.058C425.933 255.743 424.748 250.425 422.315 245.564Z" fill="black"/>
<path fill-rule="evenodd" clip-rule="evenodd" d="M413.98 37.3044C415.166 35.7173 414.301 33.4955 414.654 31.6861C415.023 29.7895 416.126 27.8708 417.058 26.2118C419.073 22.63 421.32 19.1127 423.714 15.7719C426.186 12.3219 429.202 9.38242 431.83 6.06777C432.719 4.94643 434.294 3.34369 433.91 1.99413C433.288 -0.191053 431.934 0.873957 430.849 1.78973C424.918 6.79713 419.696 12.9712 415.477 19.4559C413.475 22.5336 411.584 25.904 410.921 29.5549C410.579 31.4404 410.576 33.4079 411.139 35.2539C411.493 36.4142 412.556 39.2114 413.98 37.3044Z" fill="black"/>
<path fill-rule="evenodd" clip-rule="evenodd" d="M48.4963 304.406C51.468 304.133 54.4568 304.035 57.4357 303.883C59.6404 303.771 62.1207 303.906 64.1444 302.852C66.181 301.791 65.2959 300.202 63.6025 299.967C62.6292 299.831 60.9864 300.484 59.9431 300.529C58.8134 300.577 57.6778 300.543 56.5475 300.547C53.2431 300.559 49.6824 300.534 46.4967 301.625C45.4564 301.981 43.88 302.53 43.4521 303.712C42.5369 306.238 47.118 304.532 48.4963 304.406Z" fill="black"/>
<path fill-rule="evenodd" clip-rule="evenodd" d="M74.5183 73.2703C78.8344 72.7566 83.0055 71.4724 87.2578 70.6539C91.3001 69.8761 91.9883 66.7113 87.2023 66.8535C85.5953 66.9011 70.1021 69.8195 74.5183 73.2703Z" fill="black"/>
<path fill-rule="evenodd" clip-rule="evenodd" d="M431.14 231.986C428.24 231.265 429.74 234.458 430.638 235.446C432.297 237.271 433.204 238.639 433.697 241.073C433.984 242.49 433.715 245.69 434.926 246.774C436.119 247.841 436.202 247.132 436.413 245.815C437.011 242.103 435.818 233.149 431.14 231.986Z" fill="black"/>
<path fill-rule="evenodd" clip-rule="evenodd" d="M399.309 29.9064C400.13 29.0419 399.249 25.2826 399.346 24.1809C399.465 22.846 399.783 21.7163 400.184 20.4636C400.378 19.8562 401.358 17.7122 400.83 17.0465C400.1 16.1238 398.885 17.6831 398.5 18.2969C397.249 20.2946 396.957 23.6254 397.165 25.8749C397.24 26.6892 397.736 31.5601 399.309 29.9064Z" fill="black"/>
<path fill-rule="evenodd" clip-rule="evenodd" d="M228.588 346.911C228.724 344.782 230.789 343.306 230.795 341.042C230.803 338.498 229.078 337.396 226.931 339.05C225.637 340.047 224.628 342.475 222.877 342.794C219.365 343.433 217.987 337.169 214.527 337.893C211.532 338.521 213.106 343.629 214.009 345.353C214.967 347.18 216.707 348.462 216.141 350.709C215.468 353.378 213.161 354.917 214.058 357.963C215.726 363.623 219.345 358.331 221.522 356.552C223.073 355.284 224.01 355.51 225.516 356.753C227.58 358.456 229.156 359.612 231.658 360.76C233.865 361.771 235.994 362.478 236.062 359.082C236.117 356.412 234.086 353.755 232.303 351.943C230.824 350.439 228.437 349.282 228.588 346.911Z" fill="black"/>
<path fill-rule="evenodd" clip-rule="evenodd" d="M189.922 338.467C187.341 335.734 184.08 342.705 181.993 343.476C178.611 344.727 177.833 338.025 174.719 338.236C172.296 338.4 172.487 341.848 173.015 343.421C173.583 345.114 175.283 346.498 175.568 348.233C176.005 350.892 170.939 356.207 174.474 358.775C177.493 360.968 178.617 353.559 182.39 356.582C184.242 358.065 189.425 363.587 191.993 360.839C195.028 357.592 187.81 352.047 186.493 349.577C184.71 346.232 193.706 342.472 189.922 338.467Z" fill="black"/>
<path fill-rule="evenodd" clip-rule="evenodd" d="M252.469 243.508C251.729 243.184 250.533 243.72 249.731 243.686C248.871 243.65 247.975 243.262 247.127 243.118C245.283 242.805 242.041 243.258 240.732 241.626C239.398 239.961 240.412 236.62 239.842 234.595C239.532 233.494 239.172 232.135 237.679 232.626C235.946 233.196 235.988 236.356 235.781 237.742C235.476 239.787 235.231 241.347 233.16 242.074C231.628 242.612 230.015 242.341 228.776 243.591C227.868 244.508 227.255 246.18 227.966 247.377C229.034 249.175 231.345 248.244 232.948 248.812C235.393 249.679 234.812 253.646 235.313 255.923C235.634 257.387 236.34 261.485 238.456 261.419C241.342 261.33 240.222 255.572 240.062 253.892C239.9 252.187 239.513 250.74 241.43 250.211C243.048 249.763 245.31 250.593 246.981 250.583C249.093 250.57 251.581 250.044 252.855 248.165C253.583 247.091 254.044 244.198 252.469 243.508Z" fill="black"/>
<path fill-rule="evenodd" clip-rule="evenodd" d="M358.52 314.368C363.108 314.761 360.328 320.375 363.372 322.607C366.277 324.736 366.668 318.859 366.667 317.181C366.666 313.116 371.644 314.619 374.676 313.946C377.262 313.372 380.086 310.705 376.997 308.433C374.768 306.793 371.071 307.554 368.483 307.12C364.975 306.531 366.018 304.206 365.94 301.526C365.912 300.544 365.571 297.042 364.293 296.765C361.953 296.26 361.813 302.783 361.656 304.024C360.988 309.277 357.355 306.077 354.468 308.71C350.696 312.152 355.786 314.133 358.52 314.368Z" fill="black"/>
<path fill-rule="evenodd" clip-rule="evenodd" d="M140.29 216.447C133.121 222.28 124.98 221.444 118.419 215.164C115.645 212.509 113.969 209.832 114.217 205.946C114.44 202.449 115.474 198.584 118.294 196.222C120.669 194.232 125.149 193.517 128.156 193.239C132.371 192.85 136.142 195.128 139.058 197.975C141.597 200.454 144.564 203.614 144.956 207.294C145.368 211.167 143.146 214.122 140.29 216.447ZM141.38 193.231C134.949 187.083 123.546 187.7 116.907 193.307C109.456 199.6 108.182 211.424 115.343 218.319C122.89 225.586 132.852 224.802 140.842 218.774C145.127 215.541 147.452 211.393 148.049 206.07C148.612 201.039 144.896 196.593 141.38 193.231Z" fill="black"/>
<path fill-rule="evenodd" clip-rule="evenodd" d="M265.72 87.3976C264.998 89.726 265.499 92.2066 265.626 94.5788C263.588 93.3127 262.319 91.0545 260.13 90.0056C259.08 92.8849 264.311 101.12 267.603 98.4206C270.615 95.9504 268.392 89.0571 265.72 87.3976Z" fill="black"/>
<path fill-rule="evenodd" clip-rule="evenodd" d="M276.416 101.596C274.794 102.197 273.285 102.03 271.685 102.338C270.629 102.54 270.493 101.944 270.356 103.145C270.065 105.706 274.227 106.697 276.101 106.661C278.389 106.617 280.897 105.089 280.676 102.602C280.446 100.011 278.181 100.943 276.416 101.596Z" fill="black"/>
<path fill-rule="evenodd" clip-rule="evenodd" d="M277.746 90.8305C277.01 90.1668 275.314 87.6598 274.068 88.0888C273.114 88.4172 273.788 89.5492 274.068 90.1157C275.116 92.2403 277.173 94.0479 278.816 95.752C277.599 96.181 275.255 96.4571 275.874 98.3164C276.443 100.025 279.022 99.762 280.258 99.0432C284.491 96.5788 279.864 92.7398 277.746 90.8305Z" fill="black"/>
<path fill-rule="evenodd" clip-rule="evenodd" d="M282.019 86.7978C282.309 87.9708 282.465 89.0783 281.826 90.1781L278.3 83.9C275.465 85.0558 280.438 94.1012 283.335 93.0997C285.339 92.4074 284.376 88.1561 284.06 86.8186C283.891 86.1025 283.488 83.8256 282.488 83.5944C280.521 83.1398 281.805 85.9327 282.019 86.7978Z" fill="black"/>
</svg>
