<svg width="126" height="37" viewBox="0 0 126 37" fill="none" xmlns="http://www.w3.org/2000/svg">
<g clip-path="url(#clip0_2_25)">
<path d="M98.0377 23.7077C98.0377 25.3132 99.3804 26.6139 101.038 26.6139C102.695 26.6139 104.038 25.3132 104.038 23.7077C104.038 22.1022 102.695 20.8014 101.038 20.8014C99.3804 20.8014 98.0377 22.1022 98.0377 23.7077ZM100.457 23.1452C100.457 23.3526 100.284 23.5202 100.07 23.5202C99.8558 23.5202 99.6829 23.3526 99.6829 23.1452C99.6829 22.9378 99.8558 22.7702 100.07 22.7702C100.284 22.7702 100.457 22.9378 100.457 23.1452ZM102.374 23.3386C102.195 23.1839 101.816 23.1839 101.636 23.3386L101.522 23.4382C101.421 23.5249 101.26 23.4429 101.282 23.3116C101.33 23.0163 101.696 22.8182 102.007 22.8182C102.318 22.8182 102.683 23.0163 102.731 23.3116C102.752 23.4417 102.593 23.5261 102.492 23.4382L102.374 23.3386ZM99.9466 24.5257C100.218 24.8409 100.614 25.0202 101.038 25.0202C101.461 25.0202 101.858 24.8397 102.129 24.5257C102.293 24.3358 102.59 24.5749 102.426 24.7659C102.082 25.1655 101.576 25.3952 101.038 25.3952C100.499 25.3952 99.9938 25.1655 99.649 24.7647C99.4857 24.5737 99.7845 24.3346 99.9466 24.5257V24.5257Z" fill="#EF4565"/>
</g>
<path d="M5.5052 15.5836H6.4097C6.75171 15.5836 7.03071 15.5386 7.2467 15.4486C7.4627 15.3496 7.6562 15.1966 7.8272 14.9896L13.7132 7.96958C13.9202 7.70858 14.1317 7.52858 14.3477 7.42958C14.5727 7.32158 14.8517 7.26758 15.1847 7.26758H17.8847L10.9322 15.4756C10.7432 15.7096 10.5587 15.9076 10.3787 16.0696C10.2077 16.2226 10.0187 16.3486 9.8117 16.4476C10.0817 16.5466 10.3247 16.6861 10.5407 16.8661C10.7567 17.0371 10.9682 17.2666 11.1752 17.5546L18.3842 26.7076H15.6302C15.4322 26.7076 15.2612 26.6941 15.1172 26.6671C14.9822 26.6401 14.8607 26.5996 14.7527 26.5456C14.6537 26.4916 14.5637 26.4241 14.4827 26.3431C14.4107 26.2621 14.3432 26.1721 14.2802 26.0731L8.2052 18.6481C8.1152 18.5311 8.0252 18.4321 7.9352 18.3511C7.84521 18.2701 7.73721 18.2026 7.61121 18.1486C7.49421 18.0946 7.3592 18.0586 7.2062 18.0406C7.0532 18.0136 6.8732 18.0001 6.6662 18.0001H5.5052V26.7076H2.3462V7.26758H5.5052V15.5836ZM27.5724 20.5516C26.4654 20.5876 25.5204 20.6776 24.7374 20.8216C23.9634 20.9566 23.3289 21.1366 22.8339 21.3616C22.3479 21.5866 21.9924 21.8521 21.7674 22.1581C21.5514 22.4641 21.4434 22.8061 21.4434 23.1841C21.4434 23.5441 21.5019 23.8546 21.6189 24.1156C21.7359 24.3766 21.8934 24.5926 22.0914 24.7636C22.2984 24.9256 22.5369 25.0471 22.8069 25.1281C23.0859 25.2001 23.3829 25.2361 23.6979 25.2361C24.1209 25.2361 24.5079 25.1956 24.8589 25.1146C25.2099 25.0246 25.5384 24.8986 25.8444 24.7366C26.1594 24.5746 26.4564 24.3811 26.7354 24.1561C27.0234 23.9311 27.3024 23.6746 27.5724 23.3866V20.5516ZM19.8099 14.9626C20.5659 14.2336 21.3804 13.6891 22.2534 13.3291C23.1264 12.9691 24.0939 12.7891 25.1559 12.7891C25.9209 12.7891 26.6004 12.9151 27.1944 13.1671C27.7884 13.4191 28.2879 13.7701 28.6929 14.2201C29.0979 14.6701 29.4039 15.2146 29.6109 15.8536C29.8179 16.4926 29.9214 17.1946 29.9214 17.9596V26.7076H28.8549C28.6209 26.7076 28.4409 26.6716 28.3149 26.5996C28.1889 26.5186 28.0899 26.3656 28.0179 26.1406L27.7479 24.8446C27.3879 25.1776 27.0369 25.4746 26.6949 25.7356C26.3529 25.9876 25.9929 26.2036 25.6149 26.3836C25.2369 26.5546 24.8319 26.6851 24.3999 26.7751C23.9769 26.8741 23.5044 26.9236 22.9824 26.9236C22.4514 26.9236 21.9519 26.8516 21.4839 26.7076C21.0159 26.5546 20.6064 26.3296 20.2554 26.0326C19.9134 25.7356 19.6389 25.3621 19.4319 24.9121C19.2339 24.4531 19.1349 23.9131 19.1349 23.2921C19.1349 22.7521 19.2834 22.2346 19.5804 21.7396C19.8774 21.2356 20.3589 20.7901 21.0249 20.4031C21.6909 20.0161 22.5594 19.7011 23.6304 19.4581C24.7014 19.2061 26.0154 19.0621 27.5724 19.0261V17.9596C27.5724 16.8976 27.3429 16.0966 26.8839 15.5566C26.4249 15.0076 25.7544 14.7331 24.8724 14.7331C24.2784 14.7331 23.7789 14.8096 23.3739 14.9626C22.9779 15.1066 22.6314 15.2731 22.3344 15.4621C22.0464 15.6421 21.7944 15.8086 21.5784 15.9616C21.3714 16.1056 21.1644 16.1776 20.9574 16.1776C20.7954 16.1776 20.6559 16.1371 20.5389 16.0561C20.4219 15.9661 20.3229 15.8581 20.2419 15.7321L19.8099 14.9626ZM35.8633 15.7726C36.2953 14.8366 36.8263 14.1076 37.4563 13.5856C38.0863 13.0546 38.8558 12.7891 39.7648 12.7891C40.0528 12.7891 40.3273 12.8206 40.5883 12.8836C40.8583 12.9466 41.0968 13.0456 41.3038 13.1806L41.1283 14.9761C41.0743 15.2011 40.9393 15.3136 40.7233 15.3136C40.5973 15.3136 40.4128 15.2866 40.1698 15.2326C39.9268 15.1786 39.6523 15.1516 39.3463 15.1516C38.9143 15.1516 38.5273 15.2146 38.1853 15.3406C37.8523 15.4666 37.5508 15.6556 37.2808 15.9076C37.0198 16.1506 36.7813 16.4566 36.5653 16.8256C36.3583 17.1856 36.1693 17.5996 35.9983 18.0676V26.7076H33.5818V13.0321H34.9588C35.2198 13.0321 35.3998 13.0816 35.4988 13.1806C35.5978 13.2796 35.6653 13.4506 35.7013 13.6936L35.8633 15.7726ZM48.6276 12.8161C49.6266 12.8161 50.5266 12.9826 51.3276 13.3156C52.1286 13.6486 52.8126 14.1211 53.3796 14.7331C53.9466 15.3451 54.3786 16.0876 54.6756 16.9606C54.9816 17.8246 55.1346 18.7921 55.1346 19.8631C55.1346 20.9431 54.9816 21.9151 54.6756 22.7791C54.3786 23.6431 53.9466 24.3811 53.3796 24.9931C52.8126 25.6051 52.1286 26.0776 51.3276 26.4106C50.5266 26.7346 49.6266 26.8966 48.6276 26.8966C47.6196 26.8966 46.7106 26.7346 45.9006 26.4106C45.0996 26.0776 44.4156 25.6051 43.8486 24.9931C43.2816 24.3811 42.8451 23.6431 42.5391 22.7791C42.2421 21.9151 42.0936 20.9431 42.0936 19.8631C42.0936 18.7921 42.2421 17.8246 42.5391 16.9606C42.8451 16.0876 43.2816 15.3451 43.8486 14.7331C44.4156 14.1211 45.0996 13.6486 45.9006 13.3156C46.7106 12.9826 47.6196 12.8161 48.6276 12.8161ZM48.6276 25.0201C49.9776 25.0201 50.9856 24.5701 51.6516 23.6701C52.3176 22.7611 52.6506 21.4966 52.6506 19.8766C52.6506 18.2476 52.3176 16.9786 51.6516 16.0696C50.9856 15.1606 49.9776 14.7061 48.6276 14.7061C47.9436 14.7061 47.3451 14.8231 46.8321 15.0571C46.3281 15.2911 45.9051 15.6286 45.5631 16.0696C45.2301 16.5106 44.9781 17.0551 44.8071 17.7031C44.6451 18.3421 44.5641 19.0666 44.5641 19.8766C44.5641 21.4966 44.8971 22.7611 45.5631 23.6701C46.2381 24.5701 47.2596 25.0201 48.6276 25.0201ZM60.6664 6.82208V26.7076H58.2634V6.82208H60.6664ZM67.1013 13.0321V26.7076H64.6983V13.0321H67.1013ZM67.6143 8.73908C67.6143 8.97308 67.5648 9.19358 67.4658 9.40058C67.3758 9.59858 67.2498 9.77858 67.0878 9.94058C66.9348 10.0936 66.7503 10.2151 66.5343 10.3051C66.3273 10.3951 66.1068 10.4401 65.8728 10.4401C65.6388 10.4401 65.4183 10.3951 65.2113 10.3051C65.0133 10.2151 64.8378 10.0936 64.6848 9.94058C64.5318 9.77858 64.4103 9.59858 64.3203 9.40058C64.2303 9.19358 64.1853 8.97308 64.1853 8.73908C64.1853 8.50508 64.2303 8.28458 64.3203 8.07758C64.4103 7.86158 64.5318 7.67708 64.6848 7.52408C64.8378 7.36208 65.0133 7.23608 65.2113 7.14608C65.4183 7.05608 65.6388 7.01108 65.8728 7.01108C66.1068 7.01108 66.3273 7.05608 66.5343 7.14608C66.7503 7.23608 66.9348 7.36208 67.0878 7.52408C67.2498 7.67708 67.3758 7.86158 67.4658 8.07758C67.5648 8.28458 67.6143 8.50508 67.6143 8.73908ZM73.3176 15.0166C73.6146 14.6836 73.9296 14.3821 74.2626 14.1121C74.5956 13.8421 74.9466 13.6126 75.3156 13.4236C75.6936 13.2256 76.0896 13.0771 76.5036 12.9781C76.9266 12.8701 77.3811 12.8161 77.8671 12.8161C78.6141 12.8161 79.2711 12.9421 79.8381 13.1941C80.4141 13.4371 80.8911 13.7881 81.2691 14.2471C81.6561 14.6971 81.9486 15.2416 82.1466 15.8806C82.3446 16.5196 82.4436 17.2261 82.4436 18.0001V26.7076H80.0271V18.0001C80.0271 16.9651 79.7886 16.1641 79.3116 15.5971C78.8436 15.0211 78.1281 14.7331 77.1651 14.7331C76.4541 14.7331 75.7881 14.9041 75.1671 15.2461C74.5551 15.5881 73.9881 16.0516 73.4661 16.6366V26.7076H71.0496V13.0321H72.4941C72.8361 13.0321 73.0476 13.1986 73.1286 13.5316L73.3176 15.0166ZM93.5168 20.5516C92.4098 20.5876 91.4648 20.6776 90.6818 20.8216C89.9078 20.9566 89.2733 21.1366 88.7783 21.3616C88.2923 21.5866 87.9368 21.8521 87.7118 22.1581C87.4958 22.4641 87.3878 22.8061 87.3878 23.1841C87.3878 23.5441 87.4463 23.8546 87.5633 24.1156C87.6803 24.3766 87.8378 24.5926 88.0358 24.7636C88.2428 24.9256 88.4813 25.0471 88.7513 25.1281C89.0303 25.2001 89.3273 25.2361 89.6423 25.2361C90.0653 25.2361 90.4523 25.1956 90.8033 25.1146C91.1543 25.0246 91.4828 24.8986 91.7888 24.7366C92.1038 24.5746 92.4008 24.3811 92.6798 24.1561C92.9678 23.9311 93.2468 23.6746 93.5168 23.3866V20.5516ZM85.7543 14.9626C86.5103 14.2336 87.3248 13.6891 88.1978 13.3291C89.0708 12.9691 90.0383 12.7891 91.1003 12.7891C91.8653 12.7891 92.5448 12.9151 93.1388 13.1671C93.7328 13.4191 94.2323 13.7701 94.6373 14.2201C95.0423 14.6701 95.3483 15.2146 95.5553 15.8536C95.7623 16.4926 95.8658 17.1946 95.8658 17.9596V26.7076H94.7993C94.5653 26.7076 94.3853 26.6716 94.2593 26.5996C94.1333 26.5186 94.0343 26.3656 93.9623 26.1406L93.6923 24.8446C93.3323 25.1776 92.9813 25.4746 92.6393 25.7356C92.2973 25.9876 91.9373 26.2036 91.5593 26.3836C91.1813 26.5546 90.7763 26.6851 90.3443 26.7751C89.9213 26.8741 89.4488 26.9236 88.9268 26.9236C88.3958 26.9236 87.8963 26.8516 87.4283 26.7076C86.9603 26.5546 86.5508 26.3296 86.1998 26.0326C85.8578 25.7356 85.5833 25.3621 85.3763 24.9121C85.1783 24.4531 85.0793 23.9131 85.0793 23.2921C85.0793 22.7521 85.2278 22.2346 85.5248 21.7396C85.8218 21.2356 86.3033 20.7901 86.9693 20.4031C87.6353 20.0161 88.5038 19.7011 89.5748 19.4581C90.6458 19.2061 91.9598 19.0621 93.5168 19.0261V17.9596C93.5168 16.8976 93.2873 16.0966 92.8283 15.5566C92.3693 15.0076 91.6988 14.7331 90.8168 14.7331C90.2228 14.7331 89.7233 14.8096 89.3183 14.9626C88.9223 15.1066 88.5758 15.2731 88.2788 15.4621C87.9908 15.6421 87.7388 15.8086 87.5228 15.9616C87.3158 16.1056 87.1088 16.1776 86.9018 16.1776C86.7398 16.1776 86.6003 16.1371 86.4833 16.0561C86.3663 15.9661 86.2673 15.8581 86.1863 15.7321L85.7543 14.9626ZM109.998 15.5836H110.903C111.245 15.5836 111.524 15.5386 111.74 15.4486C111.956 15.3496 112.149 15.1966 112.32 14.9896L118.206 7.96958C118.413 7.70858 118.625 7.52858 118.841 7.42958C119.066 7.32158 119.345 7.26758 119.678 7.26758H122.378L115.425 15.4756C115.236 15.7096 115.052 15.9076 114.872 16.0696C114.701 16.2226 114.512 16.3486 114.305 16.4476C114.575 16.5466 114.818 16.6861 115.034 16.8661C115.25 17.0371 115.461 17.2666 115.668 17.5546L122.877 26.7076H120.123C119.925 26.7076 119.754 26.6941 119.61 26.6671C119.475 26.6401 119.354 26.5996 119.246 26.5456C119.147 26.4916 119.057 26.4241 118.976 26.3431C118.904 26.2621 118.836 26.1721 118.773 26.0731L112.698 18.6481C112.608 18.5311 112.518 18.4321 112.428 18.3511C112.338 18.2701 112.23 18.2026 112.104 18.1486C111.987 18.0946 111.852 18.0586 111.699 18.0406C111.546 18.0136 111.366 18.0001 111.159 18.0001H109.998V26.7076H106.839V7.26758H109.998V15.5836Z" fill="black"/>
<defs>
<clipPath id="clip0_2_25">
<rect width="6" height="6" fill="white" transform="translate(98.0377 20.7076)"/>
</clipPath>
</defs>
</svg>
