<svg width="281" height="216" viewBox="0 0 281 216" fill="none" xmlns="http://www.w3.org/2000/svg">
<path fill-rule="evenodd" clip-rule="evenodd" d="M87.8345 97.9759C88.8557 108.287 89.877 118.598 90.8982 128.909C96.4582 125.737 102.018 122.564 107.578 119.391V142.882V149.056C107.578 149.603 107.254 151.479 107.578 151.953C107.853 152.354 109.891 152.365 110.373 152.433C113.516 152.873 116.667 153.265 119.823 153.613C128.14 154.532 137.042 155.847 145.39 154.792C152.648 153.874 159.683 151.293 166.314 148.29C168.641 147.235 170.937 146.107 173.189 144.901C173.667 144.645 175.401 144.041 175.66 143.521C175.872 143.096 175.375 141.602 175.308 141.155C175.028 139.271 174.748 137.387 174.468 135.503L170.555 109.194L177.947 116.575C178.526 117.153 179.625 118.795 180.427 119.052C181.014 119.239 182.469 118.658 183.05 118.546C187.235 117.739 191.421 116.933 195.607 116.126C196.582 115.938 198.779 115.946 199.602 115.356C200.044 115.039 200.065 114.393 200.221 113.782C201.242 109.782 202.263 105.783 203.284 101.783C203.468 101.063 204.494 98.7918 204.233 98.0664C204.139 97.8063 203.687 97.6285 203.409 97.4589C197.092 93.6007 190.775 89.7422 184.458 85.8837C180.997 83.77 177.536 81.6563 174.076 79.5426C172.626 78.6571 170.846 77.0619 169.203 76.5666C168.183 76.2589 166.7 76.4894 165.645 76.4592C163.5 76.398 161.357 76.3368 159.212 76.2756C158.877 76.2661 157.701 76.0268 157.418 76.2246C157.183 76.3891 157.28 76.6186 157.203 77.0109C157.015 77.9688 157.014 79.0018 156.921 79.9744C156.846 80.7548 156.994 82.1859 156.642 82.8923C156.418 83.3437 156.703 83.1639 156.399 83.3821C156.037 83.6418 154.882 83.5582 154.451 83.6082C152.35 83.8523 150.249 84.0963 148.147 84.3404C145.65 84.6304 143.124 85.1749 140.614 84.9241C136.809 84.5444 132.707 84.5631 128.971 83.7615C128 83.5531 127.65 83.0062 126.901 82.2583C125.439 80.7987 123.992 79.322 122.514 77.8777C121.79 77.1699 122.1 77.2899 121.354 77.5585C120.418 77.8947 119.469 78.7064 118.622 79.2224C115.377 81.1991 112.131 83.1758 108.886 85.1525L89.0743 97.2206C88.661 97.4725 88.2477 97.7241 87.8345 97.9759Z" fill="#FF5678"/>
<path fill-rule="evenodd" clip-rule="evenodd" d="M277.332 99.2577C273.248 114.763 265.034 131.669 248.485 136.611C244.462 137.813 240.548 138.72 236.369 138.262C235.972 138.219 235.639 138.275 235.261 138.282C234.583 138.295 235.168 138.538 234.408 138.304C233.815 138.121 233.261 137.663 232.643 137.461C231.001 136.923 229.25 136.819 227.581 136.385C223.481 135.319 219.255 134.002 215.282 132.53C213.411 131.838 211.691 130.873 209.931 129.945C208.143 129.002 206.247 128.417 204.438 127.552C203.008 126.868 200.559 125.977 199.554 124.695C198.482 123.327 199.965 120.416 200.389 118.962C201.83 114.015 203.546 109.14 204.63 104.094C208.37 108.43 213.562 111.114 218.936 112.846C221.852 113.785 224.852 114.464 227.885 114.889C230.639 115.275 233.61 115.742 236.37 115.194C238.454 114.781 241.07 113.823 242.558 112.232C243.089 111.665 243.727 110.624 243.429 109.799C243.051 108.752 241.951 109.245 241.355 108.463C240.836 107.783 240.917 106.191 240.752 105.362C240.459 103.895 240.058 102.469 239.567 101.057C238.615 98.3151 237.429 95.5675 237.144 92.6502C236.897 90.1192 237.473 87.7259 238.736 85.5297C239.332 84.4915 240.831 81.6672 242.293 81.7844C243.899 81.9131 241.734 88.681 241.663 90.0617C241.382 95.5344 242.116 101.366 244.925 106.163C246 108 247.555 110.138 249.851 110.366C252.283 110.607 254.244 108.693 255.401 106.757C258.226 102.034 256.802 95.5535 255.372 90.6033C253.617 84.5299 249.037 80.3438 246.142 74.8894C250.465 75.3241 252.78 78.0703 254.999 81.5548C257.441 85.3908 259.343 89.9966 260.281 94.46C260.754 96.7151 260.427 98.9797 260.43 101.257C260.431 102.013 260.431 104.805 261.665 104.695C262.983 104.577 263.435 101.429 263.629 100.469C264.073 98.2664 264.554 96.0635 264.94 93.85C265.623 89.9336 265.927 85.9225 266.745 82.0334C266.883 81.3759 267.158 79.5518 268.142 80.0444C268.901 80.4235 268.779 83.2447 268.807 83.9004C268.875 85.5164 268.971 87.1321 268.984 88.7498C269.003 91.1473 268.525 93.6289 268.76 96.0117C268.913 97.5688 269.748 99.289 270.784 97.1893C271.812 95.1069 272.021 92.5099 272.594 90.2705C273.196 87.9194 273.817 85.5335 275.094 83.4453C275.448 82.8659 275.829 81.9462 276.616 82.2187C277.188 82.4169 277.61 83.7727 277.787 84.2513C278.585 86.4137 278.45 88.818 278.399 91.0819C278.338 93.8558 278.04 96.5683 277.332 99.2577ZM197.694 103.281C197.475 103.211 196.548 103.123 196.318 103.103C196.049 103.079 196.355 102.583 195.703 102.724C195.828 103.036 196.052 103.244 196.374 103.349C195.393 103.681 194.67 102.861 193.999 102.756C193.358 102.655 193.33 102.756 192.697 103.433C192.011 102.597 192.14 103.119 191.576 103.119C191.37 103.119 191.361 103.429 191.027 103.392C190.736 103.359 190.705 102.917 190.533 102.865C189.597 102.582 188.634 104.007 187.572 102.771C187.315 104.057 184.368 102.446 183.234 102.672C182.046 102.908 182.559 103.334 181.598 102.606C180.683 101.912 180.938 102.373 179.873 102.941C179.898 102.928 179.273 103.351 179.331 103.357C178.594 103.271 178.636 102.509 177.702 102.55C176.715 102.593 176.293 103.367 175.389 102.414C175.192 103.128 175.152 102.82 174.688 103C174.433 103.061 174.211 102.994 174.019 102.799C173.962 102.996 173.834 103.116 173.637 103.16C173.133 103.205 172.186 103.276 171.727 103.033C171.04 102.668 171.592 102.528 171.115 102.118C170.902 103.249 170.433 103.008 169.445 103.114C168.692 103.194 168.526 102.963 167.806 102.851C167.097 102.74 166.18 103.015 165.489 103.132C165.203 103.181 164.821 103.38 164.53 103.31C164.268 103.247 164.156 103.044 163.999 102.991C163.81 102.927 163.85 102.761 163.522 102.68C163.296 102.625 162.89 102.837 162.664 102.874C161.052 103.136 159.503 103.138 157.965 102.504C158.722 103.835 156.194 103.116 155.743 102.565C155.18 103.448 154.498 102.825 153.363 102.894C152.269 102.96 150.625 103.295 150.181 101.933C150.094 102.21 149.474 103.013 149.227 103.136C148.51 103.491 148.425 102.966 147.758 102.752C146.851 102.46 147.04 103.013 146.478 103.126C145.528 103.316 145.015 102.647 144.176 102.292C144.14 102.844 144.122 103.184 143.644 103.528C143.221 101.988 141.711 103.654 141.97 101.595C141.396 101.969 140.587 102.257 140.424 103.013C141.384 102.749 140.526 103.377 140.486 103.398C140.359 103.464 139.93 102.862 139.83 102.777C139.803 103.061 139.776 103.345 139.749 103.629C139.366 103.438 139.007 103.095 138.696 102.924C138.416 102.769 138.817 102.447 138.344 102.425C138.095 102.413 137.835 102.953 137.573 102.999C137.173 103.069 137.366 102.495 137.198 102.515C136.943 102.544 136.528 102.917 136.335 102.91C135.702 102.886 136.13 102.592 135.648 102.457C134.785 102.215 134.841 102.78 134.221 102.983C132.802 103.449 132.945 101.306 131.502 102.735C131.157 103.077 130.934 103.605 130.462 103.575C129.482 103.514 129.826 102.353 130.025 101.785C130.231 101.886 126.447 103.83 126.477 103.754C126.501 103.287 127.096 102.928 126.564 102.514C126.129 103.447 125.671 103.464 124.668 103.637C124.181 103.722 124.085 103.835 123.563 103.632C123.231 103.503 123.008 102.973 122.677 102.944C122.722 102.948 122.115 103.409 122.023 103.451C121.475 103.698 121.129 103.418 120.597 103.519C120.144 103.606 119.965 103.992 119.514 103.886C118.912 103.745 119.265 103.026 118.437 103.227C118.154 103.295 117.983 103.841 117.537 103.954C116.842 104.13 115.989 103.802 115.254 103.973C114.671 104.109 114.237 104.167 113.727 104.195C113.315 104.218 113.485 103.898 112.726 104.276L112.404 103.465C112.024 103.807 111.644 104.148 111.265 104.49C111.192 104.183 111.147 103.873 111.127 103.559C110.561 104.127 109.847 104.224 109.086 104.275C108.261 104.33 107.647 104.51 106.845 104.661C106.591 104.708 105.937 104.784 105.729 104.695C105.76 104.708 105.339 104.533 105.466 104.567C105.411 104.455 105.36 104.342 105.313 104.227C105.242 103.907 105.012 103.893 104.623 104.185C104.422 104.154 104.031 103.89 103.831 103.955C103.313 104.122 103.384 104.524 102.868 104.465C102.533 104.427 102.363 103.932 102.014 103.899C101.481 103.847 101.019 104.444 100.539 104.574C101.999 104.178 98.6442 104.486 99.6874 104.513C99.0035 104.495 98.2934 104.461 97.6613 104.768C97.3122 104.529 97.7361 104.049 97.3833 103.851C97.0631 103.672 97.0386 104.145 97.0012 104.156C97.203 104.099 97.1022 104.501 96.9001 104.573C96.2707 104.796 95.7672 104.229 95.7345 103.666C95.1997 104.471 95.0496 104.147 94.263 104.197C93.4873 104.246 92.8184 104.653 92.0423 104.645C90.5075 104.631 89.466 104.097 88.9536 102.727C90.5891 102.926 92.2352 101.874 93.8343 102.122C94.36 102.204 94.6883 102.598 95.1486 102.528C95.7161 102.442 96.1122 101.823 96.8396 101.756C98.4441 101.609 100.026 101.753 101.641 101.507C103.571 101.213 105.585 101.039 107.533 101.182C109.039 101.292 110.258 100.717 111.784 100.606C113.758 100.462 115.749 100.437 117.726 100.333C119.758 100.226 121.944 99.9022 123.97 100.006C124.603 100.038 125.147 100.1 125.775 100.063C126.04 100.047 126.292 99.8664 126.57 99.8933C126.933 99.9284 127.089 100.3 127.465 100.287C128.105 100.265 128.788 99.738 129.548 99.7237C130.798 99.7002 132.043 99.7029 133.296 99.6317C134.399 99.569 135.581 99.3115 136.68 99.3255C137.454 99.335 137.646 99.9952 138.097 100.063C138.909 100.186 143.016 97.8488 143.37 99.9461C145.508 98.483 148.376 99.722 150.755 99.4471C153.813 99.0938 156.926 99.4086 160.003 99.2829C163.135 99.1548 166.357 99.2733 169.477 99.5687C170.769 99.691 172.017 99.8058 173.313 99.7315C173.891 99.6985 174.559 99.551 175.136 99.6842C175.276 99.7165 176.348 100.464 176.215 100.486C176.8 99.9604 176.404 99.8834 177.433 99.8565C178.227 99.8357 178.977 100.007 179.766 100.054C181.183 100.138 182.61 99.9413 184.023 99.9846C185.203 100.021 186.357 100.195 187.543 100.203C188.821 100.212 190.331 100.249 191.256 101.279C191.159 100.956 191.061 100.632 190.963 100.309C192.391 100.42 193.801 100.93 195.244 100.691C194.879 101.041 194.508 101.327 194.369 101.839C195.147 101.741 195.674 101.198 196.493 101.193C197.181 101.189 197.324 101.534 198.05 101.088C198.14 101.635 198.229 102.181 198.319 102.727C199.325 102.49 198.665 101.74 198.738 101.064C199.556 101.31 200.248 101.028 199.926 102.204C199.677 103.111 198.545 103.558 197.694 103.281ZM196.28 113.382C195.929 114.368 192.895 113.805 192.177 113.701C191.25 113.566 190.19 113.354 189.336 113.248C189.234 113.111 189.111 112.995 188.968 112.9C188.86 113.05 188.725 113.156 188.56 113.218C188.168 113.304 188.167 113.709 187.652 113.619C187.628 114.218 188.044 113.878 188.363 114.095C187.56 114.633 187.927 114.014 187.476 114.024C187.365 113.865 187.209 113.803 187.01 113.837C186.756 113.903 186.522 114.012 186.308 114.163C186.107 114.375 185.935 114.386 185.792 114.196C185.655 114.058 185.488 113.973 185.29 113.941C184.499 114.07 184.278 114.42 183.387 114.363C182.114 114.281 180.737 114.617 179.485 114.44C178.708 114.33 177.411 113.111 177.058 114.3C176.521 113.418 175.666 112.818 175.153 111.918C177.547 111.779 179.94 111.615 182.336 111.528C184.434 111.452 186.729 111.688 188.689 111.59C190.526 111.497 192.471 111.294 194.346 111.126C196.333 110.949 196.991 111.385 196.28 113.382ZM133.823 113.528C134.692 113.768 135.52 113.223 136.363 113.395C136.642 113.452 137.219 113.96 137.346 113.97C137.578 113.988 138.26 113.49 138.553 113.423C140.405 113.002 142.648 113.047 144.499 113.306C145.481 113.443 145.631 112.994 146.487 112.776C147.377 112.549 148.642 112.724 149.58 112.661C151.784 112.513 153.988 112.618 156.178 112.457C158.426 112.292 160.663 112.202 162.913 112.086C164.445 112.008 168.127 111.134 169.397 112.271C170.444 113.209 169.095 114.837 168.047 115.209C167.264 115.486 166.889 114.901 166.307 114.957C165.645 115.021 165.876 115.803 165.285 115.078C164.919 115.799 162.617 115.491 161.957 115.539C160.52 115.643 159.303 115.931 158.325 114.59C158.391 114.977 158.457 115.364 158.524 115.751C157.226 115.057 155.834 115.279 154.707 115.521C154.149 115.641 152.437 116.468 151.833 116.111C151.417 115.866 152.15 115.446 151.449 115.237C151.081 115.127 150.446 115.737 149.997 115.707C148.754 115.621 149.107 114.785 147.886 115.849C147.472 115.491 147.334 114.883 147.389 114.362C146.502 115.118 146.576 116.379 144.99 116.148C144.399 116.063 144.291 115.46 143.982 115.349C143.326 115.112 143.252 115.538 142.683 115.875C142.468 116.002 142.207 116.207 141.954 116.232C141.435 116.284 141.352 116.046 141.281 116.053C140.936 116.092 140.501 116.267 140.091 116.142C139.723 116.029 139.616 115.38 138.967 115.532C138.347 115.677 138.342 116.098 138.455 116.729C137.843 116.666 137.473 116.325 137.015 115.956C136.553 117.033 135.581 116.141 135.043 117.05C134.342 116.214 133.893 116.444 133.024 115.627C133.066 115.968 133.109 116.309 133.151 116.65C132.473 116.519 132.171 116.04 131.592 116.673C131.031 115.627 129.328 117.118 128.453 116.107C128.063 117.387 125.483 117.081 124.393 117.103C123.428 117.123 122.713 117.044 121.769 117.268C120.935 117.466 119.78 117.672 118.996 117.581C118.483 117.522 117.923 117.428 117.285 117.497C116.365 117.597 115.57 118.073 114.616 117.848C113.181 117.509 112.301 115.624 113.9 114.795C114.994 114.229 116.965 114.438 118.169 114.334C120.165 114.16 122.401 113.797 124.399 113.962C125.958 114.091 127.378 113.719 128.969 113.562C130.166 113.444 132.128 113.231 132.909 114.418C133.209 114.071 133.178 113.349 133.823 113.528ZM111.978 129.77C111.764 128.703 120.887 128.115 121.792 128.045C123.694 127.899 125.6 127.794 127.506 127.746C129.072 127.706 130.534 128.005 132.101 127.764C133.564 127.54 135.33 127.08 136.604 128.116C136.791 126.699 142.283 127.389 143.328 127.393C147.875 127.409 152.227 127.42 156.627 127.138C159.141 126.978 161.81 126.761 164.325 126.887C165.459 126.943 166.372 127.246 167.5 126.983C168.236 126.812 169.029 126.456 169.732 126.959C170.555 127.549 170.907 129.549 170.34 130.384C169.927 130.992 169.561 130.925 168.901 130.82C167.887 130.658 167.133 130.423 166.098 130.836C166.266 130.769 165.405 130.961 165.476 130.956C164.304 131.043 162.697 131.862 161.687 130.918C162.092 130.989 162.68 130.267 162.17 130.207C161.787 130.163 161.544 130.573 161.245 130.711C160.222 131.181 159.699 131.034 159.088 130.047C157.857 131.113 157.724 130.818 157.184 129.506C156.767 129.826 156.678 130.585 156.35 130.833C156.302 130.87 156.503 131.331 156.267 131.312C156.047 131.294 155.975 130.934 155.807 130.906C155.699 130.888 155.643 130.572 155.54 130.553C155.428 130.532 155.313 130.734 155.186 130.728C154.848 130.712 153.88 131.432 154.227 130.421C153.714 131.074 153.494 130.658 153.309 130.064C152.717 130.514 152.125 130.964 151.533 131.414C151.257 130.649 150.784 130.857 150.188 131.125C150.367 130.593 150.255 130.09 149.804 130.46C149.543 130.674 149.368 131.353 149.101 131.642C148.02 130.547 147.627 130.847 146.134 130.99C145.564 131.044 144.856 131.149 144.347 130.805C143.899 130.502 143.646 129.392 142.88 130.289C143.051 130.089 142.784 131.622 142.737 131.865C142.399 131.638 142.112 131.358 141.876 131.026C141.435 131.898 140.279 131.116 139.331 131.294C137.84 131.575 136.301 132.047 134.983 130.937C134.89 131.295 133.81 131.752 133.809 131.766C133.873 131.131 134.273 131.354 133.455 131.234C133.305 131.211 133.134 131.482 132.992 131.512C132.504 131.613 131.935 131.517 131.443 131.503C129.399 131.444 127.528 131.897 125.509 132.061C124.829 132.116 124.022 132.225 123.383 131.969C122.725 131.704 122.743 131.404 122.077 131.574C122.288 131.52 121.661 132.179 121.695 132.154C121.606 132.219 121.232 131.898 121.099 131.922C121.061 132.062 121.022 132.203 120.983 132.343C120.823 132.323 120.662 132.304 120.502 132.284C120.063 132.343 119.667 131.898 119.255 131.883C119.33 131.886 118.142 132.329 118.196 132.356C117.366 131.942 117.604 132.062 116.551 132.314C115.556 132.552 114.565 132.496 113.544 132.645C110.575 133.076 112.344 131.588 111.978 129.77ZM109.355 144.618C108.797 143.826 110.283 143.552 110.758 143.482C111.538 143.367 112.573 143.596 113.094 143.472C113.886 143.283 114.65 142.834 115.542 142.712C116.667 142.558 117.801 142.533 118.931 142.437C119.308 142.404 119.774 142.275 120.14 142.297C120.685 142.329 120.912 142.618 121.352 142.62C122.102 142.624 123.027 142.15 123.796 142.063C124.78 141.952 125.774 141.899 126.764 141.85C128.847 141.747 130.91 141.79 132.993 141.787C133.943 141.786 136.473 140.8 136.946 141.906C137.605 141.068 139.294 141.182 140.236 141.158C141.895 141.115 143.536 140.955 145.194 140.878C146.613 140.812 148.199 141.116 149.592 140.903C150.36 140.786 150.615 140.54 151.486 140.651C152.133 140.733 153.119 140.391 153.675 140.542C153.646 140.534 154.368 140.982 154.143 140.996C154.391 140.98 154.376 141.153 154.65 141.076C155.009 140.975 154.844 140.523 155.588 140.363C156.749 140.112 158.298 140.402 159.504 140.338C160.675 140.276 161.843 140.249 163.015 140.254C163.554 140.257 164.221 140.128 164.746 140.233C165.003 140.284 165.549 140.62 165.767 140.586C166.385 140.49 166.699 140.061 167.534 140.088C168.48 140.118 169.331 140.105 170.272 140.032C171.183 139.963 171.329 139.833 171.781 140.591C172.228 141.342 172.352 142.321 171.528 142.832C172.063 142.797 172.721 143.514 172.091 143.91C171.701 144.156 170.92 143.602 170.453 143.642C169.879 143.692 169.428 143.995 168.802 144.014C168.145 144.034 167.477 144.2 166.829 144.212C166.153 144.226 165.642 143.924 165.002 144.052C164.438 144.166 164.379 144.628 163.7 144.222C163.363 144.02 163.305 143.273 162.845 143.266C162.229 143.256 162.475 144.053 162.12 144.422C162.025 143.283 161.145 145.168 160.795 143.785C160.473 144.244 159.28 144.887 158.702 144.518C158.175 144.181 158.35 143.42 158.13 142.872C157.765 143.857 156.784 144.88 156.873 143.086C156.397 143.672 155.11 143.579 155.432 144.606C155.044 144.598 154.952 144.044 154.626 144.002C154.344 143.966 154.12 144.183 154.077 144.179C154.231 144.192 153.615 144.397 153.606 144.399C154.023 144.315 152.402 144.17 152.678 144.173C152.302 144.169 151.842 144.477 151.402 144.476C151.002 144.475 150.603 144.318 150.208 144.273C149.183 144.156 149.396 144.381 148.753 144.703C148.514 144.822 148.455 145.024 148.116 144.999C147.866 144.98 147.773 144.654 147.744 144.651C147.393 144.616 147.653 144.498 147.107 144.552C147.045 144.66 146.982 144.767 146.92 144.875C146.723 145.127 146.467 145.19 146.154 145.064C145.346 145.237 142.67 145.988 142.932 144.598C142.522 144.799 142.112 144.999 141.701 145.2C141.525 144.08 139.297 145.565 138.799 145.64C138.16 145.736 138.102 145.491 137.498 145.36C137.389 145.337 137.171 145.696 136.915 145.644C136.253 145.511 136.135 145.445 136.021 144.726C135.549 145.609 135.156 145.214 134.3 145.359C134.11 145.391 133.989 145.764 133.717 145.7C133.521 145.654 133.516 145.295 133.38 145.249C133.259 145.207 133.277 144.924 133.098 144.884C132.892 144.838 132.191 145.412 131.99 145.501C131.537 145.701 130.792 146.032 130.349 145.933C129.802 145.81 130.045 145.405 129.272 145.45C128.052 145.522 127.543 146.56 126.784 144.924C126.441 145.579 126.485 145.757 125.935 145.974C125.528 146.133 124.498 145.966 123.963 145.947C121.677 145.862 119.429 146.641 117.161 146.437C116.165 146.348 115.325 146.148 114.319 146.311C113.262 146.483 112.228 146.735 111.156 146.836C110.611 146.888 109.472 147.045 109.205 146.348C108.969 145.734 109.847 145.316 109.355 144.618ZM113.839 169.772C110.874 171.756 108.418 174.465 105.695 176.759C102.965 179.059 100.799 181.616 98.3434 184.163C96.0734 186.517 93.9881 188.744 91.2438 190.523C89.5072 191.649 87.9581 193.035 86.1743 194.097C84.8382 194.892 82.8141 195.938 83.466 193.506C84.1342 191.013 85.3676 188.494 86.4386 186.167C87.9612 182.858 89.4956 179.58 91.143 176.334C91.7623 175.115 92.1086 173.901 93.0905 172.929C94.1589 171.872 94.9071 170.491 96.0771 169.492C100.999 165.29 108.416 168.537 113.839 169.772ZM123.142 171.197C121.797 171.902 120.291 172.077 118.866 172.543C117.651 172.94 116.521 173.647 115.215 173.699C116.404 172.806 117.426 171.593 118.767 170.915C120.275 170.152 121.644 170.707 123.142 171.197ZM182.186 177.073C177.238 175.404 172.631 172.944 167.811 170.964C166.98 170.622 160.473 168.479 160.605 167.459C165.165 166.624 169.86 165.191 174.431 166.753C178.588 168.175 181.97 171.586 185.189 174.44C186.029 175.184 191.222 178.576 190.758 179.656C190.436 180.405 187.933 180.2 187.342 180.047C186.579 179.849 186.139 179.385 185.54 178.876C184.539 178.025 183.432 177.494 182.186 177.073ZM173.051 149.18C173.803 148.489 174.253 147.439 174.971 146.801C175.893 145.981 177.382 146.38 178.39 146.806C181.415 148.085 184.002 150.234 187.009 151.568C190.341 153.047 193.226 155.022 196.231 157.058C198.979 158.919 201.949 160.46 204.753 162.236C207.611 164.046 210.81 165.223 213.707 166.969C216.655 168.746 219.591 170.53 222.425 172.488C227.476 175.98 232.736 179.566 236.474 184.53C238.395 187.082 240.193 189.977 241.603 192.842C242.884 195.447 244.274 199.063 242.613 201.773C241.019 204.375 238.301 206.425 236 208.366C235.129 209.102 234.3 209.995 233.171 210.314C231.797 210.701 230.194 210.594 228.781 210.708C221.228 211.321 214.192 210.743 206.748 209.392C199.571 208.09 192.363 207.36 185.131 206.455C181.051 205.944 176.972 205.349 172.947 204.499C171.226 204.135 169.476 203.716 167.792 203.221C166.322 202.788 165.086 201.836 163.574 201.458C157.159 199.856 149.818 199.244 143.467 196.549C149.087 194.213 155.061 192.802 160.821 190.861C166.884 188.818 172.805 187.104 179.196 186.524C182.484 186.225 185.427 185.385 188.591 184.506C191.605 183.669 194.752 183.412 197.849 183.037C199.226 182.87 203.155 183.12 203.612 181.32C204.291 178.64 200.43 178.331 198.784 178.571C196.449 178.911 194.524 179.494 192.737 177.578C190.912 175.622 189.139 173.619 187.281 171.688C183.837 168.107 180.287 163.965 175.417 162.358C169.477 160.398 162.589 162.259 156.662 163.373C150.402 164.551 144.152 165.678 138.009 167.389C135.465 168.098 132.184 169.659 129.544 169.408C126.942 169.16 123.995 168.735 121.48 167.984C120.343 167.645 119.407 167.016 118.389 166.429C117.066 165.666 115.615 165.177 114.21 164.584C111.369 163.385 108.6 162.281 105.535 161.809C102.954 161.413 100.213 161.177 97.7116 162.082C95.2578 162.97 93.0834 164.777 91.3713 166.708C89.5116 168.806 87.9744 171.156 86.4502 173.5C85.7183 174.625 84.8252 175.606 84.0672 176.706C83.431 177.63 83.0594 178.656 82.3861 179.553C80.8792 181.561 79.8561 184.13 78.9429 186.466C77.9283 189.061 76.8011 192.147 77.0434 194.969C77.1349 196.036 77.2305 197.449 77.6432 198.438C78.1682 199.697 78.9167 199.665 79.9956 200.139C81.8492 200.954 82.3691 203.208 84.7643 202.769C87.0112 202.357 88.9598 200.505 90.599 199.029C92.7357 197.107 94.7805 195.079 96.825 193.058C98.9228 190.985 100.99 188.685 102.659 186.246C103.316 185.286 103.828 184.201 104.605 183.326C105.593 182.213 106.704 182.079 108.047 181.635C119.788 177.756 131.586 174.014 143.693 171.453C146.594 170.839 149.518 170.047 152.368 169.23C155.39 168.364 156.955 169.28 159.45 170.928C164.661 174.374 170.82 176.801 176.623 179.049C178.45 179.757 181.358 179.801 182.787 181.197C174.321 182.488 166.253 184.971 158.087 187.444C154.061 188.663 149.989 189.72 145.947 190.885C141.905 192.052 138.016 193.563 134.029 194.878C130.06 196.186 125.867 196.72 121.86 197.927C117.77 199.159 113.697 200.006 109.499 200.755C105.26 201.512 101.05 202.384 96.7967 203.062C94.8492 203.372 92.9021 203.693 90.976 204.12C89.0914 204.537 87.2708 205.537 85.3768 205.768C76.9185 206.803 68.6263 209.109 60.2011 210.412C53.9102 211.386 42.9658 212.743 38.8864 206.432C34.7842 200.084 39.817 192.681 44.3074 188.142C47.098 185.322 50.2339 182.839 53.524 180.631C57.0451 178.268 60.4328 175.715 63.9546 173.355C71.9246 168.015 80.5669 163.659 89.1295 159.368C93.2396 157.308 97.2104 155.099 101.209 152.838C103.193 151.716 104.291 153.527 105.86 154.757C107.093 155.725 109.359 158.111 111.085 157.008C111.151 157.405 111.218 157.802 111.284 158.2C111.79 157.969 112.296 157.739 112.801 157.508C113.141 158.399 113.101 158.952 114.05 159.42C114.632 159.708 115.876 160.053 116.431 159.547C116.545 159.899 116.658 160.251 116.771 160.602C117.257 160.565 117.351 159.176 117.442 158.851C118.274 160.066 119.425 161.082 120.888 161.425C120.895 161.346 120.65 160.347 120.661 160.341C121.123 160.058 121.707 161.271 121.953 161.531C122.766 162.392 123.251 162.258 124.15 161.563C124.215 161.634 124.519 162.428 124.564 162.414C124.758 162.352 125.127 161.649 125.168 161.585C125.112 162.51 126.898 162.696 127.528 162.497C127.387 162.226 127.245 161.956 127.104 161.684C129.301 161.391 130.164 163.725 132.272 163.607C133.831 163.519 132.581 163.178 133.463 162.51C134.234 161.927 134.371 163.203 134.447 163.162C134.594 163.008 134.708 162.832 134.789 162.632C135.074 163.724 137.345 164.705 137.11 162.908C138.004 163.265 138.638 163.858 139.626 163.984C140.828 164.136 142.112 163.881 143.311 163.781C145.894 163.566 148.329 163.039 150.658 161.856C152.038 161.154 153.508 160.518 154.805 159.671C155.891 158.963 157.952 156.812 159.398 157.738C159.028 156.646 160.771 157.658 160.826 156.251C161.106 156.462 161.386 156.673 161.666 156.884C161.835 156.516 161.788 155.936 162.013 155.615C162.321 155.174 162.472 155.434 162.736 155.186C163.03 154.908 163.287 154.165 163.641 153.954C164.005 153.736 164.433 153.996 164.825 153.806C165.421 153.516 167.986 150.687 167.552 153.111C168.655 152.736 167.805 152.393 167.942 151.658C168.219 150.185 168.893 151.245 169.564 151.374C170.662 151.584 170.64 150.676 171.253 150.016C171.812 149.413 172.864 149.143 172.502 148.096C172.915 148.319 173.003 148.756 173.051 149.18ZM106.824 117.719C105.959 118.683 105.311 118.271 104.349 118.129C104.245 117.784 104.07 117.737 103.821 117.986C103.536 118.15 103.229 118.258 102.901 118.309C102.112 118.504 101.292 118.421 100.52 118.716C100.542 118.457 100.814 117.998 100.64 117.735C99.8282 118.296 99.325 118.654 98.3281 118.664C97.5204 118.673 96.1026 118.056 95.432 118.793C95.4113 118.506 95.3905 118.219 95.3701 117.932C95.0418 118.096 94.756 118.315 94.5127 118.589C94.4668 118.164 94.4413 117.842 94.1599 117.498C93.6264 118.596 93.0419 118.622 92.0052 118.202C92.1505 118.261 90.9675 117.568 91.0127 117.76C90.6388 116.184 96.5426 116.314 97.1625 116.252C98.7102 116.095 100.258 116.005 101.808 115.862C103.278 115.727 104.375 115.498 105.393 116.724C104.94 114.952 109.229 115.04 106.824 117.719ZM39.1348 90.2429C39.2974 92.9214 39.8935 95.7685 38.8521 98.3465C38.0148 100.419 36.3445 102.759 34.5454 104.111C30.8613 106.88 27.7387 103.492 27.2259 99.7683C26.6914 95.8846 27.7509 91.1391 31.0951 88.7444C33.0933 87.3137 35.0282 87.4128 37.3288 87.8832C37.8691 87.9939 38.7463 87.9514 39.0552 88.4882C39.1277 88.6139 39.0627 90.2405 39.1348 90.2429ZM88.0646 125.93C87.4284 126.251 86.7625 126.439 86.2015 126.876C86.0065 127.028 85.9402 127.374 85.7333 127.501C85.357 127.734 84.8191 127.58 84.4268 127.772C83.7777 128.089 83.3122 128.543 82.5406 128.835C81.3946 129.27 80.3899 129.865 79.307 130.43C77.5024 131.371 75.5658 132.178 73.6792 132.945C72.7268 133.331 70.0931 134.085 70.1843 135.479C69.9713 135.537 69.7535 135.071 69.3088 135.108C68.6981 135.158 67.8914 135.865 67.2576 136.038C66.0719 136.363 65.1539 136.392 65.1539 137.903C64.7766 137.647 64.6806 137.019 64.1784 136.936C63.6133 136.843 63.3755 137.452 62.9233 137.642C62.3909 137.866 61.7288 137.651 61.2014 137.889C60.9707 138.133 60.7145 138.346 60.4325 138.527C60.1456 138.56 59.8602 138.552 59.5761 138.501C58.4567 138.738 57.4265 139.159 56.3044 139.378C55.2109 139.592 54.462 139.669 54.9217 140.962C53.752 141.191 53.4662 139.95 52.1464 140.404C50.5286 140.96 49.0166 141.361 47.3277 141.701C46.4665 141.874 45.5666 142.26 44.699 142.35C44.0801 142.415 43.5024 142.194 42.893 142.263C42.1585 142.345 41.5682 142.685 40.8081 142.698C40.0871 142.711 39.3301 142.581 38.6221 142.454C38.7221 142.739 38.8473 143.013 38.9977 143.275C38.5081 143.172 38.2822 142.583 37.8671 142.496C37.4316 142.405 37.0413 142.854 36.6787 142.755C36.5242 142.712 36.6269 142.236 36.3507 142.145C36.0989 142.063 35.9927 142.16 35.743 142.121C35.6597 142.108 34.6151 142.051 34.4488 142.139C34.1579 142.294 34.4522 142.582 34.3943 142.625C33.4121 143.352 33.4002 142.96 32.9623 142.201C32.3192 141.086 31.5438 141.789 30.3751 141.594C29.0727 141.377 28.0466 141.952 26.7646 141.87C25.3818 141.782 23.7569 140.747 22.5344 140.143C19.8945 138.838 17.3203 137.603 15.1034 135.627C10.7695 131.764 7.24361 127.014 5.16478 121.575C2.93114 115.732 2.50789 109.638 2.68719 103.44C2.79504 99.7117 3.09343 95.9861 3.68102 92.3017C4.08555 89.7673 4.17027 85.2637 7.02756 84.1096C7.51886 90.0436 5.96875 96.0904 6.94625 101.986C7.24055 103.762 7.95844 106.128 9.317 107.443C11.3285 109.39 11.799 106.576 11.981 105.021C12.3196 102.134 12.9487 99.2628 13.394 96.3895C13.8391 93.5171 14.1534 90.6128 14.7723 87.7708C14.9979 86.7346 16.8175 79.1461 18.1529 79.5055C17.8827 85.0259 17.1652 90.4514 17.1369 95.9923C17.1257 98.2146 16.9267 100.562 17.2475 102.77C17.4125 103.906 18.4472 107.24 20.2266 106.962C21.8734 106.704 20.063 104.356 19.9092 103.451C19.5019 101.054 20.0211 98.0712 20.4008 95.6918C21.1194 91.1892 22.7226 86.5776 25.3431 82.8148C27.69 79.4455 31.3036 76.238 35.6569 76.8321C37.517 77.0862 38.9681 77.5481 39.9027 79.2466C40.6359 80.5795 43.5245 82.094 41.8506 83.7628C40.3266 85.2821 37.862 84.066 36.168 83.7039C34.0939 83.2604 31.8711 83.7938 30.1366 85.0092C27.1606 87.094 25.4645 90.8213 24.911 94.317C24.1648 99.0305 26.1593 111.368 33.5053 108.603C38.3853 106.766 42.0608 100.158 41.6512 95.0991C41.4868 93.074 40.6951 89.2295 43.497 88.6827C47.0864 87.9824 47.5934 91.9393 47.23 94.5105C46.7016 98.2507 44.7249 101.729 42.4633 104.686C40.4923 107.263 38.1998 108.875 35.8281 111.003C35.1258 111.634 33.3348 113.05 33.6356 114.222C33.9653 115.507 36.78 115.872 37.9072 116.083C43.483 117.127 49.7709 116.167 55.3371 115.438C66.7775 113.94 78.0675 110.25 87.4484 103.466C87.8275 107.664 88.3051 111.847 88.481 116.06C88.5664 118.105 88.5882 120.179 88.822 122.213C88.9659 123.464 89.4861 125.212 88.0646 125.93ZM56.3425 140.556C55.8934 140.79 56.3789 139.369 56.254 139.84C56.925 140.08 56.9546 140.319 56.3425 140.556ZM103.8 89.7585C104.514 88.9726 106.461 87.1032 107.08 88.8772C107.31 88.121 107.34 87.001 108.228 88.0222C108.581 86.7676 112.481 86.8852 113.447 86.8296C116.54 86.6528 119.646 86.5581 122.728 86.2509C129.061 85.6197 135.506 85.9453 141.862 85.9245C143.239 85.9201 144.612 85.8455 145.978 86.0451C147.297 86.2379 148.682 86.7785 150.026 86.581C151.221 86.4052 152.005 86.0758 153.235 86.2168C154.707 86.3854 156.135 86.5053 157.62 86.4999C164.188 86.476 170.752 86.7421 177.321 86.7523C178.601 86.7543 180.135 86.5043 181.336 87.048C181.781 87.2496 182.267 87.9204 182.607 87.994C182.996 88.0781 182.765 87.4704 183.286 87.7449C183.985 88.1122 183.444 89.2417 182.983 89.4209C183.259 89.3136 182.484 89.208 182.562 89.2039C182.194 89.2237 181.88 89.5057 181.485 89.488C180.884 89.4618 180.38 89.0949 179.895 88.772C179.887 88.9038 180.153 89.783 179.849 89.8273C179.588 89.8658 179.342 88.9988 179.316 88.7972C177.847 90.0933 176.29 89.3708 174.466 89.535C173.173 89.6515 170.476 90.5144 169.574 89.1641C169.536 89.4512 169.421 89.7026 169.228 89.9182C168.97 90.311 168.747 90.2776 168.559 89.8171C168.495 89.8201 167.867 89.9567 167.855 89.9557C167.412 89.9206 166.839 89.7619 166.389 89.7234C165.693 89.6641 165.821 90.1707 165.267 90.1788C164.964 90.1833 164.192 89.7459 163.664 89.7186C162.749 89.6709 161.815 90.0589 160.913 89.9414C160.291 89.8607 159.73 89.3552 159.121 89.3354C158.361 89.3102 158.115 89.8893 157.513 89.0758C157.39 89.0425 157.314 89.5211 157.265 89.5292C157.276 89.5272 156.692 89.6137 156.623 89.6406C156.503 89.6866 156.036 89.9005 155.893 89.9029C155.586 89.9087 155.419 89.6887 155.094 89.6835C154.555 89.6743 152.836 90.1485 152.884 89.1521C150.962 89.8644 149.321 89.5868 147.348 89.7551C146.443 89.8327 145.875 89.7115 145.013 89.5452C143.935 89.3371 143.219 89.5987 142.143 89.6515C141.109 89.7023 140.783 89.2649 139.911 88.8701C139.567 88.7144 139.339 88.509 138.917 88.5955C138.677 88.6449 138.848 89.0503 138.777 89.0779C138.406 89.221 138.147 89.0694 137.638 89.1041C136.7 89.1681 136.326 89.9527 135.361 89.2162C135.682 89.1773 136.003 89.1378 136.323 89.099C135.401 88.7079 134.183 88.5083 134.407 89.9326C133.62 89.8222 134.301 89.2864 133.914 89.0946C133.527 88.9031 133.094 89.2237 132.607 89.3821C131.32 89.7994 130.248 89.5922 128.906 89.5173C127.382 89.4321 123.816 90.6758 122.724 89.0612C122.692 89.4015 122.326 90.3495 121.84 90.3049C121.681 90.2902 122.123 89.284 122.173 89.1774C121.923 89.7105 120.781 89.8116 120.217 90.0882C120.281 89.8017 120.344 89.5153 120.407 89.2291C119.884 89.7857 119.63 89.4461 119.015 89.6321C118.746 89.7135 118.357 90.2681 118.127 90.3015C117.859 89.9908 117.522 89.8573 117.117 89.9005C116.847 89.8331 116.577 89.8198 116.307 89.861C115.228 89.9394 114.244 90.5392 113.17 90.1308C112.24 89.7765 111.881 88.866 111.326 90.3148C111.18 90.0572 111.035 89.7997 110.889 89.5422C110.709 89.8218 110.529 90.1012 110.349 90.3805C109.646 89.92 109.603 89.6532 108.793 89.8225C108.604 89.8981 108.409 89.8876 108.209 89.7905C108.162 89.9326 108.114 90.0743 108.066 90.216C108.047 90.5726 107.941 90.6905 107.749 90.5692C107.587 90.511 107.441 90.4227 107.31 90.3042C106.775 90.3451 106.091 90.4861 105.516 90.4081C105.294 90.3785 103.904 89.6444 103.8 89.7585ZM120.186 80.169C120.249 80.2658 120.312 80.3625 120.375 80.4593C119.506 80.9184 119.302 80.6548 119.212 79.733C119.636 79.7412 119.709 80.4882 120.186 80.169ZM120.725 79.6281C121.143 79.8127 121.623 80.1755 122.018 79.6894C122.283 80.461 120.312 81.5139 120.725 79.6281ZM123.428 79.9687C124.307 80.5628 122.199 80.0852 122.202 80.0863C122.581 79.7364 122.99 79.6972 123.428 79.9687ZM130.987 76.6567C131.289 78.1773 132.12 78.134 133.462 77.4272C135.418 76.3961 135.749 74.7075 135.885 72.6912C136.016 70.7581 136.253 70.0097 138.246 70.4133C139.638 70.695 140.815 70.4583 142.217 70.4195C143.714 70.3782 144.242 70.6068 144.362 72.1472C144.483 73.6896 144.757 74.8608 145.877 76.0346C147.015 77.2279 148.532 77.9405 150.011 78.6082C150.771 78.9512 151.485 79.3205 152.327 79.3947C152.653 79.4237 154.349 79.2091 154.385 79.746C154.411 80.1496 152.062 81.288 151.812 81.4236C150.723 82.0163 149.636 82.5481 148.445 82.9071C145.707 83.7335 142.803 83.7822 139.966 83.7322C135.393 83.6518 129.072 81.7172 126.337 77.6595C127.887 77.3253 129.437 76.9908 130.987 76.6567ZM130.577 63.487C129.853 62.8797 129.385 61.9623 128.784 61.2432C128.48 60.8804 128.258 60.7649 127.97 60.5834C127.666 60.3923 127.495 60.6628 127.241 60.2134C126.586 59.0522 128.607 57.4181 126.464 56.9712C125.739 56.8196 123.993 57.3943 123.782 56.3553C123.482 54.8861 126.287 54.7901 126.946 54.0444C128.258 52.5619 127.368 50.0486 128.167 48.3383C128.923 46.7182 130.876 46.4303 132.417 45.9435C134.564 45.2657 136.737 44.8726 138.917 44.3299C140.442 43.9508 142.974 42.4271 144.388 43.7733C142.206 44.2577 143.475 45.018 144.929 45.4472C146.576 45.9337 148.321 46.1234 150.028 46.259C151.785 46.3983 153.575 46.4249 155.311 46.0747C156.916 45.7507 158.71 44.3555 160.393 44.7128C159.459 46.3366 156.677 47.2237 154.986 47.6491C154.125 47.8658 153.573 47.798 153.689 48.8721C153.801 49.9131 154.706 50.9568 154.91 52.0411C155.18 53.4762 154.944 54.7948 154.433 56.1445C153.931 57.4723 153.814 57.6457 154.253 58.9146C154.937 60.8903 153.466 63.0738 152.107 64.5086C146.61 70.3098 136.089 68.1123 130.577 63.487ZM144.546 28.8156C144.568 28.8749 144.549 28.8524 144.546 28.8156V28.8156ZM146.258 43.4558C146.03 43.6261 144.717 43.9831 144.772 43.4701C144.845 42.7827 146.028 43.031 146.258 43.4558ZM149.25 29.5695C148.942 29.3399 148.079 29.4343 148.71 28.5639C148.915 28.9468 149.083 29.2581 149.25 29.5695ZM128.545 24.0678C128.938 23.0475 129.372 22.0985 129.549 21.0125C129.659 20.3435 129.442 19.5794 130.377 19.4745C129.185 18.9547 129.173 16.903 129.102 15.8395C129.006 14.3747 128.543 12.4137 129.187 11.0504C129.847 9.65001 130.739 9.67318 131.008 11.341C131.113 11.994 130.71 12.2052 130.634 12.6599C130.485 13.5596 130.783 13.3623 131.363 12.677C131.603 13.3736 131.695 14.4204 132.67 14.3761C132.605 14.1877 132.231 13.7721 132.356 13.5381C132.548 13.1787 133.484 13.7279 133.603 13.811C134.458 14.4091 134.644 14.9552 134.034 15.7097C134.878 15.8007 134.169 16.5399 134.714 16.7327C135.546 17.0266 134.988 15.6338 134.898 15.3888C135.404 15.5864 135.574 15.8119 135.895 16.2118C136.083 16.4878 136.254 16.7742 136.409 17.0706C136.581 17.6115 136.936 17.7471 137.473 17.4773C138.55 17.8152 140.037 17.7624 141.003 18.3531C141.444 18.6229 141.603 19.2132 141.971 19.4374C142.386 19.6898 142.941 19.5753 143.386 19.7337C143.223 20.1037 143.355 20.304 143.781 20.3353C144.112 20.3656 144.433 20.4402 144.743 20.5588C144.975 20.384 145.227 20.2461 145.499 20.1456C145.682 20.4682 145.941 20.5479 146.276 20.3854C147.269 20.5714 147.746 20.9471 148.377 21.5088C148.944 22.013 148.483 22.0539 149.104 22.0092C149.353 21.9912 149.79 21.5681 150.361 21.6505C150.689 21.7146 151.006 21.8158 151.311 21.9541C151.64 22.2361 151.991 22.2715 152.361 22.0607C152.962 22.3547 153.021 22.8755 153.755 22.9467C154.566 23.0257 154.305 22.0147 154.862 23.4406C155.612 21.9289 155.887 24.3372 156.661 24.5317C157.463 24.7334 157.55 24.0831 158.236 24.7937C158.442 25.0066 158.431 25.3585 158.662 25.5843C159.04 25.9539 159.552 25.88 159.881 26.3841C159.698 26.1028 159.924 27.3812 159.921 27.339C159.972 27.9031 159.471 28.535 160.498 28.4869C160.486 28.5462 159.993 29.2653 159.897 29.1839C159.873 29.1018 159.853 29.0187 159.837 28.9345C159.727 28.9819 159.678 29.6669 159.699 29.7878C159.786 29.8015 159.821 29.7367 159.805 29.5937C159.637 30.122 159.891 30.4575 159.567 30.959C159.359 31.2795 158.792 31.5204 158.489 31.7183C157.761 32.1958 157.048 32.6748 156.338 33.183C154.681 34.3685 152.827 35.7978 150.74 36.0451C151.788 35.0164 157.816 31.1232 154.793 30.0055C154.232 29.7984 153.211 29.6022 152.624 29.5586C151.895 29.5044 151.141 29.9221 150.336 29.6615C149.365 29.3474 149.731 28.4348 149.138 28.1074C147.879 27.4129 148.176 29.0463 147.78 29.4741C147.363 29.0371 147.453 28.8245 146.795 28.785C146.128 28.7448 145.969 29.3617 145.19 28.9774C144.117 28.4477 144.685 27.3928 143.163 27.3679C143.188 27.1363 143.409 26.489 143.118 26.3085C142.727 26.8164 143.03 27.3843 142.666 27.8731C142.484 28.1183 142.09 28.3139 141.802 28.3932C141.127 28.5786 141.031 28.9335 141.14 27.9174C140.64 28.8184 139.107 28.4477 138.194 28.3571C136.711 28.2096 135.135 27.9289 133.713 27.4534C132.398 27.0133 131.696 26.2574 130.611 25.5697C130.201 25.3094 130.006 25.4089 129.418 25.2474C128.837 25.088 128.272 24.779 128.545 24.0678ZM131.674 8.11439C131.898 7.9795 132.059 9.99236 131.788 10.3684C131.291 9.58256 130.41 8.42983 131.674 8.11439ZM132.39 7.31149C133.11 6.65984 132.609 8.34296 132.477 8.62536C132.211 8.45435 131.944 8.28335 131.677 8.11235C132.017 7.90353 132.103 7.57141 132.39 7.31149ZM159.555 4.59895C166.207 5.99491 172.798 8.60424 178.134 12.8984C182.993 16.8097 186.423 22.3591 188.346 28.2621C190.342 34.3893 189.672 41.1871 184.923 45.8764C182.421 48.3464 179.117 49.8368 175.969 51.291C174.46 51.9876 172.907 52.568 171.392 53.2486C170.305 53.7375 168.977 54.5196 167.736 54.384C168.369 53.7177 169.287 53.7041 170.054 53.2967C170.98 52.8041 171.736 51.8588 172.534 51.1837C173.327 50.5133 175.084 48.4023 176.302 48.9133C176.133 47.7888 177.414 47.2666 177.992 46.525C178.602 45.7405 178.646 44.8232 179.771 44.5663C178.563 43.6207 178.933 41.8371 179.196 40.5498C179.532 38.9035 179.688 37.392 179.82 35.7167C180.059 32.6963 180.252 28.8487 178.583 26.1934C178.041 25.3312 177.352 24.5389 176.869 23.6433C176.286 22.5642 176.415 21.6141 176.415 20.431C175.35 21.1464 175.126 19.6878 174.676 18.9768C174.339 18.4434 173.895 18.1453 173.786 17.4743C173.707 16.9858 174.237 16.9033 173.947 16.3913C173.59 16.6605 173.448 17.0774 173.268 17.4644C172.939 17.3329 173.327 16.8751 173.138 16.7262C173.133 16.7221 172.498 16.4465 172.53 16.4864C172.122 15.969 171.99 15.1102 171.79 14.4943C171.042 14.8731 171.182 14.8285 170.348 14.1956C170.201 14.0842 169.467 13.5725 169.398 13.4053C169.075 12.6231 169.641 13.0864 169.482 12.601C169.028 11.2068 166.479 11.4704 166.277 9.38124C165.033 10.1705 164.56 9.05218 163.825 8.25678C163.071 7.44196 161.808 7.12857 161.876 5.83617C161.484 5.97004 161.093 6.10357 160.702 6.23676C160.905 5.04417 159.134 5.12013 158.492 4.51515C158.848 4.51958 159.203 4.54751 159.555 4.59895ZM160.568 78.4638C161.184 77.9123 160.997 78.646 161.394 78.5622C161.733 78.4903 161.8 78.2338 162.125 78.1551C163.466 77.8312 165.47 78.2383 166.879 78.1684C168.512 78.0877 171.31 78.4266 172.088 80.3366C172.557 81.487 171.842 81.0956 171.054 81.0101C170.443 80.944 169.9 81.0676 169.295 81.0615C168.996 81.1075 168.698 81.1031 168.401 81.0475C168.256 80.9522 168.171 80.818 168.145 80.6449C167.304 80.5175 166.41 81.0152 165.478 81.0401C164.235 81.0731 163.13 80.8346 162.186 79.9953C161.81 80.555 161.554 80.8326 160.879 80.8953C160.861 80.897 160.201 80.6313 160.099 80.6047C159.964 80.5696 159.622 80.8534 159.362 80.7723C159.824 80.0358 159.891 79.0684 160.568 78.4638ZM245.48 85.1107C245.7 84.3474 245.883 83.5741 246.083 82.8056C249.152 86.2993 251.837 90.9759 253.046 95.4564C253.831 98.3679 255.053 103.643 251.31 105.145C248.262 106.368 246.562 101.984 245.79 99.8238C244.088 95.0565 244.088 89.9615 245.48 85.1107ZM108.179 30.3686C108.218 30.3608 106.192 31.5391 106.859 30.5849C107.128 30.2014 108.145 29.9316 108.596 29.9316L108.179 30.3686ZM106.23 30.868C105.995 31.0653 105.758 31.2601 105.52 31.4522C105.29 31.0898 105.061 30.7273 104.831 30.3649C105.284 30.1741 107.203 30.0311 106.23 30.868ZM104.802 67.5036C104.378 67.2164 104.042 67.369 103.914 67.851C103.914 67.3714 104.164 66.2571 104.548 66.1274C104.796 66.0432 103.724 64.7743 104.025 64.4422C104.792 64.8813 104.333 65.302 104.557 65.8688C104.659 66.1246 104.963 66.3665 105.03 66.563C105.143 66.8965 105.6 68.0435 104.802 67.5036ZM102.725 64.6483C102.291 64.7593 103.051 65.476 103.05 65.7928C103.05 66.0323 102.762 66.2163 102.643 66.544C102.386 67.2542 102.829 67.7338 102.1 68.2758C102.1 66.7197 101.056 62.5966 103.062 61.8383C102.084 61.0674 102.888 60.1777 103.655 61.1001C104.392 61.9872 103.923 64.3417 102.725 64.6483ZM101.679 58.5078C101.285 57.1092 100.098 56.62 98.7408 56.7028C98.7925 55.9867 99.3352 54.9542 99.7272 56.2449C99.8884 55.8634 100 55.3657 100.367 55.113C100.986 57.0533 104.072 58.1253 102.151 60.2278C101.994 59.6545 101.841 59.0801 101.679 58.5078ZM98.094 56.807C90.9491 57.3251 80.9183 58.8076 75.2007 53.3311C71.4727 49.7601 71.6718 44.1991 74.6845 40.2316C76.4038 37.9677 78.7507 36.3735 81.1078 34.8549C82.0173 34.2687 82.7879 33.8817 83.7865 33.5448C83.9481 33.5274 84.1002 33.5635 84.2424 33.6531C84.2986 33.4119 84.4343 33.2335 84.6507 33.117C85.0362 32.9105 85.5857 32.8369 85.8078 32.4084C85.5707 33.213 85.4489 34.0415 85.3618 34.874C85.1692 34.6498 84.977 34.4257 84.7847 34.2016C84.6242 35.7178 83.0444 34.8001 82.1013 34.9895C82.7226 35.8493 83.1669 36.1616 83.2203 37.298C82.7576 36.4437 81.79 35.882 80.8904 35.6067C81.379 37.0517 81.7243 37.9095 81.2324 39.4941C80.6383 39.1549 80.5982 38.34 79.8775 38.1448C79.6874 39.0898 79.6537 40.1383 79.4101 41.0553C77.5646 40.2136 77.7446 42.4806 78.4856 43.6023C78.8796 44.1991 79.0732 44.8899 79.4247 45.4629C80.2872 46.868 79.6319 44.7666 80.5907 44.8664C80.3753 46.3486 80.3005 46.4961 81.3851 47.5814C82.4436 48.6397 82.9927 50.1083 84.125 51.1026C84.4527 50.6836 83.9372 50.2452 83.892 49.8443C84.9457 50.021 85.439 51.0774 86.4519 50.1416C86.8935 51.0024 87.3715 51.9505 88.4293 52.1272C87.7302 50.7981 89.7722 51.6994 90.2959 51.8881C90.6933 52.0312 91.4047 52.145 91.5581 52.2001C92.421 52.5118 91.8293 51.9525 92.3529 52.9741C93.1218 52.7421 93.4121 52.1041 94.3317 52.643C95.0796 53.0814 95.0813 53.8322 95.2521 54.6013C95.4303 54.0982 95.6103 53.5954 95.8073 53.0991C96.0081 53.1836 96.8501 54.1101 96.7583 54.1146C98.7289 54.0178 98.6592 55.2414 98.094 56.807ZM88.0622 31.7237C88.4579 31.4461 88.941 31.8157 89.3854 31.7162C90.0005 31.5789 90.35 31.052 91.0372 30.9954C90.846 31.6065 90.4871 31.5493 90.1836 32.0293C90.0802 32.1928 90.1339 32.5852 90.042 32.6792C89.2718 33.4682 89.0057 32.8243 88.2194 32.2272C88.2878 32.9473 88.4263 33.1749 87.7478 33.368C87.1337 33.5431 86.1202 32.8983 85.8106 32.4036C86.0715 31.8811 87.5886 32.0562 88.0622 31.7237ZM92.9647 30.5982C93.6319 30.6619 92.8282 32.6302 91.8722 30.7209C92.2321 30.6425 92.5965 30.6016 92.9647 30.5982ZM96.3952 30.2177C97.4472 30.0031 100.957 29.003 101.347 30.6408C101.417 30.5999 101.678 29.6754 101.8 29.7882C102.286 30.2402 102.34 30.8394 102.303 31.4672C101.715 30.2436 101.924 31.3184 101.526 31.2346C101.423 31.2124 101.264 31.4066 101 31.3265C100.655 31.2213 100.408 30.4872 100.19 30.2385C99.8275 30.7563 99.3781 31.4229 98.6517 31.378C98.1376 31.3463 97.3091 30.0225 97.975 31.4716C97.584 31.3425 97.1315 31.0503 96.696 31.1089C96.2085 31.1746 95.955 31.6559 95.498 31.7336C94.4848 31.9053 94.3321 30.9304 93.6744 30.401C94.5815 30.3482 95.4994 30.4003 96.3952 30.2177ZM102.761 30.2021C102.835 29.8662 103.756 29.7306 103.99 29.8372C104.562 30.0971 104.351 30.4402 104.245 31.0111C103.821 30.8101 103.396 30.6095 102.972 30.4085C103.605 31.4291 102.457 31.5772 102.761 30.2021ZM280.98 89.9823C280.904 87.5365 280.833 85.0484 280.213 82.6673C279.779 81.0009 278.713 78.0128 276.697 77.7235C273.656 77.2872 271.973 83.2968 271.121 85.3598C270.95 82.931 271.099 80.3458 270.182 78.0407C269.447 76.1934 267.592 74.4438 265.994 76.5183C264.571 78.3646 264.298 81.0901 263.924 83.3115C263.439 86.1899 263.148 89.0905 262.793 91.9863C261.405 89.3024 261.162 86.2301 260.064 83.4406C259.028 80.8084 257.398 78.2945 255.828 75.9532C254.546 74.0408 252.986 72.2429 250.977 71.0738C249.229 70.0563 246.172 68.9557 244.505 70.6457C243.115 72.0556 243.332 73.9424 243.405 75.7216C243.437 76.5139 243.561 77.0572 242.864 77.4565C242.522 77.6527 241.987 77.5512 241.611 77.6561C241.004 77.8254 240.539 78.1122 240.027 78.4934C236.431 81.1661 234.773 85.9824 234.26 90.2766C233.611 95.7174 235.731 100.381 237.557 105.36C237.848 106.153 238.771 107.836 238.644 108.722C238.504 109.692 237.286 109.717 236.464 109.738C233.982 109.799 231.387 109.614 228.917 109.383C223.037 108.832 217.161 106.001 211.895 103.474C210.935 103.013 209.576 102.749 208.792 102.022C208.054 101.34 207.86 100.246 207.224 99.4624C205.662 97.5408 204.667 95.901 202.368 94.7401C200.026 93.558 197.637 92.4656 195.352 91.1708C192.527 89.5691 189.917 87.5402 187.209 85.7467C182.178 82.4146 177.18 78.7615 171.845 75.928C169.367 74.6111 166.596 74.3978 164.023 73.3197C161.517 72.2698 158.44 72.2685 155.825 72.9314C154.551 73.2546 153.684 74.0204 152.512 74.5201C151.139 75.106 150.019 74.4595 148.811 73.7602C146.965 72.6919 145.135 70.9512 147.764 69.7988C148.656 69.4078 149.773 69.2596 150.552 68.6447C151.383 67.9897 152.049 66.7811 152.724 65.9604C154.226 64.1363 155.122 62.0362 157.319 60.9019C159.749 59.6473 162.629 59.306 165.22 58.486C168.027 57.598 170.775 56.542 173.529 55.5051C178.492 53.637 183.652 51.62 187.218 47.5078C190.295 43.96 191.635 39.3807 191.511 34.7296C191.257 25.2212 186.164 15.5714 178.856 9.62651C169.895 2.33674 158.495 -0.0940975 147.176 0.0333032C141.863 0.0932565 135.524 0.78851 131.091 4.01611C127.262 6.80394 126.625 11.6799 127.195 16.0814C127.426 17.8677 128.216 20.225 126.956 21.7991C126.251 22.6796 124.985 22.8976 124.036 23.4468C122.842 24.1366 121.79 24.7978 120.438 25.1626C114.696 26.7132 108.648 26.1733 102.778 26.0874C92.998 25.9444 82.9737 28.5922 75.678 35.4834C69.7865 41.0478 68.0197 51.5407 75.2051 56.9654C81.0105 61.3478 90.1166 60.8658 96.9617 60.1014C99.0845 59.8639 100.544 59.5192 100.549 62.1163C100.554 64.9532 100.084 67.9181 100.808 70.7032C101.948 75.0894 106.163 75.1939 109.889 74.2493C111.855 73.751 113.756 73.0015 115.623 72.2167C118.361 71.0657 120.872 69.373 123.576 68.224C125.41 67.4453 126.783 69.9637 128.409 68.2179C128.709 67.8953 128.765 67.4143 129.218 67.2491C129.928 66.9905 131.12 67.8973 131.743 68.1842C132.676 68.6137 133.616 68.9295 133.989 69.9637C134.338 70.9311 134.185 72.4695 133.851 73.4239C133.125 75.4985 131.171 75.0883 129.387 74.9497C126.275 74.7075 123.185 74.1941 120.074 73.9785C117.284 73.785 114.67 74.6189 112.263 75.9951C107.208 78.8855 103.071 83.4828 98.6877 87.2636C96.4316 89.2094 94.2507 91.3111 91.7973 93.0055C90.7307 93.7423 89.5752 94.4195 88.6481 95.3352C87.7281 96.2433 87.6271 97.069 87.3123 98.2776C86.752 100.429 83.9692 101.481 82.2296 102.617C79.7697 104.222 77.1618 105.355 74.4042 106.34C68.5641 108.426 62.678 109.883 56.5725 110.959C53.5832 111.487 50.6187 111.833 47.6002 112.118C44.9984 112.363 42.2316 113.164 39.6329 112.524C40.3814 111.31 41.7077 110.581 42.7406 109.643C44.0723 108.433 45.2049 107 46.2127 105.515C48.1745 102.623 49.5504 99.5193 49.8665 96.0113C50.1513 92.8543 49.8246 89.0775 47.9197 86.4106C47.2616 85.4892 45.9599 85.2385 45.371 84.4087C44.7854 83.5836 45.0086 82.1635 44.6881 81.2015C43.8719 78.755 41.4498 75.7233 39.3182 74.3025C37.0056 72.7604 33.6227 72.1939 30.9511 72.9975C26.0021 74.4861 22.9621 79.7749 20.6975 84.0496C19.4604 81.4464 21.5321 77.5846 19.1154 75.4528C17.0771 73.6546 15.4593 77.138 14.7774 78.6283C11.5772 85.6241 10.8504 93.044 9.50957 100.529C8.96315 99.9907 9.24317 98.6084 9.29454 97.966C9.39015 96.77 9.3813 95.5968 9.38369 94.3957C9.39015 91.3616 9.95426 88.3135 9.69568 85.2821C9.54632 83.5298 8.98765 79.8349 6.44168 80.417C4.28255 80.911 2.93012 83.9471 2.25169 85.8033C1.27318 88.4807 1.04726 91.1313 1.10816 93.9596C1.17553 97.0847 0.580118 100.159 0.435859 103.279C0.155506 109.341 0.432457 115.35 2.17174 121.201C5.01984 130.78 11.5683 138.74 20.3083 143.547C25.1236 146.195 30.4656 147.871 35.958 148.231C38.9344 148.427 41.8077 148.072 44.7585 147.765C47.6706 147.461 50.598 147.32 53.5049 146.964C59.9789 146.17 66.2872 144.12 72.1716 141.363C75.2691 139.911 78.1818 138.129 81.2286 136.581C82.4511 135.96 83.2772 135.183 84.3203 134.319C85.3546 133.464 85.6411 133.397 86.8173 133.397C86.4723 132.473 87.4794 132.189 87.9275 131.605C87.9023 131.888 87.8771 132.171 87.852 132.454C88.1936 131.714 88.5117 131.721 88.806 132.476C89.0969 131.63 89.3122 130.76 89.6634 129.936C91.0063 130.616 90.8933 132.231 92.6891 131.052C94.1681 130.081 95.528 128.936 97.0356 127.984C100.47 125.816 103.431 122.996 106.875 120.853C106.875 122.94 107.022 125.045 106.743 127.122C106.478 129.096 105.741 130.942 105.155 132.832C104.073 136.319 103.998 140.046 102.801 143.499C102.305 144.928 101.014 146.124 100.643 147.516C100.266 148.936 101.138 150.074 99.6765 151.006C98.6462 151.663 97.3584 151.941 96.2176 152.338C94.4773 152.945 92.8252 153.801 91.1311 154.527C83.1853 157.931 75.4348 161.399 68.0731 165.977C61.0867 170.321 53.9935 174.808 47.5757 179.967C42.0057 184.445 36.3752 190.234 35.0193 197.539C33.7036 204.624 37.2091 212.229 44.2479 214.562C47.9078 215.775 52.0453 215.625 55.8567 215.678C59.9578 215.734 64.3036 214.746 68.3358 214.031C72.5941 213.276 76.7794 212.093 81.05 211.419C85.1474 210.772 88.9057 209.325 92.9361 208.434C97.2288 207.485 101.632 206.97 105.948 206.116C107.891 205.731 109.795 205.164 111.744 204.808C113.877 204.418 116.034 204.272 118.146 203.756C122.244 202.754 126.167 201.14 130.283 200.208C132.133 199.789 133.955 199.228 135.806 198.837C137.51 198.477 138.837 197.519 140.545 198.305C141.925 198.941 143.026 200.031 144.332 200.79C146.025 201.774 147.811 202.656 149.577 203.503C153.125 205.206 156.804 206.383 160.514 207.661C164.41 209.003 168.237 210.535 172.274 211.421C176.413 212.33 180.635 212.583 184.802 213.302C193.336 214.775 201.798 215.436 210.461 215.489C214.84 215.517 219.218 214.997 223.587 215.059C227.454 215.113 230.816 215.985 234.353 213.929C240.003 210.644 246.558 205.695 246.419 198.508C246.293 191.998 242.387 185.778 238.725 180.643C234.277 174.408 227.935 170.017 221.719 165.716C215.094 161.132 207.653 157.965 200.691 153.963C197.13 151.917 193.846 149.716 189.979 148.261C188.134 147.567 186.333 146.763 184.509 146.015C183.041 145.414 180.922 145.082 179.666 144.084C178.882 143.462 178.807 142.519 178.6 141.594C178.141 139.546 177.421 137.604 176.723 135.629C175.375 131.815 174.479 127.93 173.9 123.93C173.347 120.117 172.122 116.152 172.756 112.277C176.932 116.316 181.224 120.199 185.496 124.131C187.097 125.605 188.669 127.11 190.279 128.574C191.487 129.674 192.998 131.307 194.683 131.634C196.833 132.051 196.048 129.671 197.525 129.302C198.427 129.077 201.15 131.371 201.864 131.824C206.388 134.696 211.397 136.516 216.372 138.471C221.59 140.521 226.956 142.341 232.57 142.857C237.756 143.335 243.059 142.722 248.063 141.309C258.029 138.496 265.363 131.82 270.745 123.166C276.878 113.305 281.341 101.754 280.98 89.9823Z" fill="black"/>
<path fill-rule="evenodd" clip-rule="evenodd" d="M128.661 68.4853C128.659 68.4883 128.644 68.5211 128.644 68.5211C128.663 68.508 128.668 68.4962 128.661 68.4853Z" fill="black"/>
<path fill-rule="evenodd" clip-rule="evenodd" d="M129.142 68.6127C129.104 68.2985 129.024 67.9911 128.9 67.6899C128.57 68.213 128.275 68.437 128.708 68.991C128.853 68.8649 128.997 68.7388 129.142 68.6127Z" fill="black"/>
<path fill-rule="evenodd" clip-rule="evenodd" d="M152.123 143.369C152.492 142.977 151.847 142.829 151.602 142.823C151.626 143.245 151.417 144.254 151.994 144.45C151.855 144.069 151.899 143.708 152.123 143.369Z" fill="black"/>
<path fill-rule="evenodd" clip-rule="evenodd" d="M142.388 61.1989C141.754 62.4237 143.155 62.8037 143.966 62.212C144.576 61.7671 144.937 60.6331 145.037 59.9055C145.362 57.551 143.714 55.3101 142.893 53.2211C142.68 52.6811 142.39 50.8292 141.706 50.7783C140.921 50.7198 140.863 52.4255 140.853 52.8656C140.822 54.1927 141.174 55.5442 141.586 56.7969C142.029 58.1475 143.129 59.7685 142.388 61.1989Z" fill="black"/>
<path fill-rule="evenodd" clip-rule="evenodd" d="M145.404 56.2866C147.842 58.4574 149.792 54.8419 149.622 52.7032C149.58 52.1733 149.222 50.2197 148.217 50.9307C147.712 51.2879 148.143 52.4486 147.902 52.9581C146.736 55.4289 145.613 51.5966 144.828 51.2955C143.873 50.929 143.777 52.1843 143.778 52.8552C143.78 54.187 144.414 55.4045 145.404 56.2866Z" fill="black"/>
<path fill-rule="evenodd" clip-rule="evenodd" d="M136.555 56.6237C137.129 55.7195 137.835 54.5067 137.913 53.4234C138.034 51.7396 137.053 51.8801 136.246 53.055C135.675 53.8848 135.247 55.2925 133.988 54.9427C132.433 54.5112 132.908 52.4207 132.038 51.4273C129.84 54.3793 133.999 60.6474 136.555 56.6237Z" fill="black"/>
<path fill-rule="evenodd" clip-rule="evenodd" d="M139.849 65.6579C140.758 65.8544 143.128 65.7819 142.307 64.39C141.271 62.6367 137.827 65.2206 139.849 65.6579Z" fill="black"/>
<path fill-rule="evenodd" clip-rule="evenodd" d="M171.695 13.3727C171.861 12.8772 171.633 12.7872 171.236 12.3969C170.86 12.7437 171.341 13.1085 171.695 13.3727Z" fill="black"/>
<path fill-rule="evenodd" clip-rule="evenodd" d="M188.65 103.126C189.25 103.221 189.443 102.904 189.229 102.174C188.283 102.113 188.09 102.43 188.65 103.126Z" fill="black"/>
<path fill-rule="evenodd" clip-rule="evenodd" d="M155.902 26.5617C156.564 26.8642 156.31 27.4846 156.299 28.0091C156.64 27.6388 157.328 26.9618 157.048 26.4299C156.616 25.6099 155.488 26.3725 155.902 26.5617Z" fill="black"/>
<path fill-rule="evenodd" clip-rule="evenodd" d="M133.37 16.2397C133.269 16.0429 133.168 15.8462 133.067 15.6494C132.657 15.9791 132.022 16.8508 132.675 17.2757C132.943 16.9509 133.174 16.6056 133.37 16.2397Z" fill="black"/>
<path fill-rule="evenodd" clip-rule="evenodd" d="M141.307 22.0257C142.13 22.6711 141.735 20.69 141.71 20.5282C141.588 20.7606 140.891 21.6996 141.307 22.0257Z" fill="black"/>
<path fill-rule="evenodd" clip-rule="evenodd" d="M140.851 21.0196C140.788 20.8559 140.725 20.6923 140.662 20.5282C140.328 20.8371 139.919 21.4679 140.471 21.8293C140.622 21.5761 140.748 21.3064 140.851 21.0196Z" fill="black"/>
<path fill-rule="evenodd" clip-rule="evenodd" d="M146.078 27.8226C146.145 27.8847 146.212 27.9467 146.279 28.0091C146.551 27.4615 146.242 27.0501 145.73 27.0333C145.766 27.3408 145.882 27.6039 146.078 27.8226Z" fill="black"/>
<path fill-rule="evenodd" clip-rule="evenodd" d="M124.024 89.4278C124.35 89.2056 124.647 88.9521 124.913 88.6676C123.947 88.0768 124.526 89.357 123.363 88.5709C123.112 88.9174 123.522 89.6926 124.024 89.4278Z" fill="black"/>
<path fill-rule="evenodd" clip-rule="evenodd" d="M164.627 143.149C164.995 142.585 165.061 142.601 164.559 142.173C164.141 142.87 164.184 142.691 164.627 143.149Z" fill="black"/>
<path fill-rule="evenodd" clip-rule="evenodd" d="M87.8345 53.4037C88.0345 53.6123 88.2345 53.821 88.4345 54.0293C88.5279 53.7564 89.0371 52.9851 88.6913 52.7283C88.4058 52.9534 88.12 53.1786 87.8345 53.4037Z" fill="black"/>
<path fill-rule="evenodd" clip-rule="evenodd" d="M94.9489 55.4676C94.6296 55.4143 93.8658 55.1813 93.689 55.4782C94.1563 55.8611 95.2106 55.5115 94.9489 55.4676Z" fill="black"/>
</svg>
